%TF.GenerationSoftware,KiCad,Pcbnew,8.0.2*%
%TF.CreationDate,2024-04-29T22:59:26+08:00*%
%TF.ProjectId,UINIO-Power-LDO,55494e49-4f2d-4506-9f77-65722d4c444f,Version 2.0.0*%
%TF.SameCoordinates,PX7c793c0PY34d0820*%
%TF.FileFunction,Profile,NP*%
%FSLAX46Y46*%
G04 Gerber Fmt 4.6, Leading zero omitted, Abs format (unit mm)*
G04 Created by KiCad (PCBNEW 8.0.2) date 2024-04-29 22:59:26*
%MOMM*%
%LPD*%
G01*
G04 APERTURE LIST*
%TA.AperFunction,Profile*%
%ADD10C,0.010000*%
%TD*%
%TA.AperFunction,Profile*%
%ADD11C,0.050000*%
%TD*%
G04 APERTURE END LIST*
D10*
X-5820000Y-44310000D02*
X-5820000Y-27910000D01*
X34180000Y-1796667D02*
X34180000Y-18196667D01*
X32380000Y-26110000D02*
G75*
G02*
X34180000Y-27910000I0J-1800000D01*
G01*
X32380000Y-52223333D02*
X18820000Y-52223333D01*
X-5820000Y-54023333D02*
G75*
G02*
X-4020000Y-52223400I1799900J33D01*
G01*
X-4020000Y-52223333D02*
X10540000Y-52223333D01*
D11*
X18820000Y-20070000D02*
X18820000Y-19996667D01*
D10*
X34180000Y-70423333D02*
G75*
G02*
X32380000Y-72223400I-1800100J33D01*
G01*
X-4020000Y-19996667D02*
X10540000Y-19996667D01*
X32380000Y-98336667D02*
X-4020000Y-98336667D01*
X-4020000Y-72223333D02*
G75*
G02*
X-5820033Y-70423333I0J1800033D01*
G01*
X34180000Y-27910000D02*
X34180000Y-44310000D01*
X34180000Y-96536667D02*
G75*
G02*
X32380000Y-98336600I-1799900J-33D01*
G01*
X32380000Y-52223333D02*
G75*
G02*
X34179967Y-54023333I0J-1799967D01*
G01*
X10540000Y-52223333D02*
X10540000Y-46110000D01*
X10540000Y-78336667D02*
X10540000Y-72223333D01*
X34180000Y-80136667D02*
X34180000Y-96536667D01*
X-4000000Y-78336667D02*
X10540000Y-78336667D01*
X32380000Y-26110000D02*
X18820000Y-26110000D01*
X-4020000Y-46110000D02*
G75*
G02*
X-5820000Y-44310000I0J1800000D01*
G01*
X32380000Y3333D02*
G75*
G02*
X34180033Y-1796667I0J-1800033D01*
G01*
X34180000Y-18196667D02*
G75*
G02*
X32380000Y-19996700I-1800000J-33D01*
G01*
X-5820000Y-18196667D02*
X-5820000Y-1796667D01*
X-5820000Y-80136667D02*
G75*
G02*
X-4020000Y-78336600I1800100J-33D01*
G01*
X-4020000Y-72223333D02*
X10540000Y-72223333D01*
X34180000Y-44310000D02*
G75*
G02*
X32380000Y-46110000I-1800000J0D01*
G01*
X32380000Y-78336667D02*
X18820000Y-78336667D01*
X-4020000Y3333D02*
X32380000Y3333D01*
X-5820000Y-70423333D02*
X-5820000Y-54023333D01*
X-4020000Y-98336667D02*
G75*
G02*
X-5820067Y-96536667I0J1800067D01*
G01*
X32380000Y-46110000D02*
X18820000Y-46110000D01*
X-4020000Y-19996667D02*
G75*
G02*
X-5819967Y-18196667I0J1799967D01*
G01*
X32380000Y-78336667D02*
G75*
G02*
X34180033Y-80136667I0J-1800033D01*
G01*
X32380000Y-72223333D02*
X18820000Y-72223333D01*
X18820000Y-52223333D02*
X18820000Y-46110000D01*
X32380000Y-19996667D02*
X18820000Y-19996667D01*
X10540000Y-26116667D02*
X10540000Y-20003333D01*
X-4020000Y-78336667D02*
X-4000000Y-78336667D01*
X-5820000Y-27910000D02*
G75*
G02*
X-4020000Y-26110000I1800000J0D01*
G01*
X-5820000Y-1796667D02*
G75*
G02*
X-4020000Y3400I1800100J-33D01*
G01*
X18820000Y-26116667D02*
X18820000Y-20070000D01*
X34180000Y-54023333D02*
X34180000Y-70423333D01*
X18820000Y-78330000D02*
X18820000Y-72223333D01*
X-4020000Y-26110000D02*
X10540000Y-26110000D01*
X-4020000Y-46110000D02*
X10540000Y-46110000D01*
X-5820000Y-96536667D02*
X-5820000Y-80136667D01*
M02*
