%TF.GenerationSoftware,KiCad,Pcbnew,8.0.1*%
%TF.CreationDate,2024-04-26T14:53:14+08:00*%
%TF.ProjectId,UINIO-Power-LDO,55494e49-4f2d-4506-9f77-65722d4c444f,Version 1.0.0*%
%TF.SameCoordinates,PX7c793c0PY34d0820*%
%TF.FileFunction,Legend,Bot*%
%TF.FilePolarity,Positive*%
%FSLAX46Y46*%
G04 Gerber Fmt 4.6, Leading zero omitted, Abs format (unit mm)*
G04 Created by KiCad (PCBNEW 8.0.1) date 2024-04-26 14:53:14*
%MOMM*%
%LPD*%
G01*
G04 APERTURE LIST*
%ADD10C,0.150000*%
%ADD11C,0.100000*%
%ADD12C,2.200000*%
%ADD13O,1.800000X1.000000*%
%ADD14R,1.700000X1.700000*%
%ADD15O,1.700000X1.700000*%
%ADD16C,2.800000*%
G04 APERTURE END LIST*
D10*
G36*
X19425145Y-3613917D02*
G01*
X18322340Y-3996499D01*
X18322340Y-4435355D01*
X19898000Y-3839011D01*
X19898000Y-3388823D01*
X18322340Y-2792089D01*
X18322340Y-3231335D01*
X19425145Y-3613917D01*
G37*
G36*
X19611145Y-4427959D02*
G01*
X19689160Y-4440117D01*
X19764676Y-4470739D01*
X19828439Y-4519374D01*
X19844921Y-4537269D01*
X19888152Y-4604558D01*
X19913370Y-4683601D01*
X19920665Y-4764789D01*
X19920488Y-4809312D01*
X19919072Y-4900243D01*
X19916238Y-4993691D01*
X19911989Y-5089654D01*
X19906322Y-5188132D01*
X19899239Y-5289127D01*
X19890739Y-5392637D01*
X19883435Y-5471921D01*
X19875334Y-5552619D01*
X19593966Y-5552619D01*
X19601934Y-5448388D01*
X19608840Y-5350630D01*
X19614684Y-5259345D01*
X19619465Y-5174531D01*
X19623947Y-5077616D01*
X19626769Y-4990815D01*
X19627965Y-4900002D01*
X19605690Y-4843729D01*
X19549025Y-4821063D01*
X19459144Y-4821063D01*
X19459144Y-5597951D01*
X19042563Y-5597951D01*
X19011555Y-5597109D01*
X18926279Y-5584487D01*
X18845160Y-5552697D01*
X18778390Y-5502207D01*
X18750808Y-5470504D01*
X18709668Y-5396391D01*
X18688631Y-5317487D01*
X18682647Y-5237644D01*
X18682647Y-5113764D01*
X18964015Y-5113764D01*
X18978849Y-5172211D01*
X19053896Y-5204036D01*
X19177776Y-5204036D01*
X19177776Y-4821063D01*
X19053896Y-4821063D01*
X18992454Y-4838342D01*
X18964015Y-4911335D01*
X18964015Y-5113764D01*
X18682647Y-5113764D01*
X18682647Y-4787455D01*
X18684143Y-4746392D01*
X18698448Y-4662349D01*
X18727901Y-4589867D01*
X18778390Y-4522891D01*
X18809982Y-4495309D01*
X18883926Y-4454169D01*
X18962745Y-4433132D01*
X19042563Y-4427148D01*
X19583024Y-4427148D01*
X19611145Y-4427959D01*
G37*
G36*
X19031230Y-6479179D02*
G01*
X19036578Y-6398674D01*
X19052622Y-6316747D01*
X19079360Y-6233398D01*
X19098837Y-6186478D01*
X19898000Y-6186478D01*
X19898000Y-5792563D01*
X18704922Y-5792563D01*
X18704922Y-6141537D01*
X18851468Y-6163812D01*
X18794095Y-6237117D01*
X18748593Y-6311659D01*
X18714960Y-6387437D01*
X18693198Y-6464451D01*
X18683307Y-6542702D01*
X18682647Y-6569060D01*
X18682647Y-6670274D01*
X19031230Y-6670274D01*
X19031230Y-6479179D01*
G37*
G36*
X19583024Y-6777741D02*
G01*
X19589030Y-6861697D01*
X19594445Y-6942253D01*
X19600747Y-7044370D01*
X19605998Y-7140443D01*
X19610199Y-7230471D01*
X19613350Y-7314454D01*
X19615811Y-7410932D01*
X19616632Y-7497965D01*
X19594357Y-7554238D01*
X19537692Y-7576904D01*
X19459144Y-7576904D01*
X19459144Y-7092717D01*
X19451849Y-7011528D01*
X19426631Y-6932485D01*
X19383400Y-6865196D01*
X19366918Y-6847302D01*
X19303155Y-6798667D01*
X19227638Y-6768045D01*
X19149623Y-6755886D01*
X19121503Y-6755076D01*
X19042563Y-6755076D01*
X18961406Y-6762371D01*
X18882469Y-6787589D01*
X18815364Y-6830820D01*
X18797539Y-6847302D01*
X18748698Y-6911064D01*
X18717946Y-6986581D01*
X18705736Y-7064596D01*
X18704922Y-7092717D01*
X18704922Y-7858272D01*
X18997623Y-7858272D01*
X18997623Y-7227930D01*
X19020288Y-7171265D01*
X19076562Y-7148990D01*
X19132836Y-7171265D01*
X19155110Y-7227930D01*
X19155110Y-7633177D01*
X19162437Y-7714335D01*
X19187762Y-7793271D01*
X19231176Y-7860377D01*
X19247727Y-7878202D01*
X19311284Y-7927043D01*
X19386671Y-7957794D01*
X19464634Y-7970005D01*
X19492752Y-7970819D01*
X19583024Y-7970819D01*
X19664213Y-7963493D01*
X19743256Y-7938168D01*
X19810545Y-7894753D01*
X19828439Y-7878202D01*
X19877074Y-7814645D01*
X19907696Y-7739258D01*
X19919855Y-7661295D01*
X19920665Y-7633177D01*
X19919957Y-7532617D01*
X19917832Y-7430236D01*
X19914290Y-7326036D01*
X19910705Y-7246692D01*
X19906322Y-7166324D01*
X19901143Y-7084933D01*
X19895166Y-7002518D01*
X19888393Y-6919080D01*
X19880823Y-6834618D01*
X19875334Y-6777741D01*
X19583024Y-6777741D01*
G37*
G36*
X18749863Y-8594908D02*
G01*
X19898000Y-8594908D01*
X19898000Y-8200993D01*
X19053896Y-8200993D01*
X19053896Y-8032173D01*
X18749863Y-8032173D01*
X18749863Y-8594908D01*
G37*
G36*
X18299674Y-8200993D02*
G01*
X18299674Y-8594908D01*
X18615041Y-8594908D01*
X18615041Y-8200993D01*
X18299674Y-8200993D01*
G37*
G36*
X19601422Y-8794534D02*
G01*
X19685464Y-8808839D01*
X19757946Y-8838291D01*
X19824922Y-8888781D01*
X19852504Y-8920485D01*
X19893644Y-8994597D01*
X19914681Y-9073502D01*
X19920665Y-9153345D01*
X19920665Y-9671140D01*
X19919824Y-9702148D01*
X19907201Y-9787424D01*
X19875412Y-9868543D01*
X19824922Y-9935313D01*
X19793218Y-9962895D01*
X19719106Y-10004035D01*
X19640201Y-10025072D01*
X19560358Y-10031056D01*
X19042563Y-10031056D01*
X19011555Y-10030214D01*
X18926279Y-10017592D01*
X18845160Y-9985802D01*
X18778390Y-9935313D01*
X18750808Y-9903721D01*
X18709668Y-9829777D01*
X18688631Y-9750958D01*
X18682647Y-9671140D01*
X18682647Y-9547260D01*
X18986290Y-9547260D01*
X19003568Y-9608702D01*
X19076562Y-9637141D01*
X19526750Y-9637141D01*
X19584945Y-9622307D01*
X19616632Y-9547260D01*
X19616632Y-9277225D01*
X19601798Y-9218777D01*
X19526750Y-9186953D01*
X19076562Y-9186953D01*
X19014852Y-9204231D01*
X18986290Y-9277225D01*
X18986290Y-9547260D01*
X18682647Y-9547260D01*
X18682647Y-9153345D01*
X18684143Y-9112282D01*
X18698448Y-9028239D01*
X18727901Y-8955757D01*
X18778390Y-8888781D01*
X18809982Y-8861199D01*
X18883926Y-8820059D01*
X18962745Y-8799022D01*
X19042563Y-8793038D01*
X19560358Y-8793038D01*
X19601422Y-8794534D01*
G37*
G36*
X19008956Y-10889618D02*
G01*
X19014266Y-10803935D01*
X19028310Y-10719549D01*
X19048454Y-10638315D01*
X19053896Y-10619584D01*
X19898000Y-10619584D01*
X19898000Y-10225669D01*
X18704922Y-10225669D01*
X18704922Y-10574643D01*
X18817469Y-10596918D01*
X18774033Y-10670373D01*
X18739371Y-10745121D01*
X18715473Y-10814196D01*
X18695470Y-10892836D01*
X18683801Y-10972220D01*
X18682647Y-11002166D01*
X18682647Y-11103380D01*
X18689942Y-11184726D01*
X18715160Y-11263800D01*
X18758391Y-11330967D01*
X18774873Y-11348795D01*
X18838468Y-11397430D01*
X18913969Y-11428052D01*
X18992101Y-11440210D01*
X19020288Y-11441021D01*
X19898000Y-11441021D01*
X19898000Y-11047106D01*
X19087504Y-11047106D01*
X19031621Y-11024440D01*
X19008956Y-10968558D01*
X19008956Y-10889618D01*
G37*
G36*
X19898000Y-12566492D02*
G01*
X18671314Y-12566492D01*
X18761196Y-12307790D01*
X18502494Y-12195243D01*
X18322340Y-12611824D01*
X18322340Y-12971740D01*
X19898000Y-12971740D01*
X19898000Y-12566492D01*
G37*
G36*
X19560358Y-13169479D02*
G01*
X19560358Y-13574727D01*
X19898000Y-13574727D01*
X19898000Y-13169479D01*
X19560358Y-13169479D01*
G37*
G36*
X19499478Y-13729897D02*
G01*
X19580435Y-13736171D01*
X19663425Y-13753006D01*
X19743158Y-13784795D01*
X19813589Y-13836555D01*
X19832725Y-13857765D01*
X19874551Y-13925408D01*
X19902994Y-14009171D01*
X19916901Y-14095687D01*
X19920665Y-14179667D01*
X19920665Y-14607581D01*
X19920247Y-14636627D01*
X19913973Y-14717685D01*
X19897138Y-14800723D01*
X19865350Y-14880420D01*
X19813589Y-14950693D01*
X19792379Y-14969829D01*
X19724736Y-15011655D01*
X19640973Y-15040097D01*
X19554457Y-15054005D01*
X19470477Y-15057769D01*
X18749863Y-15057769D01*
X18720862Y-15057351D01*
X18639905Y-15051077D01*
X18556915Y-15034242D01*
X18477182Y-15002453D01*
X18406750Y-14950693D01*
X18387615Y-14929549D01*
X18345788Y-14862016D01*
X18317346Y-14778265D01*
X18303439Y-14691680D01*
X18299674Y-14607581D01*
X18299674Y-14517309D01*
X18615041Y-14517309D01*
X18621492Y-14569994D01*
X18673104Y-14636544D01*
X18749863Y-14652521D01*
X19470477Y-14652521D01*
X19523010Y-14646051D01*
X19589368Y-14594290D01*
X19605299Y-14517309D01*
X19605299Y-14269939D01*
X19598847Y-14217254D01*
X19547236Y-14150704D01*
X19470477Y-14134727D01*
X18749863Y-14134727D01*
X18697330Y-14141197D01*
X18630972Y-14192958D01*
X18615041Y-14269939D01*
X18615041Y-14517309D01*
X18299674Y-14517309D01*
X18299674Y-14179667D01*
X18300093Y-14150666D01*
X18306367Y-14069709D01*
X18323202Y-13986719D01*
X18354990Y-13906986D01*
X18406750Y-13836555D01*
X18427961Y-13817419D01*
X18495604Y-13775593D01*
X18579367Y-13747151D01*
X18665883Y-13733243D01*
X18749863Y-13729479D01*
X19470477Y-13729479D01*
X19499478Y-13729897D01*
G37*
G36*
X19560358Y-15207832D02*
G01*
X19560358Y-15613080D01*
X19898000Y-15613080D01*
X19898000Y-15207832D01*
X19560358Y-15207832D01*
G37*
G36*
X19499478Y-15768250D02*
G01*
X19580435Y-15774524D01*
X19663425Y-15791359D01*
X19743158Y-15823148D01*
X19813589Y-15874908D01*
X19832725Y-15896118D01*
X19874551Y-15963761D01*
X19902994Y-16047524D01*
X19916901Y-16134041D01*
X19920665Y-16218020D01*
X19920665Y-16645934D01*
X19920247Y-16674980D01*
X19913973Y-16756039D01*
X19897138Y-16839077D01*
X19865350Y-16918773D01*
X19813589Y-16989046D01*
X19792379Y-17008182D01*
X19724736Y-17050008D01*
X19640973Y-17078451D01*
X19554457Y-17092358D01*
X19470477Y-17096122D01*
X18749863Y-17096122D01*
X18720862Y-17095704D01*
X18639905Y-17089430D01*
X18556915Y-17072595D01*
X18477182Y-17040807D01*
X18406750Y-16989046D01*
X18387615Y-16967902D01*
X18345788Y-16900369D01*
X18317346Y-16816618D01*
X18303439Y-16730033D01*
X18299674Y-16645934D01*
X18299674Y-16555662D01*
X18615041Y-16555662D01*
X18621492Y-16608347D01*
X18673104Y-16674897D01*
X18749863Y-16690875D01*
X19470477Y-16690875D01*
X19523010Y-16684404D01*
X19589368Y-16632643D01*
X19605299Y-16555662D01*
X19605299Y-16308293D01*
X19598847Y-16255607D01*
X19547236Y-16189057D01*
X19470477Y-16173080D01*
X18749863Y-16173080D01*
X18697330Y-16179550D01*
X18630972Y-16231311D01*
X18615041Y-16308293D01*
X18615041Y-16555662D01*
X18299674Y-16555662D01*
X18299674Y-16218020D01*
X18300093Y-16189020D01*
X18306367Y-16108062D01*
X18323202Y-16025072D01*
X18354990Y-15945339D01*
X18406750Y-15874908D01*
X18427961Y-15855772D01*
X18495604Y-15813946D01*
X18579367Y-15785504D01*
X18665883Y-15771596D01*
X18749863Y-15767832D01*
X19470477Y-15767832D01*
X19499478Y-15768250D01*
G37*
G36*
X8943032Y-2704797D02*
G01*
X8943032Y-3337386D01*
X10736995Y-3337386D01*
X10868214Y-3331504D01*
X11003395Y-3309774D01*
X11134275Y-3265333D01*
X11239967Y-3199979D01*
X11273108Y-3170080D01*
X11353984Y-3060278D01*
X11403653Y-2935752D01*
X11429958Y-2806005D01*
X11439761Y-2679352D01*
X11440415Y-2633967D01*
X11440415Y-1825523D01*
X11434533Y-1694097D01*
X11412803Y-1558728D01*
X11368362Y-1427705D01*
X11303008Y-1321946D01*
X11273108Y-1288799D01*
X11163060Y-1208219D01*
X11038477Y-1158731D01*
X10908805Y-1132522D01*
X10782309Y-1122755D01*
X10736995Y-1122104D01*
X8943032Y-1122104D01*
X8943032Y-1754693D01*
X10736995Y-1754693D01*
X10856931Y-1779657D01*
X10937574Y-1883642D01*
X10947655Y-1965963D01*
X10947655Y-2493527D01*
X10922762Y-2613811D01*
X10819078Y-2694688D01*
X10736995Y-2704797D01*
X8943032Y-2704797D01*
G37*
G36*
X9611036Y-4483496D02*
G01*
X11405000Y-4483496D01*
X11405000Y-3868004D01*
X10086088Y-3868004D01*
X10086088Y-3604221D01*
X9611036Y-3604221D01*
X9611036Y-4483496D01*
G37*
G36*
X8907616Y-3868004D02*
G01*
X8907616Y-4483496D01*
X9400376Y-4483496D01*
X9400376Y-3868004D01*
X8907616Y-3868004D01*
G37*
G36*
X10015868Y-5865910D02*
G01*
X10024166Y-5732029D01*
X10046109Y-5600176D01*
X10077585Y-5473249D01*
X10086088Y-5443981D01*
X11405000Y-5443981D01*
X11405000Y-4828489D01*
X9540816Y-4828489D01*
X9540816Y-5373761D01*
X9716671Y-5408566D01*
X9648802Y-5523339D01*
X9594642Y-5640134D01*
X9557302Y-5748063D01*
X9526047Y-5870938D01*
X9507815Y-5994975D01*
X9506011Y-6041765D01*
X9506011Y-6199912D01*
X9517410Y-6327016D01*
X9556813Y-6450569D01*
X9624362Y-6555517D01*
X9650115Y-6583374D01*
X9749481Y-6659366D01*
X9867453Y-6707212D01*
X9989533Y-6726210D01*
X10033576Y-6727477D01*
X11405000Y-6727477D01*
X11405000Y-6111985D01*
X10138600Y-6111985D01*
X10051284Y-6076570D01*
X10015868Y-5989253D01*
X10015868Y-5865910D01*
G37*
G36*
X11405000Y-8227128D02*
G01*
X11405000Y-6961339D01*
X10912850Y-6961339D01*
X10912850Y-7277634D01*
X9435181Y-7277634D01*
X9435181Y-6961339D01*
X8943032Y-6961339D01*
X8943032Y-8227128D01*
X9435181Y-8227128D01*
X9435181Y-7910834D01*
X10912850Y-7910834D01*
X10912850Y-8227128D01*
X11405000Y-8227128D01*
G37*
G36*
X10782309Y-8464697D02*
G01*
X10908805Y-8474500D01*
X11038477Y-8500805D01*
X11163060Y-8550474D01*
X11273108Y-8631350D01*
X11303008Y-8664491D01*
X11368362Y-8770183D01*
X11412803Y-8901063D01*
X11434533Y-9036244D01*
X11440415Y-9167463D01*
X11440415Y-10046737D01*
X11439761Y-10092122D01*
X11429958Y-10218776D01*
X11403653Y-10348523D01*
X11353984Y-10473048D01*
X11273108Y-10582850D01*
X11239967Y-10612750D01*
X11134275Y-10678104D01*
X11003395Y-10722545D01*
X10868214Y-10744275D01*
X10736995Y-10750157D01*
X9611036Y-10750157D01*
X9565722Y-10749503D01*
X9439226Y-10739700D01*
X9309554Y-10713395D01*
X9184972Y-10663726D01*
X9074923Y-10582850D01*
X9045023Y-10549813D01*
X8979669Y-10444293D01*
X8935228Y-10313432D01*
X8913498Y-10178142D01*
X8907616Y-10046737D01*
X8907616Y-9906298D01*
X9400376Y-9906298D01*
X9410457Y-9988619D01*
X9491100Y-10092603D01*
X9611036Y-10117568D01*
X10736995Y-10117568D01*
X10819078Y-10107458D01*
X10922762Y-10026581D01*
X10947655Y-9906298D01*
X10947655Y-9308513D01*
X10937574Y-9226192D01*
X10856931Y-9122208D01*
X10736995Y-9097243D01*
X9611036Y-9097243D01*
X9528953Y-9107353D01*
X9425269Y-9188230D01*
X9400376Y-9308513D01*
X9400376Y-9906298D01*
X8907616Y-9906298D01*
X8907616Y-9167463D01*
X8908270Y-9122149D01*
X8918073Y-8995653D01*
X8944378Y-8865982D01*
X8994047Y-8741399D01*
X9074923Y-8631350D01*
X9108064Y-8601450D01*
X9213756Y-8536096D01*
X9344636Y-8491656D01*
X9479817Y-8469925D01*
X9611036Y-8464044D01*
X10736995Y-8464044D01*
X10782309Y-8464697D01*
G37*
G36*
X10877435Y-10984019D02*
G01*
X10877435Y-11617219D01*
X11405000Y-11617219D01*
X11405000Y-10984019D01*
X10877435Y-10984019D01*
G37*
G36*
X11369584Y-13547348D02*
G01*
X11382242Y-13425401D01*
X11397183Y-13267030D01*
X11409911Y-13113486D01*
X11420424Y-12964770D01*
X11428725Y-12820881D01*
X11434812Y-12681820D01*
X11438685Y-12547587D01*
X11440346Y-12418181D01*
X11440415Y-12386584D01*
X11429016Y-12259726D01*
X11389613Y-12136222D01*
X11322064Y-12031083D01*
X11296311Y-12003122D01*
X11196682Y-11927130D01*
X11078687Y-11879284D01*
X10956789Y-11860286D01*
X10912850Y-11859019D01*
X10103796Y-11859019D01*
X9979041Y-11868369D01*
X9855753Y-11901240D01*
X9739952Y-11965521D01*
X9690415Y-12008618D01*
X9611525Y-12113268D01*
X9565506Y-12226521D01*
X9543153Y-12357837D01*
X9540816Y-12421999D01*
X9540816Y-13547348D01*
X10015868Y-13547348D01*
X10015868Y-12615561D01*
X10060304Y-12501509D01*
X10156308Y-12474511D01*
X10842020Y-12474511D01*
X10930558Y-12509926D01*
X10965362Y-12597854D01*
X10963516Y-12727605D01*
X10959157Y-12852753D01*
X10952234Y-12993374D01*
X10944850Y-13117013D01*
X10935824Y-13250555D01*
X10925158Y-13394000D01*
X10912850Y-13547348D01*
X11369584Y-13547348D01*
G37*
G36*
X10941596Y-13785990D02*
G01*
X11072913Y-13808342D01*
X11186166Y-13854362D01*
X11290816Y-13933252D01*
X11333913Y-13982789D01*
X11398194Y-14098589D01*
X11431065Y-14221878D01*
X11440415Y-14346633D01*
X11440415Y-15155687D01*
X11439100Y-15204137D01*
X11419377Y-15337381D01*
X11369706Y-15464129D01*
X11290816Y-15568457D01*
X11241279Y-15611555D01*
X11125478Y-15675835D01*
X11002190Y-15708706D01*
X10877435Y-15718056D01*
X10068381Y-15718056D01*
X10019930Y-15716741D01*
X9886687Y-15697019D01*
X9759938Y-15647347D01*
X9655610Y-15568457D01*
X9612513Y-15519096D01*
X9548232Y-15403558D01*
X9515361Y-15280403D01*
X9506011Y-15155687D01*
X9506011Y-14962124D01*
X9980453Y-14962124D01*
X10007451Y-15058128D01*
X10121503Y-15102564D01*
X10824923Y-15102564D01*
X10915852Y-15079386D01*
X10965362Y-14962124D01*
X10965362Y-14540195D01*
X10942184Y-14448870D01*
X10824923Y-14399145D01*
X10121503Y-14399145D01*
X10025082Y-14426143D01*
X9980453Y-14540195D01*
X9980453Y-14962124D01*
X9506011Y-14962124D01*
X9506011Y-14346633D01*
X9508349Y-14282471D01*
X9530701Y-14151154D01*
X9576720Y-14037901D01*
X9655610Y-13933252D01*
X9704971Y-13890154D01*
X9820510Y-13825873D01*
X9943664Y-13793003D01*
X10068381Y-13783653D01*
X10877435Y-13783653D01*
X10941596Y-13785990D01*
G37*
G36*
X9506011Y-17270830D02*
G01*
X9519178Y-17405011D01*
X9558676Y-17523011D01*
X9634588Y-17636419D01*
X9716671Y-17710467D01*
X9648802Y-17824815D01*
X9594642Y-17945367D01*
X9557302Y-18060345D01*
X9528101Y-18184879D01*
X9510069Y-18309872D01*
X9506011Y-18396179D01*
X9506011Y-18431594D01*
X9517410Y-18558403D01*
X9556813Y-18681741D01*
X9624362Y-18786594D01*
X9650115Y-18814445D01*
X9749481Y-18890759D01*
X9867453Y-18938808D01*
X9989533Y-18957887D01*
X10033576Y-18959159D01*
X11405000Y-18959159D01*
X11405000Y-18343667D01*
X10138600Y-18343667D01*
X10051284Y-18308252D01*
X10015868Y-18220324D01*
X10015868Y-18202616D01*
X10025743Y-18071641D01*
X10049058Y-17943605D01*
X10081768Y-17813688D01*
X10086088Y-17798395D01*
X11405000Y-17798395D01*
X11405000Y-17182903D01*
X10138600Y-17182903D01*
X10051284Y-17147487D01*
X10015868Y-17059560D01*
X10015868Y-17041852D01*
X10025743Y-16910877D01*
X10049058Y-16782840D01*
X10081768Y-16652924D01*
X10086088Y-16637630D01*
X11405000Y-16637630D01*
X11405000Y-16022138D01*
X9540816Y-16022138D01*
X9540816Y-16567411D01*
X9716671Y-16602215D01*
X9648802Y-16716989D01*
X9594642Y-16833783D01*
X9557302Y-16941713D01*
X9526047Y-17064588D01*
X9507815Y-17188625D01*
X9506011Y-17235415D01*
X9506011Y-17270830D01*
G37*
G36*
X8943032Y-81044797D02*
G01*
X8943032Y-81677386D01*
X10736995Y-81677386D01*
X10868214Y-81671504D01*
X11003395Y-81649774D01*
X11134275Y-81605333D01*
X11239967Y-81539979D01*
X11273108Y-81510080D01*
X11353984Y-81400278D01*
X11403653Y-81275752D01*
X11429958Y-81146005D01*
X11439761Y-81019352D01*
X11440415Y-80973967D01*
X11440415Y-80165523D01*
X11434533Y-80034097D01*
X11412803Y-79898728D01*
X11368362Y-79767705D01*
X11303008Y-79661946D01*
X11273108Y-79628799D01*
X11163060Y-79548219D01*
X11038477Y-79498731D01*
X10908805Y-79472522D01*
X10782309Y-79462755D01*
X10736995Y-79462104D01*
X8943032Y-79462104D01*
X8943032Y-80094693D01*
X10736995Y-80094693D01*
X10856931Y-80119657D01*
X10937574Y-80223642D01*
X10947655Y-80305963D01*
X10947655Y-80833527D01*
X10922762Y-80953811D01*
X10819078Y-81034688D01*
X10736995Y-81044797D01*
X8943032Y-81044797D01*
G37*
G36*
X9611036Y-82823496D02*
G01*
X11405000Y-82823496D01*
X11405000Y-82208004D01*
X10086088Y-82208004D01*
X10086088Y-81944221D01*
X9611036Y-81944221D01*
X9611036Y-82823496D01*
G37*
G36*
X8907616Y-82208004D02*
G01*
X8907616Y-82823496D01*
X9400376Y-82823496D01*
X9400376Y-82208004D01*
X8907616Y-82208004D01*
G37*
G36*
X10015868Y-84205910D02*
G01*
X10024166Y-84072029D01*
X10046109Y-83940176D01*
X10077585Y-83813249D01*
X10086088Y-83783981D01*
X11405000Y-83783981D01*
X11405000Y-83168489D01*
X9540816Y-83168489D01*
X9540816Y-83713761D01*
X9716671Y-83748566D01*
X9648802Y-83863339D01*
X9594642Y-83980134D01*
X9557302Y-84088063D01*
X9526047Y-84210938D01*
X9507815Y-84334975D01*
X9506011Y-84381765D01*
X9506011Y-84539912D01*
X9517410Y-84667016D01*
X9556813Y-84790569D01*
X9624362Y-84895517D01*
X9650115Y-84923374D01*
X9749481Y-84999366D01*
X9867453Y-85047212D01*
X9989533Y-85066210D01*
X10033576Y-85067477D01*
X11405000Y-85067477D01*
X11405000Y-84451985D01*
X10138600Y-84451985D01*
X10051284Y-84416570D01*
X10015868Y-84329253D01*
X10015868Y-84205910D01*
G37*
G36*
X11405000Y-86567128D02*
G01*
X11405000Y-85301339D01*
X10912850Y-85301339D01*
X10912850Y-85617634D01*
X9435181Y-85617634D01*
X9435181Y-85301339D01*
X8943032Y-85301339D01*
X8943032Y-86567128D01*
X9435181Y-86567128D01*
X9435181Y-86250834D01*
X10912850Y-86250834D01*
X10912850Y-86567128D01*
X11405000Y-86567128D01*
G37*
G36*
X10782309Y-86804697D02*
G01*
X10908805Y-86814500D01*
X11038477Y-86840805D01*
X11163060Y-86890474D01*
X11273108Y-86971350D01*
X11303008Y-87004491D01*
X11368362Y-87110183D01*
X11412803Y-87241063D01*
X11434533Y-87376244D01*
X11440415Y-87507463D01*
X11440415Y-88386737D01*
X11439761Y-88432122D01*
X11429958Y-88558776D01*
X11403653Y-88688523D01*
X11353984Y-88813048D01*
X11273108Y-88922850D01*
X11239967Y-88952750D01*
X11134275Y-89018104D01*
X11003395Y-89062545D01*
X10868214Y-89084275D01*
X10736995Y-89090157D01*
X9611036Y-89090157D01*
X9565722Y-89089503D01*
X9439226Y-89079700D01*
X9309554Y-89053395D01*
X9184972Y-89003726D01*
X9074923Y-88922850D01*
X9045023Y-88889813D01*
X8979669Y-88784293D01*
X8935228Y-88653432D01*
X8913498Y-88518142D01*
X8907616Y-88386737D01*
X8907616Y-88246298D01*
X9400376Y-88246298D01*
X9410457Y-88328619D01*
X9491100Y-88432603D01*
X9611036Y-88457568D01*
X10736995Y-88457568D01*
X10819078Y-88447458D01*
X10922762Y-88366581D01*
X10947655Y-88246298D01*
X10947655Y-87648513D01*
X10937574Y-87566192D01*
X10856931Y-87462208D01*
X10736995Y-87437243D01*
X9611036Y-87437243D01*
X9528953Y-87447353D01*
X9425269Y-87528230D01*
X9400376Y-87648513D01*
X9400376Y-88246298D01*
X8907616Y-88246298D01*
X8907616Y-87507463D01*
X8908270Y-87462149D01*
X8918073Y-87335653D01*
X8944378Y-87205982D01*
X8994047Y-87081399D01*
X9074923Y-86971350D01*
X9108064Y-86941450D01*
X9213756Y-86876096D01*
X9344636Y-86831656D01*
X9479817Y-86809925D01*
X9611036Y-86804044D01*
X10736995Y-86804044D01*
X10782309Y-86804697D01*
G37*
G36*
X10877435Y-89324019D02*
G01*
X10877435Y-89957219D01*
X11405000Y-89957219D01*
X11405000Y-89324019D01*
X10877435Y-89324019D01*
G37*
G36*
X11369584Y-91887348D02*
G01*
X11382242Y-91765401D01*
X11397183Y-91607030D01*
X11409911Y-91453486D01*
X11420424Y-91304770D01*
X11428725Y-91160881D01*
X11434812Y-91021820D01*
X11438685Y-90887587D01*
X11440346Y-90758181D01*
X11440415Y-90726584D01*
X11429016Y-90599726D01*
X11389613Y-90476222D01*
X11322064Y-90371083D01*
X11296311Y-90343122D01*
X11196682Y-90267130D01*
X11078687Y-90219284D01*
X10956789Y-90200286D01*
X10912850Y-90199019D01*
X10103796Y-90199019D01*
X9979041Y-90208369D01*
X9855753Y-90241240D01*
X9739952Y-90305521D01*
X9690415Y-90348618D01*
X9611525Y-90453268D01*
X9565506Y-90566521D01*
X9543153Y-90697837D01*
X9540816Y-90761999D01*
X9540816Y-91887348D01*
X10015868Y-91887348D01*
X10015868Y-90955561D01*
X10060304Y-90841509D01*
X10156308Y-90814511D01*
X10842020Y-90814511D01*
X10930558Y-90849926D01*
X10965362Y-90937854D01*
X10963516Y-91067605D01*
X10959157Y-91192753D01*
X10952234Y-91333374D01*
X10944850Y-91457013D01*
X10935824Y-91590555D01*
X10925158Y-91734000D01*
X10912850Y-91887348D01*
X11369584Y-91887348D01*
G37*
G36*
X10941596Y-92125990D02*
G01*
X11072913Y-92148342D01*
X11186166Y-92194362D01*
X11290816Y-92273252D01*
X11333913Y-92322789D01*
X11398194Y-92438589D01*
X11431065Y-92561878D01*
X11440415Y-92686633D01*
X11440415Y-93495687D01*
X11439100Y-93544137D01*
X11419377Y-93677381D01*
X11369706Y-93804129D01*
X11290816Y-93908457D01*
X11241279Y-93951555D01*
X11125478Y-94015835D01*
X11002190Y-94048706D01*
X10877435Y-94058056D01*
X10068381Y-94058056D01*
X10019930Y-94056741D01*
X9886687Y-94037019D01*
X9759938Y-93987347D01*
X9655610Y-93908457D01*
X9612513Y-93859096D01*
X9548232Y-93743558D01*
X9515361Y-93620403D01*
X9506011Y-93495687D01*
X9506011Y-93302124D01*
X9980453Y-93302124D01*
X10007451Y-93398128D01*
X10121503Y-93442564D01*
X10824923Y-93442564D01*
X10915852Y-93419386D01*
X10965362Y-93302124D01*
X10965362Y-92880195D01*
X10942184Y-92788870D01*
X10824923Y-92739145D01*
X10121503Y-92739145D01*
X10025082Y-92766143D01*
X9980453Y-92880195D01*
X9980453Y-93302124D01*
X9506011Y-93302124D01*
X9506011Y-92686633D01*
X9508349Y-92622471D01*
X9530701Y-92491154D01*
X9576720Y-92377901D01*
X9655610Y-92273252D01*
X9704971Y-92230154D01*
X9820510Y-92165873D01*
X9943664Y-92133003D01*
X10068381Y-92123653D01*
X10877435Y-92123653D01*
X10941596Y-92125990D01*
G37*
G36*
X9506011Y-95610830D02*
G01*
X9519178Y-95745011D01*
X9558676Y-95863011D01*
X9634588Y-95976419D01*
X9716671Y-96050467D01*
X9648802Y-96164815D01*
X9594642Y-96285367D01*
X9557302Y-96400345D01*
X9528101Y-96524879D01*
X9510069Y-96649872D01*
X9506011Y-96736179D01*
X9506011Y-96771594D01*
X9517410Y-96898403D01*
X9556813Y-97021741D01*
X9624362Y-97126594D01*
X9650115Y-97154445D01*
X9749481Y-97230759D01*
X9867453Y-97278808D01*
X9989533Y-97297887D01*
X10033576Y-97299159D01*
X11405000Y-97299159D01*
X11405000Y-96683667D01*
X10138600Y-96683667D01*
X10051284Y-96648252D01*
X10015868Y-96560324D01*
X10015868Y-96542616D01*
X10025743Y-96411641D01*
X10049058Y-96283605D01*
X10081768Y-96153688D01*
X10086088Y-96138395D01*
X11405000Y-96138395D01*
X11405000Y-95522903D01*
X10138600Y-95522903D01*
X10051284Y-95487487D01*
X10015868Y-95399560D01*
X10015868Y-95381852D01*
X10025743Y-95250877D01*
X10049058Y-95122840D01*
X10081768Y-94992924D01*
X10086088Y-94977630D01*
X11405000Y-94977630D01*
X11405000Y-94362138D01*
X9540816Y-94362138D01*
X9540816Y-94907411D01*
X9716671Y-94942215D01*
X9648802Y-95056989D01*
X9594642Y-95173783D01*
X9557302Y-95281713D01*
X9526047Y-95404588D01*
X9507815Y-95528625D01*
X9506011Y-95575415D01*
X9506011Y-95610830D01*
G37*
G36*
X19425145Y-55840583D02*
G01*
X18322340Y-56223165D01*
X18322340Y-56662021D01*
X19898000Y-56065677D01*
X19898000Y-55615489D01*
X18322340Y-55018755D01*
X18322340Y-55458001D01*
X19425145Y-55840583D01*
G37*
G36*
X19611145Y-56654625D02*
G01*
X19689160Y-56666783D01*
X19764676Y-56697405D01*
X19828439Y-56746040D01*
X19844921Y-56763935D01*
X19888152Y-56831224D01*
X19913370Y-56910267D01*
X19920665Y-56991455D01*
X19920488Y-57035978D01*
X19919072Y-57126909D01*
X19916238Y-57220357D01*
X19911989Y-57316320D01*
X19906322Y-57414798D01*
X19899239Y-57515793D01*
X19890739Y-57619303D01*
X19883435Y-57698587D01*
X19875334Y-57779285D01*
X19593966Y-57779285D01*
X19601934Y-57675054D01*
X19608840Y-57577296D01*
X19614684Y-57486011D01*
X19619465Y-57401197D01*
X19623947Y-57304282D01*
X19626769Y-57217481D01*
X19627965Y-57126668D01*
X19605690Y-57070395D01*
X19549025Y-57047729D01*
X19459144Y-57047729D01*
X19459144Y-57824617D01*
X19042563Y-57824617D01*
X19011555Y-57823775D01*
X18926279Y-57811153D01*
X18845160Y-57779363D01*
X18778390Y-57728873D01*
X18750808Y-57697170D01*
X18709668Y-57623057D01*
X18688631Y-57544153D01*
X18682647Y-57464310D01*
X18682647Y-57340430D01*
X18964015Y-57340430D01*
X18978849Y-57398877D01*
X19053896Y-57430702D01*
X19177776Y-57430702D01*
X19177776Y-57047729D01*
X19053896Y-57047729D01*
X18992454Y-57065008D01*
X18964015Y-57138001D01*
X18964015Y-57340430D01*
X18682647Y-57340430D01*
X18682647Y-57014121D01*
X18684143Y-56973058D01*
X18698448Y-56889015D01*
X18727901Y-56816533D01*
X18778390Y-56749557D01*
X18809982Y-56721975D01*
X18883926Y-56680835D01*
X18962745Y-56659798D01*
X19042563Y-56653814D01*
X19583024Y-56653814D01*
X19611145Y-56654625D01*
G37*
G36*
X19031230Y-58705845D02*
G01*
X19036578Y-58625340D01*
X19052622Y-58543413D01*
X19079360Y-58460064D01*
X19098837Y-58413144D01*
X19898000Y-58413144D01*
X19898000Y-58019229D01*
X18704922Y-58019229D01*
X18704922Y-58368203D01*
X18851468Y-58390478D01*
X18794095Y-58463783D01*
X18748593Y-58538325D01*
X18714960Y-58614103D01*
X18693198Y-58691117D01*
X18683307Y-58769368D01*
X18682647Y-58795726D01*
X18682647Y-58896940D01*
X19031230Y-58896940D01*
X19031230Y-58705845D01*
G37*
G36*
X19583024Y-59004407D02*
G01*
X19589030Y-59088363D01*
X19594445Y-59168919D01*
X19600747Y-59271036D01*
X19605998Y-59367109D01*
X19610199Y-59457137D01*
X19613350Y-59541120D01*
X19615811Y-59637598D01*
X19616632Y-59724631D01*
X19594357Y-59780904D01*
X19537692Y-59803570D01*
X19459144Y-59803570D01*
X19459144Y-59319383D01*
X19451849Y-59238194D01*
X19426631Y-59159151D01*
X19383400Y-59091862D01*
X19366918Y-59073968D01*
X19303155Y-59025333D01*
X19227638Y-58994711D01*
X19149623Y-58982552D01*
X19121503Y-58981742D01*
X19042563Y-58981742D01*
X18961406Y-58989037D01*
X18882469Y-59014255D01*
X18815364Y-59057486D01*
X18797539Y-59073968D01*
X18748698Y-59137730D01*
X18717946Y-59213247D01*
X18705736Y-59291262D01*
X18704922Y-59319383D01*
X18704922Y-60084938D01*
X18997623Y-60084938D01*
X18997623Y-59454596D01*
X19020288Y-59397931D01*
X19076562Y-59375656D01*
X19132836Y-59397931D01*
X19155110Y-59454596D01*
X19155110Y-59859843D01*
X19162437Y-59941001D01*
X19187762Y-60019937D01*
X19231176Y-60087043D01*
X19247727Y-60104868D01*
X19311284Y-60153709D01*
X19386671Y-60184460D01*
X19464634Y-60196671D01*
X19492752Y-60197485D01*
X19583024Y-60197485D01*
X19664213Y-60190159D01*
X19743256Y-60164834D01*
X19810545Y-60121419D01*
X19828439Y-60104868D01*
X19877074Y-60041311D01*
X19907696Y-59965924D01*
X19919855Y-59887961D01*
X19920665Y-59859843D01*
X19919957Y-59759283D01*
X19917832Y-59656902D01*
X19914290Y-59552702D01*
X19910705Y-59473358D01*
X19906322Y-59392990D01*
X19901143Y-59311599D01*
X19895166Y-59229184D01*
X19888393Y-59145746D01*
X19880823Y-59061284D01*
X19875334Y-59004407D01*
X19583024Y-59004407D01*
G37*
G36*
X18749863Y-60821574D02*
G01*
X19898000Y-60821574D01*
X19898000Y-60427659D01*
X19053896Y-60427659D01*
X19053896Y-60258839D01*
X18749863Y-60258839D01*
X18749863Y-60821574D01*
G37*
G36*
X18299674Y-60427659D02*
G01*
X18299674Y-60821574D01*
X18615041Y-60821574D01*
X18615041Y-60427659D01*
X18299674Y-60427659D01*
G37*
G36*
X19601422Y-61021200D02*
G01*
X19685464Y-61035505D01*
X19757946Y-61064957D01*
X19824922Y-61115447D01*
X19852504Y-61147151D01*
X19893644Y-61221263D01*
X19914681Y-61300168D01*
X19920665Y-61380011D01*
X19920665Y-61897806D01*
X19919824Y-61928814D01*
X19907201Y-62014090D01*
X19875412Y-62095209D01*
X19824922Y-62161979D01*
X19793218Y-62189561D01*
X19719106Y-62230701D01*
X19640201Y-62251738D01*
X19560358Y-62257722D01*
X19042563Y-62257722D01*
X19011555Y-62256880D01*
X18926279Y-62244258D01*
X18845160Y-62212468D01*
X18778390Y-62161979D01*
X18750808Y-62130387D01*
X18709668Y-62056443D01*
X18688631Y-61977624D01*
X18682647Y-61897806D01*
X18682647Y-61773926D01*
X18986290Y-61773926D01*
X19003568Y-61835368D01*
X19076562Y-61863807D01*
X19526750Y-61863807D01*
X19584945Y-61848973D01*
X19616632Y-61773926D01*
X19616632Y-61503891D01*
X19601798Y-61445443D01*
X19526750Y-61413619D01*
X19076562Y-61413619D01*
X19014852Y-61430897D01*
X18986290Y-61503891D01*
X18986290Y-61773926D01*
X18682647Y-61773926D01*
X18682647Y-61380011D01*
X18684143Y-61338948D01*
X18698448Y-61254905D01*
X18727901Y-61182423D01*
X18778390Y-61115447D01*
X18809982Y-61087865D01*
X18883926Y-61046725D01*
X18962745Y-61025688D01*
X19042563Y-61019704D01*
X19560358Y-61019704D01*
X19601422Y-61021200D01*
G37*
G36*
X19008956Y-63116284D02*
G01*
X19014266Y-63030601D01*
X19028310Y-62946215D01*
X19048454Y-62864981D01*
X19053896Y-62846250D01*
X19898000Y-62846250D01*
X19898000Y-62452335D01*
X18704922Y-62452335D01*
X18704922Y-62801309D01*
X18817469Y-62823584D01*
X18774033Y-62897039D01*
X18739371Y-62971787D01*
X18715473Y-63040862D01*
X18695470Y-63119502D01*
X18683801Y-63198886D01*
X18682647Y-63228832D01*
X18682647Y-63330046D01*
X18689942Y-63411392D01*
X18715160Y-63490466D01*
X18758391Y-63557633D01*
X18774873Y-63575461D01*
X18838468Y-63624096D01*
X18913969Y-63654718D01*
X18992101Y-63666876D01*
X19020288Y-63667687D01*
X19898000Y-63667687D01*
X19898000Y-63273772D01*
X19087504Y-63273772D01*
X19031621Y-63251106D01*
X19008956Y-63195224D01*
X19008956Y-63116284D01*
G37*
G36*
X19898000Y-64793158D02*
G01*
X18671314Y-64793158D01*
X18761196Y-64534456D01*
X18502494Y-64421909D01*
X18322340Y-64838490D01*
X18322340Y-65198406D01*
X19898000Y-65198406D01*
X19898000Y-64793158D01*
G37*
G36*
X19560358Y-65396145D02*
G01*
X19560358Y-65801393D01*
X19898000Y-65801393D01*
X19898000Y-65396145D01*
X19560358Y-65396145D01*
G37*
G36*
X19499478Y-65956563D02*
G01*
X19580435Y-65962837D01*
X19663425Y-65979672D01*
X19743158Y-66011461D01*
X19813589Y-66063221D01*
X19832725Y-66084431D01*
X19874551Y-66152074D01*
X19902994Y-66235837D01*
X19916901Y-66322353D01*
X19920665Y-66406333D01*
X19920665Y-66834247D01*
X19920247Y-66863293D01*
X19913973Y-66944351D01*
X19897138Y-67027389D01*
X19865350Y-67107086D01*
X19813589Y-67177359D01*
X19792379Y-67196495D01*
X19724736Y-67238321D01*
X19640973Y-67266763D01*
X19554457Y-67280671D01*
X19470477Y-67284435D01*
X18749863Y-67284435D01*
X18720862Y-67284017D01*
X18639905Y-67277743D01*
X18556915Y-67260908D01*
X18477182Y-67229119D01*
X18406750Y-67177359D01*
X18387615Y-67156215D01*
X18345788Y-67088682D01*
X18317346Y-67004931D01*
X18303439Y-66918346D01*
X18299674Y-66834247D01*
X18299674Y-66743975D01*
X18615041Y-66743975D01*
X18621492Y-66796660D01*
X18673104Y-66863210D01*
X18749863Y-66879187D01*
X19470477Y-66879187D01*
X19523010Y-66872717D01*
X19589368Y-66820956D01*
X19605299Y-66743975D01*
X19605299Y-66496605D01*
X19598847Y-66443920D01*
X19547236Y-66377370D01*
X19470477Y-66361393D01*
X18749863Y-66361393D01*
X18697330Y-66367863D01*
X18630972Y-66419624D01*
X18615041Y-66496605D01*
X18615041Y-66743975D01*
X18299674Y-66743975D01*
X18299674Y-66406333D01*
X18300093Y-66377332D01*
X18306367Y-66296375D01*
X18323202Y-66213385D01*
X18354990Y-66133652D01*
X18406750Y-66063221D01*
X18427961Y-66044085D01*
X18495604Y-66002259D01*
X18579367Y-65973817D01*
X18665883Y-65959909D01*
X18749863Y-65956145D01*
X19470477Y-65956145D01*
X19499478Y-65956563D01*
G37*
G36*
X19560358Y-67434498D02*
G01*
X19560358Y-67839746D01*
X19898000Y-67839746D01*
X19898000Y-67434498D01*
X19560358Y-67434498D01*
G37*
G36*
X19499478Y-67994916D02*
G01*
X19580435Y-68001190D01*
X19663425Y-68018025D01*
X19743158Y-68049814D01*
X19813589Y-68101574D01*
X19832725Y-68122784D01*
X19874551Y-68190427D01*
X19902994Y-68274190D01*
X19916901Y-68360707D01*
X19920665Y-68444686D01*
X19920665Y-68872600D01*
X19920247Y-68901646D01*
X19913973Y-68982705D01*
X19897138Y-69065743D01*
X19865350Y-69145439D01*
X19813589Y-69215712D01*
X19792379Y-69234848D01*
X19724736Y-69276674D01*
X19640973Y-69305117D01*
X19554457Y-69319024D01*
X19470477Y-69322788D01*
X18749863Y-69322788D01*
X18720862Y-69322370D01*
X18639905Y-69316096D01*
X18556915Y-69299261D01*
X18477182Y-69267473D01*
X18406750Y-69215712D01*
X18387615Y-69194568D01*
X18345788Y-69127035D01*
X18317346Y-69043284D01*
X18303439Y-68956699D01*
X18299674Y-68872600D01*
X18299674Y-68782328D01*
X18615041Y-68782328D01*
X18621492Y-68835013D01*
X18673104Y-68901563D01*
X18749863Y-68917541D01*
X19470477Y-68917541D01*
X19523010Y-68911070D01*
X19589368Y-68859309D01*
X19605299Y-68782328D01*
X19605299Y-68534959D01*
X19598847Y-68482273D01*
X19547236Y-68415723D01*
X19470477Y-68399746D01*
X18749863Y-68399746D01*
X18697330Y-68406216D01*
X18630972Y-68457977D01*
X18615041Y-68534959D01*
X18615041Y-68782328D01*
X18299674Y-68782328D01*
X18299674Y-68444686D01*
X18300093Y-68415686D01*
X18306367Y-68334728D01*
X18323202Y-68251738D01*
X18354990Y-68172005D01*
X18406750Y-68101574D01*
X18427961Y-68082438D01*
X18495604Y-68040612D01*
X18579367Y-68012170D01*
X18665883Y-67998262D01*
X18749863Y-67994498D01*
X19470477Y-67994498D01*
X19499478Y-67994916D01*
G37*
G36*
X8943032Y-28818130D02*
G01*
X8943032Y-29450719D01*
X10736995Y-29450719D01*
X10868214Y-29444837D01*
X11003395Y-29423107D01*
X11134275Y-29378666D01*
X11239967Y-29313312D01*
X11273108Y-29283413D01*
X11353984Y-29173611D01*
X11403653Y-29049085D01*
X11429958Y-28919338D01*
X11439761Y-28792685D01*
X11440415Y-28747300D01*
X11440415Y-27938856D01*
X11434533Y-27807430D01*
X11412803Y-27672061D01*
X11368362Y-27541038D01*
X11303008Y-27435279D01*
X11273108Y-27402132D01*
X11163060Y-27321552D01*
X11038477Y-27272064D01*
X10908805Y-27245855D01*
X10782309Y-27236088D01*
X10736995Y-27235437D01*
X8943032Y-27235437D01*
X8943032Y-27868026D01*
X10736995Y-27868026D01*
X10856931Y-27892990D01*
X10937574Y-27996975D01*
X10947655Y-28079296D01*
X10947655Y-28606860D01*
X10922762Y-28727144D01*
X10819078Y-28808021D01*
X10736995Y-28818130D01*
X8943032Y-28818130D01*
G37*
G36*
X9611036Y-30596829D02*
G01*
X11405000Y-30596829D01*
X11405000Y-29981337D01*
X10086088Y-29981337D01*
X10086088Y-29717554D01*
X9611036Y-29717554D01*
X9611036Y-30596829D01*
G37*
G36*
X8907616Y-29981337D02*
G01*
X8907616Y-30596829D01*
X9400376Y-30596829D01*
X9400376Y-29981337D01*
X8907616Y-29981337D01*
G37*
G36*
X10015868Y-31979243D02*
G01*
X10024166Y-31845362D01*
X10046109Y-31713509D01*
X10077585Y-31586582D01*
X10086088Y-31557314D01*
X11405000Y-31557314D01*
X11405000Y-30941822D01*
X9540816Y-30941822D01*
X9540816Y-31487094D01*
X9716671Y-31521899D01*
X9648802Y-31636672D01*
X9594642Y-31753467D01*
X9557302Y-31861396D01*
X9526047Y-31984271D01*
X9507815Y-32108308D01*
X9506011Y-32155098D01*
X9506011Y-32313245D01*
X9517410Y-32440349D01*
X9556813Y-32563902D01*
X9624362Y-32668850D01*
X9650115Y-32696707D01*
X9749481Y-32772699D01*
X9867453Y-32820545D01*
X9989533Y-32839543D01*
X10033576Y-32840810D01*
X11405000Y-32840810D01*
X11405000Y-32225318D01*
X10138600Y-32225318D01*
X10051284Y-32189903D01*
X10015868Y-32102586D01*
X10015868Y-31979243D01*
G37*
G36*
X11405000Y-34340461D02*
G01*
X11405000Y-33074672D01*
X10912850Y-33074672D01*
X10912850Y-33390967D01*
X9435181Y-33390967D01*
X9435181Y-33074672D01*
X8943032Y-33074672D01*
X8943032Y-34340461D01*
X9435181Y-34340461D01*
X9435181Y-34024167D01*
X10912850Y-34024167D01*
X10912850Y-34340461D01*
X11405000Y-34340461D01*
G37*
G36*
X10782309Y-34578030D02*
G01*
X10908805Y-34587833D01*
X11038477Y-34614138D01*
X11163060Y-34663807D01*
X11273108Y-34744683D01*
X11303008Y-34777824D01*
X11368362Y-34883516D01*
X11412803Y-35014396D01*
X11434533Y-35149577D01*
X11440415Y-35280796D01*
X11440415Y-36160070D01*
X11439761Y-36205455D01*
X11429958Y-36332109D01*
X11403653Y-36461856D01*
X11353984Y-36586381D01*
X11273108Y-36696183D01*
X11239967Y-36726083D01*
X11134275Y-36791437D01*
X11003395Y-36835878D01*
X10868214Y-36857608D01*
X10736995Y-36863490D01*
X9611036Y-36863490D01*
X9565722Y-36862836D01*
X9439226Y-36853033D01*
X9309554Y-36826728D01*
X9184972Y-36777059D01*
X9074923Y-36696183D01*
X9045023Y-36663146D01*
X8979669Y-36557626D01*
X8935228Y-36426765D01*
X8913498Y-36291475D01*
X8907616Y-36160070D01*
X8907616Y-36019631D01*
X9400376Y-36019631D01*
X9410457Y-36101952D01*
X9491100Y-36205936D01*
X9611036Y-36230901D01*
X10736995Y-36230901D01*
X10819078Y-36220791D01*
X10922762Y-36139914D01*
X10947655Y-36019631D01*
X10947655Y-35421846D01*
X10937574Y-35339525D01*
X10856931Y-35235541D01*
X10736995Y-35210576D01*
X9611036Y-35210576D01*
X9528953Y-35220686D01*
X9425269Y-35301563D01*
X9400376Y-35421846D01*
X9400376Y-36019631D01*
X8907616Y-36019631D01*
X8907616Y-35280796D01*
X8908270Y-35235482D01*
X8918073Y-35108986D01*
X8944378Y-34979315D01*
X8994047Y-34854732D01*
X9074923Y-34744683D01*
X9108064Y-34714783D01*
X9213756Y-34649429D01*
X9344636Y-34604989D01*
X9479817Y-34583258D01*
X9611036Y-34577377D01*
X10736995Y-34577377D01*
X10782309Y-34578030D01*
G37*
G36*
X10877435Y-37097352D02*
G01*
X10877435Y-37730552D01*
X11405000Y-37730552D01*
X11405000Y-37097352D01*
X10877435Y-37097352D01*
G37*
G36*
X11369584Y-39660681D02*
G01*
X11382242Y-39538734D01*
X11397183Y-39380363D01*
X11409911Y-39226819D01*
X11420424Y-39078103D01*
X11428725Y-38934214D01*
X11434812Y-38795153D01*
X11438685Y-38660920D01*
X11440346Y-38531514D01*
X11440415Y-38499917D01*
X11429016Y-38373059D01*
X11389613Y-38249555D01*
X11322064Y-38144416D01*
X11296311Y-38116455D01*
X11196682Y-38040463D01*
X11078687Y-37992617D01*
X10956789Y-37973619D01*
X10912850Y-37972352D01*
X10103796Y-37972352D01*
X9979041Y-37981702D01*
X9855753Y-38014573D01*
X9739952Y-38078854D01*
X9690415Y-38121951D01*
X9611525Y-38226601D01*
X9565506Y-38339854D01*
X9543153Y-38471170D01*
X9540816Y-38535332D01*
X9540816Y-39660681D01*
X10015868Y-39660681D01*
X10015868Y-38728894D01*
X10060304Y-38614842D01*
X10156308Y-38587844D01*
X10842020Y-38587844D01*
X10930558Y-38623259D01*
X10965362Y-38711187D01*
X10963516Y-38840938D01*
X10959157Y-38966086D01*
X10952234Y-39106707D01*
X10944850Y-39230346D01*
X10935824Y-39363888D01*
X10925158Y-39507333D01*
X10912850Y-39660681D01*
X11369584Y-39660681D01*
G37*
G36*
X10941596Y-39899323D02*
G01*
X11072913Y-39921675D01*
X11186166Y-39967695D01*
X11290816Y-40046585D01*
X11333913Y-40096122D01*
X11398194Y-40211922D01*
X11431065Y-40335211D01*
X11440415Y-40459966D01*
X11440415Y-41269020D01*
X11439100Y-41317470D01*
X11419377Y-41450714D01*
X11369706Y-41577462D01*
X11290816Y-41681790D01*
X11241279Y-41724888D01*
X11125478Y-41789168D01*
X11002190Y-41822039D01*
X10877435Y-41831389D01*
X10068381Y-41831389D01*
X10019930Y-41830074D01*
X9886687Y-41810352D01*
X9759938Y-41760680D01*
X9655610Y-41681790D01*
X9612513Y-41632429D01*
X9548232Y-41516891D01*
X9515361Y-41393736D01*
X9506011Y-41269020D01*
X9506011Y-41075457D01*
X9980453Y-41075457D01*
X10007451Y-41171461D01*
X10121503Y-41215897D01*
X10824923Y-41215897D01*
X10915852Y-41192719D01*
X10965362Y-41075457D01*
X10965362Y-40653528D01*
X10942184Y-40562203D01*
X10824923Y-40512478D01*
X10121503Y-40512478D01*
X10025082Y-40539476D01*
X9980453Y-40653528D01*
X9980453Y-41075457D01*
X9506011Y-41075457D01*
X9506011Y-40459966D01*
X9508349Y-40395804D01*
X9530701Y-40264487D01*
X9576720Y-40151234D01*
X9655610Y-40046585D01*
X9704971Y-40003487D01*
X9820510Y-39939206D01*
X9943664Y-39906336D01*
X10068381Y-39896986D01*
X10877435Y-39896986D01*
X10941596Y-39899323D01*
G37*
G36*
X9506011Y-43384163D02*
G01*
X9519178Y-43518344D01*
X9558676Y-43636344D01*
X9634588Y-43749752D01*
X9716671Y-43823800D01*
X9648802Y-43938148D01*
X9594642Y-44058700D01*
X9557302Y-44173678D01*
X9528101Y-44298212D01*
X9510069Y-44423205D01*
X9506011Y-44509512D01*
X9506011Y-44544927D01*
X9517410Y-44671736D01*
X9556813Y-44795074D01*
X9624362Y-44899927D01*
X9650115Y-44927778D01*
X9749481Y-45004092D01*
X9867453Y-45052141D01*
X9989533Y-45071220D01*
X10033576Y-45072492D01*
X11405000Y-45072492D01*
X11405000Y-44457000D01*
X10138600Y-44457000D01*
X10051284Y-44421585D01*
X10015868Y-44333657D01*
X10015868Y-44315949D01*
X10025743Y-44184974D01*
X10049058Y-44056938D01*
X10081768Y-43927021D01*
X10086088Y-43911728D01*
X11405000Y-43911728D01*
X11405000Y-43296236D01*
X10138600Y-43296236D01*
X10051284Y-43260820D01*
X10015868Y-43172893D01*
X10015868Y-43155185D01*
X10025743Y-43024210D01*
X10049058Y-42896173D01*
X10081768Y-42766257D01*
X10086088Y-42750963D01*
X11405000Y-42750963D01*
X11405000Y-42135471D01*
X9540816Y-42135471D01*
X9540816Y-42680744D01*
X9716671Y-42715548D01*
X9648802Y-42830322D01*
X9594642Y-42947116D01*
X9557302Y-43055046D01*
X9526047Y-43177921D01*
X9507815Y-43301958D01*
X9506011Y-43348748D01*
X9506011Y-43384163D01*
G37*
G36*
X19425145Y-29727250D02*
G01*
X18322340Y-30109832D01*
X18322340Y-30548688D01*
X19898000Y-29952344D01*
X19898000Y-29502156D01*
X18322340Y-28905422D01*
X18322340Y-29344668D01*
X19425145Y-29727250D01*
G37*
G36*
X19611145Y-30541292D02*
G01*
X19689160Y-30553450D01*
X19764676Y-30584072D01*
X19828439Y-30632707D01*
X19844921Y-30650602D01*
X19888152Y-30717891D01*
X19913370Y-30796934D01*
X19920665Y-30878122D01*
X19920488Y-30922645D01*
X19919072Y-31013576D01*
X19916238Y-31107024D01*
X19911989Y-31202987D01*
X19906322Y-31301465D01*
X19899239Y-31402460D01*
X19890739Y-31505970D01*
X19883435Y-31585254D01*
X19875334Y-31665952D01*
X19593966Y-31665952D01*
X19601934Y-31561721D01*
X19608840Y-31463963D01*
X19614684Y-31372678D01*
X19619465Y-31287864D01*
X19623947Y-31190949D01*
X19626769Y-31104148D01*
X19627965Y-31013335D01*
X19605690Y-30957062D01*
X19549025Y-30934396D01*
X19459144Y-30934396D01*
X19459144Y-31711284D01*
X19042563Y-31711284D01*
X19011555Y-31710442D01*
X18926279Y-31697820D01*
X18845160Y-31666030D01*
X18778390Y-31615540D01*
X18750808Y-31583837D01*
X18709668Y-31509724D01*
X18688631Y-31430820D01*
X18682647Y-31350977D01*
X18682647Y-31227097D01*
X18964015Y-31227097D01*
X18978849Y-31285544D01*
X19053896Y-31317369D01*
X19177776Y-31317369D01*
X19177776Y-30934396D01*
X19053896Y-30934396D01*
X18992454Y-30951675D01*
X18964015Y-31024668D01*
X18964015Y-31227097D01*
X18682647Y-31227097D01*
X18682647Y-30900788D01*
X18684143Y-30859725D01*
X18698448Y-30775682D01*
X18727901Y-30703200D01*
X18778390Y-30636224D01*
X18809982Y-30608642D01*
X18883926Y-30567502D01*
X18962745Y-30546465D01*
X19042563Y-30540481D01*
X19583024Y-30540481D01*
X19611145Y-30541292D01*
G37*
G36*
X19031230Y-32592512D02*
G01*
X19036578Y-32512007D01*
X19052622Y-32430080D01*
X19079360Y-32346731D01*
X19098837Y-32299811D01*
X19898000Y-32299811D01*
X19898000Y-31905896D01*
X18704922Y-31905896D01*
X18704922Y-32254870D01*
X18851468Y-32277145D01*
X18794095Y-32350450D01*
X18748593Y-32424992D01*
X18714960Y-32500770D01*
X18693198Y-32577784D01*
X18683307Y-32656035D01*
X18682647Y-32682393D01*
X18682647Y-32783607D01*
X19031230Y-32783607D01*
X19031230Y-32592512D01*
G37*
G36*
X19583024Y-32891074D02*
G01*
X19589030Y-32975030D01*
X19594445Y-33055586D01*
X19600747Y-33157703D01*
X19605998Y-33253776D01*
X19610199Y-33343804D01*
X19613350Y-33427787D01*
X19615811Y-33524265D01*
X19616632Y-33611298D01*
X19594357Y-33667571D01*
X19537692Y-33690237D01*
X19459144Y-33690237D01*
X19459144Y-33206050D01*
X19451849Y-33124861D01*
X19426631Y-33045818D01*
X19383400Y-32978529D01*
X19366918Y-32960635D01*
X19303155Y-32912000D01*
X19227638Y-32881378D01*
X19149623Y-32869219D01*
X19121503Y-32868409D01*
X19042563Y-32868409D01*
X18961406Y-32875704D01*
X18882469Y-32900922D01*
X18815364Y-32944153D01*
X18797539Y-32960635D01*
X18748698Y-33024397D01*
X18717946Y-33099914D01*
X18705736Y-33177929D01*
X18704922Y-33206050D01*
X18704922Y-33971605D01*
X18997623Y-33971605D01*
X18997623Y-33341263D01*
X19020288Y-33284598D01*
X19076562Y-33262323D01*
X19132836Y-33284598D01*
X19155110Y-33341263D01*
X19155110Y-33746510D01*
X19162437Y-33827668D01*
X19187762Y-33906604D01*
X19231176Y-33973710D01*
X19247727Y-33991535D01*
X19311284Y-34040376D01*
X19386671Y-34071127D01*
X19464634Y-34083338D01*
X19492752Y-34084152D01*
X19583024Y-34084152D01*
X19664213Y-34076826D01*
X19743256Y-34051501D01*
X19810545Y-34008086D01*
X19828439Y-33991535D01*
X19877074Y-33927978D01*
X19907696Y-33852591D01*
X19919855Y-33774628D01*
X19920665Y-33746510D01*
X19919957Y-33645950D01*
X19917832Y-33543569D01*
X19914290Y-33439369D01*
X19910705Y-33360025D01*
X19906322Y-33279657D01*
X19901143Y-33198266D01*
X19895166Y-33115851D01*
X19888393Y-33032413D01*
X19880823Y-32947951D01*
X19875334Y-32891074D01*
X19583024Y-32891074D01*
G37*
G36*
X18749863Y-34708241D02*
G01*
X19898000Y-34708241D01*
X19898000Y-34314326D01*
X19053896Y-34314326D01*
X19053896Y-34145506D01*
X18749863Y-34145506D01*
X18749863Y-34708241D01*
G37*
G36*
X18299674Y-34314326D02*
G01*
X18299674Y-34708241D01*
X18615041Y-34708241D01*
X18615041Y-34314326D01*
X18299674Y-34314326D01*
G37*
G36*
X19601422Y-34907867D02*
G01*
X19685464Y-34922172D01*
X19757946Y-34951624D01*
X19824922Y-35002114D01*
X19852504Y-35033818D01*
X19893644Y-35107930D01*
X19914681Y-35186835D01*
X19920665Y-35266678D01*
X19920665Y-35784473D01*
X19919824Y-35815481D01*
X19907201Y-35900757D01*
X19875412Y-35981876D01*
X19824922Y-36048646D01*
X19793218Y-36076228D01*
X19719106Y-36117368D01*
X19640201Y-36138405D01*
X19560358Y-36144389D01*
X19042563Y-36144389D01*
X19011555Y-36143547D01*
X18926279Y-36130925D01*
X18845160Y-36099135D01*
X18778390Y-36048646D01*
X18750808Y-36017054D01*
X18709668Y-35943110D01*
X18688631Y-35864291D01*
X18682647Y-35784473D01*
X18682647Y-35660593D01*
X18986290Y-35660593D01*
X19003568Y-35722035D01*
X19076562Y-35750474D01*
X19526750Y-35750474D01*
X19584945Y-35735640D01*
X19616632Y-35660593D01*
X19616632Y-35390558D01*
X19601798Y-35332110D01*
X19526750Y-35300286D01*
X19076562Y-35300286D01*
X19014852Y-35317564D01*
X18986290Y-35390558D01*
X18986290Y-35660593D01*
X18682647Y-35660593D01*
X18682647Y-35266678D01*
X18684143Y-35225615D01*
X18698448Y-35141572D01*
X18727901Y-35069090D01*
X18778390Y-35002114D01*
X18809982Y-34974532D01*
X18883926Y-34933392D01*
X18962745Y-34912355D01*
X19042563Y-34906371D01*
X19560358Y-34906371D01*
X19601422Y-34907867D01*
G37*
G36*
X19008956Y-37002951D02*
G01*
X19014266Y-36917268D01*
X19028310Y-36832882D01*
X19048454Y-36751648D01*
X19053896Y-36732917D01*
X19898000Y-36732917D01*
X19898000Y-36339002D01*
X18704922Y-36339002D01*
X18704922Y-36687976D01*
X18817469Y-36710251D01*
X18774033Y-36783706D01*
X18739371Y-36858454D01*
X18715473Y-36927529D01*
X18695470Y-37006169D01*
X18683801Y-37085553D01*
X18682647Y-37115499D01*
X18682647Y-37216713D01*
X18689942Y-37298059D01*
X18715160Y-37377133D01*
X18758391Y-37444300D01*
X18774873Y-37462128D01*
X18838468Y-37510763D01*
X18913969Y-37541385D01*
X18992101Y-37553543D01*
X19020288Y-37554354D01*
X19898000Y-37554354D01*
X19898000Y-37160439D01*
X19087504Y-37160439D01*
X19031621Y-37137773D01*
X19008956Y-37081891D01*
X19008956Y-37002951D01*
G37*
G36*
X19898000Y-38679825D02*
G01*
X18671314Y-38679825D01*
X18761196Y-38421123D01*
X18502494Y-38308576D01*
X18322340Y-38725157D01*
X18322340Y-39085073D01*
X19898000Y-39085073D01*
X19898000Y-38679825D01*
G37*
G36*
X19560358Y-39282812D02*
G01*
X19560358Y-39688060D01*
X19898000Y-39688060D01*
X19898000Y-39282812D01*
X19560358Y-39282812D01*
G37*
G36*
X19499478Y-39843230D02*
G01*
X19580435Y-39849504D01*
X19663425Y-39866339D01*
X19743158Y-39898128D01*
X19813589Y-39949888D01*
X19832725Y-39971098D01*
X19874551Y-40038741D01*
X19902994Y-40122504D01*
X19916901Y-40209020D01*
X19920665Y-40293000D01*
X19920665Y-40720914D01*
X19920247Y-40749960D01*
X19913973Y-40831018D01*
X19897138Y-40914056D01*
X19865350Y-40993753D01*
X19813589Y-41064026D01*
X19792379Y-41083162D01*
X19724736Y-41124988D01*
X19640973Y-41153430D01*
X19554457Y-41167338D01*
X19470477Y-41171102D01*
X18749863Y-41171102D01*
X18720862Y-41170684D01*
X18639905Y-41164410D01*
X18556915Y-41147575D01*
X18477182Y-41115786D01*
X18406750Y-41064026D01*
X18387615Y-41042882D01*
X18345788Y-40975349D01*
X18317346Y-40891598D01*
X18303439Y-40805013D01*
X18299674Y-40720914D01*
X18299674Y-40630642D01*
X18615041Y-40630642D01*
X18621492Y-40683327D01*
X18673104Y-40749877D01*
X18749863Y-40765854D01*
X19470477Y-40765854D01*
X19523010Y-40759384D01*
X19589368Y-40707623D01*
X19605299Y-40630642D01*
X19605299Y-40383272D01*
X19598847Y-40330587D01*
X19547236Y-40264037D01*
X19470477Y-40248060D01*
X18749863Y-40248060D01*
X18697330Y-40254530D01*
X18630972Y-40306291D01*
X18615041Y-40383272D01*
X18615041Y-40630642D01*
X18299674Y-40630642D01*
X18299674Y-40293000D01*
X18300093Y-40263999D01*
X18306367Y-40183042D01*
X18323202Y-40100052D01*
X18354990Y-40020319D01*
X18406750Y-39949888D01*
X18427961Y-39930752D01*
X18495604Y-39888926D01*
X18579367Y-39860484D01*
X18665883Y-39846576D01*
X18749863Y-39842812D01*
X19470477Y-39842812D01*
X19499478Y-39843230D01*
G37*
G36*
X19560358Y-41321165D02*
G01*
X19560358Y-41726413D01*
X19898000Y-41726413D01*
X19898000Y-41321165D01*
X19560358Y-41321165D01*
G37*
G36*
X19499478Y-41881583D02*
G01*
X19580435Y-41887857D01*
X19663425Y-41904692D01*
X19743158Y-41936481D01*
X19813589Y-41988241D01*
X19832725Y-42009451D01*
X19874551Y-42077094D01*
X19902994Y-42160857D01*
X19916901Y-42247374D01*
X19920665Y-42331353D01*
X19920665Y-42759267D01*
X19920247Y-42788313D01*
X19913973Y-42869372D01*
X19897138Y-42952410D01*
X19865350Y-43032106D01*
X19813589Y-43102379D01*
X19792379Y-43121515D01*
X19724736Y-43163341D01*
X19640973Y-43191784D01*
X19554457Y-43205691D01*
X19470477Y-43209455D01*
X18749863Y-43209455D01*
X18720862Y-43209037D01*
X18639905Y-43202763D01*
X18556915Y-43185928D01*
X18477182Y-43154140D01*
X18406750Y-43102379D01*
X18387615Y-43081235D01*
X18345788Y-43013702D01*
X18317346Y-42929951D01*
X18303439Y-42843366D01*
X18299674Y-42759267D01*
X18299674Y-42668995D01*
X18615041Y-42668995D01*
X18621492Y-42721680D01*
X18673104Y-42788230D01*
X18749863Y-42804208D01*
X19470477Y-42804208D01*
X19523010Y-42797737D01*
X19589368Y-42745976D01*
X19605299Y-42668995D01*
X19605299Y-42421626D01*
X19598847Y-42368940D01*
X19547236Y-42302390D01*
X19470477Y-42286413D01*
X18749863Y-42286413D01*
X18697330Y-42292883D01*
X18630972Y-42344644D01*
X18615041Y-42421626D01*
X18615041Y-42668995D01*
X18299674Y-42668995D01*
X18299674Y-42331353D01*
X18300093Y-42302353D01*
X18306367Y-42221395D01*
X18323202Y-42138405D01*
X18354990Y-42058672D01*
X18406750Y-41988241D01*
X18427961Y-41969105D01*
X18495604Y-41927279D01*
X18579367Y-41898837D01*
X18665883Y-41884929D01*
X18749863Y-41881165D01*
X19470477Y-41881165D01*
X19499478Y-41881583D01*
G37*
G36*
X19425145Y-81953917D02*
G01*
X18322340Y-82336499D01*
X18322340Y-82775355D01*
X19898000Y-82179011D01*
X19898000Y-81728823D01*
X18322340Y-81132089D01*
X18322340Y-81571335D01*
X19425145Y-81953917D01*
G37*
G36*
X19611145Y-82767959D02*
G01*
X19689160Y-82780117D01*
X19764676Y-82810739D01*
X19828439Y-82859374D01*
X19844921Y-82877269D01*
X19888152Y-82944558D01*
X19913370Y-83023601D01*
X19920665Y-83104789D01*
X19920488Y-83149312D01*
X19919072Y-83240243D01*
X19916238Y-83333691D01*
X19911989Y-83429654D01*
X19906322Y-83528132D01*
X19899239Y-83629127D01*
X19890739Y-83732637D01*
X19883435Y-83811921D01*
X19875334Y-83892619D01*
X19593966Y-83892619D01*
X19601934Y-83788388D01*
X19608840Y-83690630D01*
X19614684Y-83599345D01*
X19619465Y-83514531D01*
X19623947Y-83417616D01*
X19626769Y-83330815D01*
X19627965Y-83240002D01*
X19605690Y-83183729D01*
X19549025Y-83161063D01*
X19459144Y-83161063D01*
X19459144Y-83937951D01*
X19042563Y-83937951D01*
X19011555Y-83937109D01*
X18926279Y-83924487D01*
X18845160Y-83892697D01*
X18778390Y-83842207D01*
X18750808Y-83810504D01*
X18709668Y-83736391D01*
X18688631Y-83657487D01*
X18682647Y-83577644D01*
X18682647Y-83453764D01*
X18964015Y-83453764D01*
X18978849Y-83512211D01*
X19053896Y-83544036D01*
X19177776Y-83544036D01*
X19177776Y-83161063D01*
X19053896Y-83161063D01*
X18992454Y-83178342D01*
X18964015Y-83251335D01*
X18964015Y-83453764D01*
X18682647Y-83453764D01*
X18682647Y-83127455D01*
X18684143Y-83086392D01*
X18698448Y-83002349D01*
X18727901Y-82929867D01*
X18778390Y-82862891D01*
X18809982Y-82835309D01*
X18883926Y-82794169D01*
X18962745Y-82773132D01*
X19042563Y-82767148D01*
X19583024Y-82767148D01*
X19611145Y-82767959D01*
G37*
G36*
X19031230Y-84819179D02*
G01*
X19036578Y-84738674D01*
X19052622Y-84656747D01*
X19079360Y-84573398D01*
X19098837Y-84526478D01*
X19898000Y-84526478D01*
X19898000Y-84132563D01*
X18704922Y-84132563D01*
X18704922Y-84481537D01*
X18851468Y-84503812D01*
X18794095Y-84577117D01*
X18748593Y-84651659D01*
X18714960Y-84727437D01*
X18693198Y-84804451D01*
X18683307Y-84882702D01*
X18682647Y-84909060D01*
X18682647Y-85010274D01*
X19031230Y-85010274D01*
X19031230Y-84819179D01*
G37*
G36*
X19583024Y-85117741D02*
G01*
X19589030Y-85201697D01*
X19594445Y-85282253D01*
X19600747Y-85384370D01*
X19605998Y-85480443D01*
X19610199Y-85570471D01*
X19613350Y-85654454D01*
X19615811Y-85750932D01*
X19616632Y-85837965D01*
X19594357Y-85894238D01*
X19537692Y-85916904D01*
X19459144Y-85916904D01*
X19459144Y-85432717D01*
X19451849Y-85351528D01*
X19426631Y-85272485D01*
X19383400Y-85205196D01*
X19366918Y-85187302D01*
X19303155Y-85138667D01*
X19227638Y-85108045D01*
X19149623Y-85095886D01*
X19121503Y-85095076D01*
X19042563Y-85095076D01*
X18961406Y-85102371D01*
X18882469Y-85127589D01*
X18815364Y-85170820D01*
X18797539Y-85187302D01*
X18748698Y-85251064D01*
X18717946Y-85326581D01*
X18705736Y-85404596D01*
X18704922Y-85432717D01*
X18704922Y-86198272D01*
X18997623Y-86198272D01*
X18997623Y-85567930D01*
X19020288Y-85511265D01*
X19076562Y-85488990D01*
X19132836Y-85511265D01*
X19155110Y-85567930D01*
X19155110Y-85973177D01*
X19162437Y-86054335D01*
X19187762Y-86133271D01*
X19231176Y-86200377D01*
X19247727Y-86218202D01*
X19311284Y-86267043D01*
X19386671Y-86297794D01*
X19464634Y-86310005D01*
X19492752Y-86310819D01*
X19583024Y-86310819D01*
X19664213Y-86303493D01*
X19743256Y-86278168D01*
X19810545Y-86234753D01*
X19828439Y-86218202D01*
X19877074Y-86154645D01*
X19907696Y-86079258D01*
X19919855Y-86001295D01*
X19920665Y-85973177D01*
X19919957Y-85872617D01*
X19917832Y-85770236D01*
X19914290Y-85666036D01*
X19910705Y-85586692D01*
X19906322Y-85506324D01*
X19901143Y-85424933D01*
X19895166Y-85342518D01*
X19888393Y-85259080D01*
X19880823Y-85174618D01*
X19875334Y-85117741D01*
X19583024Y-85117741D01*
G37*
G36*
X18749863Y-86934908D02*
G01*
X19898000Y-86934908D01*
X19898000Y-86540993D01*
X19053896Y-86540993D01*
X19053896Y-86372173D01*
X18749863Y-86372173D01*
X18749863Y-86934908D01*
G37*
G36*
X18299674Y-86540993D02*
G01*
X18299674Y-86934908D01*
X18615041Y-86934908D01*
X18615041Y-86540993D01*
X18299674Y-86540993D01*
G37*
G36*
X19601422Y-87134534D02*
G01*
X19685464Y-87148839D01*
X19757946Y-87178291D01*
X19824922Y-87228781D01*
X19852504Y-87260485D01*
X19893644Y-87334597D01*
X19914681Y-87413502D01*
X19920665Y-87493345D01*
X19920665Y-88011140D01*
X19919824Y-88042148D01*
X19907201Y-88127424D01*
X19875412Y-88208543D01*
X19824922Y-88275313D01*
X19793218Y-88302895D01*
X19719106Y-88344035D01*
X19640201Y-88365072D01*
X19560358Y-88371056D01*
X19042563Y-88371056D01*
X19011555Y-88370214D01*
X18926279Y-88357592D01*
X18845160Y-88325802D01*
X18778390Y-88275313D01*
X18750808Y-88243721D01*
X18709668Y-88169777D01*
X18688631Y-88090958D01*
X18682647Y-88011140D01*
X18682647Y-87887260D01*
X18986290Y-87887260D01*
X19003568Y-87948702D01*
X19076562Y-87977141D01*
X19526750Y-87977141D01*
X19584945Y-87962307D01*
X19616632Y-87887260D01*
X19616632Y-87617225D01*
X19601798Y-87558777D01*
X19526750Y-87526953D01*
X19076562Y-87526953D01*
X19014852Y-87544231D01*
X18986290Y-87617225D01*
X18986290Y-87887260D01*
X18682647Y-87887260D01*
X18682647Y-87493345D01*
X18684143Y-87452282D01*
X18698448Y-87368239D01*
X18727901Y-87295757D01*
X18778390Y-87228781D01*
X18809982Y-87201199D01*
X18883926Y-87160059D01*
X18962745Y-87139022D01*
X19042563Y-87133038D01*
X19560358Y-87133038D01*
X19601422Y-87134534D01*
G37*
G36*
X19008956Y-89229618D02*
G01*
X19014266Y-89143935D01*
X19028310Y-89059549D01*
X19048454Y-88978315D01*
X19053896Y-88959584D01*
X19898000Y-88959584D01*
X19898000Y-88565669D01*
X18704922Y-88565669D01*
X18704922Y-88914643D01*
X18817469Y-88936918D01*
X18774033Y-89010373D01*
X18739371Y-89085121D01*
X18715473Y-89154196D01*
X18695470Y-89232836D01*
X18683801Y-89312220D01*
X18682647Y-89342166D01*
X18682647Y-89443380D01*
X18689942Y-89524726D01*
X18715160Y-89603800D01*
X18758391Y-89670967D01*
X18774873Y-89688795D01*
X18838468Y-89737430D01*
X18913969Y-89768052D01*
X18992101Y-89780210D01*
X19020288Y-89781021D01*
X19898000Y-89781021D01*
X19898000Y-89387106D01*
X19087504Y-89387106D01*
X19031621Y-89364440D01*
X19008956Y-89308558D01*
X19008956Y-89229618D01*
G37*
G36*
X19898000Y-90906492D02*
G01*
X18671314Y-90906492D01*
X18761196Y-90647790D01*
X18502494Y-90535243D01*
X18322340Y-90951824D01*
X18322340Y-91311740D01*
X19898000Y-91311740D01*
X19898000Y-90906492D01*
G37*
G36*
X19560358Y-91509479D02*
G01*
X19560358Y-91914727D01*
X19898000Y-91914727D01*
X19898000Y-91509479D01*
X19560358Y-91509479D01*
G37*
G36*
X19499478Y-92069897D02*
G01*
X19580435Y-92076171D01*
X19663425Y-92093006D01*
X19743158Y-92124795D01*
X19813589Y-92176555D01*
X19832725Y-92197765D01*
X19874551Y-92265408D01*
X19902994Y-92349171D01*
X19916901Y-92435687D01*
X19920665Y-92519667D01*
X19920665Y-92947581D01*
X19920247Y-92976627D01*
X19913973Y-93057685D01*
X19897138Y-93140723D01*
X19865350Y-93220420D01*
X19813589Y-93290693D01*
X19792379Y-93309829D01*
X19724736Y-93351655D01*
X19640973Y-93380097D01*
X19554457Y-93394005D01*
X19470477Y-93397769D01*
X18749863Y-93397769D01*
X18720862Y-93397351D01*
X18639905Y-93391077D01*
X18556915Y-93374242D01*
X18477182Y-93342453D01*
X18406750Y-93290693D01*
X18387615Y-93269549D01*
X18345788Y-93202016D01*
X18317346Y-93118265D01*
X18303439Y-93031680D01*
X18299674Y-92947581D01*
X18299674Y-92857309D01*
X18615041Y-92857309D01*
X18621492Y-92909994D01*
X18673104Y-92976544D01*
X18749863Y-92992521D01*
X19470477Y-92992521D01*
X19523010Y-92986051D01*
X19589368Y-92934290D01*
X19605299Y-92857309D01*
X19605299Y-92609939D01*
X19598847Y-92557254D01*
X19547236Y-92490704D01*
X19470477Y-92474727D01*
X18749863Y-92474727D01*
X18697330Y-92481197D01*
X18630972Y-92532958D01*
X18615041Y-92609939D01*
X18615041Y-92857309D01*
X18299674Y-92857309D01*
X18299674Y-92519667D01*
X18300093Y-92490666D01*
X18306367Y-92409709D01*
X18323202Y-92326719D01*
X18354990Y-92246986D01*
X18406750Y-92176555D01*
X18427961Y-92157419D01*
X18495604Y-92115593D01*
X18579367Y-92087151D01*
X18665883Y-92073243D01*
X18749863Y-92069479D01*
X19470477Y-92069479D01*
X19499478Y-92069897D01*
G37*
G36*
X19560358Y-93547832D02*
G01*
X19560358Y-93953080D01*
X19898000Y-93953080D01*
X19898000Y-93547832D01*
X19560358Y-93547832D01*
G37*
G36*
X19499478Y-94108250D02*
G01*
X19580435Y-94114524D01*
X19663425Y-94131359D01*
X19743158Y-94163148D01*
X19813589Y-94214908D01*
X19832725Y-94236118D01*
X19874551Y-94303761D01*
X19902994Y-94387524D01*
X19916901Y-94474041D01*
X19920665Y-94558020D01*
X19920665Y-94985934D01*
X19920247Y-95014980D01*
X19913973Y-95096039D01*
X19897138Y-95179077D01*
X19865350Y-95258773D01*
X19813589Y-95329046D01*
X19792379Y-95348182D01*
X19724736Y-95390008D01*
X19640973Y-95418451D01*
X19554457Y-95432358D01*
X19470477Y-95436122D01*
X18749863Y-95436122D01*
X18720862Y-95435704D01*
X18639905Y-95429430D01*
X18556915Y-95412595D01*
X18477182Y-95380807D01*
X18406750Y-95329046D01*
X18387615Y-95307902D01*
X18345788Y-95240369D01*
X18317346Y-95156618D01*
X18303439Y-95070033D01*
X18299674Y-94985934D01*
X18299674Y-94895662D01*
X18615041Y-94895662D01*
X18621492Y-94948347D01*
X18673104Y-95014897D01*
X18749863Y-95030875D01*
X19470477Y-95030875D01*
X19523010Y-95024404D01*
X19589368Y-94972643D01*
X19605299Y-94895662D01*
X19605299Y-94648293D01*
X19598847Y-94595607D01*
X19547236Y-94529057D01*
X19470477Y-94513080D01*
X18749863Y-94513080D01*
X18697330Y-94519550D01*
X18630972Y-94571311D01*
X18615041Y-94648293D01*
X18615041Y-94895662D01*
X18299674Y-94895662D01*
X18299674Y-94558020D01*
X18300093Y-94529020D01*
X18306367Y-94448062D01*
X18323202Y-94365072D01*
X18354990Y-94285339D01*
X18406750Y-94214908D01*
X18427961Y-94195772D01*
X18495604Y-94153946D01*
X18579367Y-94125504D01*
X18665883Y-94111596D01*
X18749863Y-94107832D01*
X19470477Y-94107832D01*
X19499478Y-94108250D01*
G37*
G36*
X8943032Y-54931463D02*
G01*
X8943032Y-55564052D01*
X10736995Y-55564052D01*
X10868214Y-55558170D01*
X11003395Y-55536440D01*
X11134275Y-55491999D01*
X11239967Y-55426645D01*
X11273108Y-55396746D01*
X11353984Y-55286944D01*
X11403653Y-55162418D01*
X11429958Y-55032671D01*
X11439761Y-54906018D01*
X11440415Y-54860633D01*
X11440415Y-54052189D01*
X11434533Y-53920763D01*
X11412803Y-53785394D01*
X11368362Y-53654371D01*
X11303008Y-53548612D01*
X11273108Y-53515465D01*
X11163060Y-53434885D01*
X11038477Y-53385397D01*
X10908805Y-53359188D01*
X10782309Y-53349421D01*
X10736995Y-53348770D01*
X8943032Y-53348770D01*
X8943032Y-53981359D01*
X10736995Y-53981359D01*
X10856931Y-54006323D01*
X10937574Y-54110308D01*
X10947655Y-54192629D01*
X10947655Y-54720193D01*
X10922762Y-54840477D01*
X10819078Y-54921354D01*
X10736995Y-54931463D01*
X8943032Y-54931463D01*
G37*
G36*
X9611036Y-56710162D02*
G01*
X11405000Y-56710162D01*
X11405000Y-56094670D01*
X10086088Y-56094670D01*
X10086088Y-55830887D01*
X9611036Y-55830887D01*
X9611036Y-56710162D01*
G37*
G36*
X8907616Y-56094670D02*
G01*
X8907616Y-56710162D01*
X9400376Y-56710162D01*
X9400376Y-56094670D01*
X8907616Y-56094670D01*
G37*
G36*
X10015868Y-58092576D02*
G01*
X10024166Y-57958695D01*
X10046109Y-57826842D01*
X10077585Y-57699915D01*
X10086088Y-57670647D01*
X11405000Y-57670647D01*
X11405000Y-57055155D01*
X9540816Y-57055155D01*
X9540816Y-57600427D01*
X9716671Y-57635232D01*
X9648802Y-57750005D01*
X9594642Y-57866800D01*
X9557302Y-57974729D01*
X9526047Y-58097604D01*
X9507815Y-58221641D01*
X9506011Y-58268431D01*
X9506011Y-58426578D01*
X9517410Y-58553682D01*
X9556813Y-58677235D01*
X9624362Y-58782183D01*
X9650115Y-58810040D01*
X9749481Y-58886032D01*
X9867453Y-58933878D01*
X9989533Y-58952876D01*
X10033576Y-58954143D01*
X11405000Y-58954143D01*
X11405000Y-58338651D01*
X10138600Y-58338651D01*
X10051284Y-58303236D01*
X10015868Y-58215919D01*
X10015868Y-58092576D01*
G37*
G36*
X11405000Y-60453794D02*
G01*
X11405000Y-59188005D01*
X10912850Y-59188005D01*
X10912850Y-59504300D01*
X9435181Y-59504300D01*
X9435181Y-59188005D01*
X8943032Y-59188005D01*
X8943032Y-60453794D01*
X9435181Y-60453794D01*
X9435181Y-60137500D01*
X10912850Y-60137500D01*
X10912850Y-60453794D01*
X11405000Y-60453794D01*
G37*
G36*
X10782309Y-60691363D02*
G01*
X10908805Y-60701166D01*
X11038477Y-60727471D01*
X11163060Y-60777140D01*
X11273108Y-60858016D01*
X11303008Y-60891157D01*
X11368362Y-60996849D01*
X11412803Y-61127729D01*
X11434533Y-61262910D01*
X11440415Y-61394129D01*
X11440415Y-62273403D01*
X11439761Y-62318788D01*
X11429958Y-62445442D01*
X11403653Y-62575189D01*
X11353984Y-62699714D01*
X11273108Y-62809516D01*
X11239967Y-62839416D01*
X11134275Y-62904770D01*
X11003395Y-62949211D01*
X10868214Y-62970941D01*
X10736995Y-62976823D01*
X9611036Y-62976823D01*
X9565722Y-62976169D01*
X9439226Y-62966366D01*
X9309554Y-62940061D01*
X9184972Y-62890392D01*
X9074923Y-62809516D01*
X9045023Y-62776479D01*
X8979669Y-62670959D01*
X8935228Y-62540098D01*
X8913498Y-62404808D01*
X8907616Y-62273403D01*
X8907616Y-62132964D01*
X9400376Y-62132964D01*
X9410457Y-62215285D01*
X9491100Y-62319269D01*
X9611036Y-62344234D01*
X10736995Y-62344234D01*
X10819078Y-62334124D01*
X10922762Y-62253247D01*
X10947655Y-62132964D01*
X10947655Y-61535179D01*
X10937574Y-61452858D01*
X10856931Y-61348874D01*
X10736995Y-61323909D01*
X9611036Y-61323909D01*
X9528953Y-61334019D01*
X9425269Y-61414896D01*
X9400376Y-61535179D01*
X9400376Y-62132964D01*
X8907616Y-62132964D01*
X8907616Y-61394129D01*
X8908270Y-61348815D01*
X8918073Y-61222319D01*
X8944378Y-61092648D01*
X8994047Y-60968065D01*
X9074923Y-60858016D01*
X9108064Y-60828116D01*
X9213756Y-60762762D01*
X9344636Y-60718322D01*
X9479817Y-60696591D01*
X9611036Y-60690710D01*
X10736995Y-60690710D01*
X10782309Y-60691363D01*
G37*
G36*
X10877435Y-63210685D02*
G01*
X10877435Y-63843885D01*
X11405000Y-63843885D01*
X11405000Y-63210685D01*
X10877435Y-63210685D01*
G37*
G36*
X11369584Y-65774014D02*
G01*
X11382242Y-65652067D01*
X11397183Y-65493696D01*
X11409911Y-65340152D01*
X11420424Y-65191436D01*
X11428725Y-65047547D01*
X11434812Y-64908486D01*
X11438685Y-64774253D01*
X11440346Y-64644847D01*
X11440415Y-64613250D01*
X11429016Y-64486392D01*
X11389613Y-64362888D01*
X11322064Y-64257749D01*
X11296311Y-64229788D01*
X11196682Y-64153796D01*
X11078687Y-64105950D01*
X10956789Y-64086952D01*
X10912850Y-64085685D01*
X10103796Y-64085685D01*
X9979041Y-64095035D01*
X9855753Y-64127906D01*
X9739952Y-64192187D01*
X9690415Y-64235284D01*
X9611525Y-64339934D01*
X9565506Y-64453187D01*
X9543153Y-64584503D01*
X9540816Y-64648665D01*
X9540816Y-65774014D01*
X10015868Y-65774014D01*
X10015868Y-64842227D01*
X10060304Y-64728175D01*
X10156308Y-64701177D01*
X10842020Y-64701177D01*
X10930558Y-64736592D01*
X10965362Y-64824520D01*
X10963516Y-64954271D01*
X10959157Y-65079419D01*
X10952234Y-65220040D01*
X10944850Y-65343679D01*
X10935824Y-65477221D01*
X10925158Y-65620666D01*
X10912850Y-65774014D01*
X11369584Y-65774014D01*
G37*
G36*
X10941596Y-66012656D02*
G01*
X11072913Y-66035008D01*
X11186166Y-66081028D01*
X11290816Y-66159918D01*
X11333913Y-66209455D01*
X11398194Y-66325255D01*
X11431065Y-66448544D01*
X11440415Y-66573299D01*
X11440415Y-67382353D01*
X11439100Y-67430803D01*
X11419377Y-67564047D01*
X11369706Y-67690795D01*
X11290816Y-67795123D01*
X11241279Y-67838221D01*
X11125478Y-67902501D01*
X11002190Y-67935372D01*
X10877435Y-67944722D01*
X10068381Y-67944722D01*
X10019930Y-67943407D01*
X9886687Y-67923685D01*
X9759938Y-67874013D01*
X9655610Y-67795123D01*
X9612513Y-67745762D01*
X9548232Y-67630224D01*
X9515361Y-67507069D01*
X9506011Y-67382353D01*
X9506011Y-67188790D01*
X9980453Y-67188790D01*
X10007451Y-67284794D01*
X10121503Y-67329230D01*
X10824923Y-67329230D01*
X10915852Y-67306052D01*
X10965362Y-67188790D01*
X10965362Y-66766861D01*
X10942184Y-66675536D01*
X10824923Y-66625811D01*
X10121503Y-66625811D01*
X10025082Y-66652809D01*
X9980453Y-66766861D01*
X9980453Y-67188790D01*
X9506011Y-67188790D01*
X9506011Y-66573299D01*
X9508349Y-66509137D01*
X9530701Y-66377820D01*
X9576720Y-66264567D01*
X9655610Y-66159918D01*
X9704971Y-66116820D01*
X9820510Y-66052539D01*
X9943664Y-66019669D01*
X10068381Y-66010319D01*
X10877435Y-66010319D01*
X10941596Y-66012656D01*
G37*
G36*
X9506011Y-69497496D02*
G01*
X9519178Y-69631677D01*
X9558676Y-69749677D01*
X9634588Y-69863085D01*
X9716671Y-69937133D01*
X9648802Y-70051481D01*
X9594642Y-70172033D01*
X9557302Y-70287011D01*
X9528101Y-70411545D01*
X9510069Y-70536538D01*
X9506011Y-70622845D01*
X9506011Y-70658260D01*
X9517410Y-70785069D01*
X9556813Y-70908407D01*
X9624362Y-71013260D01*
X9650115Y-71041111D01*
X9749481Y-71117425D01*
X9867453Y-71165474D01*
X9989533Y-71184553D01*
X10033576Y-71185825D01*
X11405000Y-71185825D01*
X11405000Y-70570333D01*
X10138600Y-70570333D01*
X10051284Y-70534918D01*
X10015868Y-70446990D01*
X10015868Y-70429282D01*
X10025743Y-70298307D01*
X10049058Y-70170271D01*
X10081768Y-70040354D01*
X10086088Y-70025061D01*
X11405000Y-70025061D01*
X11405000Y-69409569D01*
X10138600Y-69409569D01*
X10051284Y-69374153D01*
X10015868Y-69286226D01*
X10015868Y-69268518D01*
X10025743Y-69137543D01*
X10049058Y-69009506D01*
X10081768Y-68879590D01*
X10086088Y-68864296D01*
X11405000Y-68864296D01*
X11405000Y-68248804D01*
X9540816Y-68248804D01*
X9540816Y-68794077D01*
X9716671Y-68828881D01*
X9648802Y-68943655D01*
X9594642Y-69060449D01*
X9557302Y-69168379D01*
X9526047Y-69291254D01*
X9507815Y-69415291D01*
X9506011Y-69462081D01*
X9506011Y-69497496D01*
G37*
D11*
%TO.C,HOLE\u002A\u002A*%
X-2160000Y-1856667D02*
G75*
G02*
X-5760000Y-1856667I-1800000J0D01*
G01*
X-5760000Y-1856667D02*
G75*
G02*
X-2160000Y-1856667I1800000J0D01*
G01*
X34120000Y-54083333D02*
G75*
G02*
X30520000Y-54083333I-1800000J0D01*
G01*
X30520000Y-54083333D02*
G75*
G02*
X34120000Y-54083333I1800000J0D01*
G01*
X-2170000Y-44260000D02*
G75*
G02*
X-5770000Y-44260000I-1800000J0D01*
G01*
X-5770000Y-44260000D02*
G75*
G02*
X-2170000Y-44260000I1800000J0D01*
G01*
X34120000Y-27970000D02*
G75*
G02*
X30520000Y-27970000I-1800000J0D01*
G01*
X30520000Y-27970000D02*
G75*
G02*
X34120000Y-27970000I1800000J0D01*
G01*
X34120000Y-80196667D02*
G75*
G02*
X30520000Y-80196667I-1800000J0D01*
G01*
X30520000Y-80196667D02*
G75*
G02*
X34120000Y-80196667I1800000J0D01*
G01*
X-2160000Y-27970000D02*
G75*
G02*
X-5760000Y-27970000I-1800000J0D01*
G01*
X-5760000Y-27970000D02*
G75*
G02*
X-2160000Y-27970000I1800000J0D01*
G01*
X34120000Y-70363333D02*
G75*
G02*
X30520000Y-70363333I-1800000J0D01*
G01*
X30520000Y-70363333D02*
G75*
G02*
X34120000Y-70363333I1800000J0D01*
G01*
X17180000Y-75260000D02*
G75*
G02*
X12180000Y-75260000I-2500000J0D01*
G01*
X12180000Y-75260000D02*
G75*
G02*
X17180000Y-75260000I2500000J0D01*
G01*
X34120000Y-44250000D02*
G75*
G02*
X30520000Y-44250000I-1800000J0D01*
G01*
X30520000Y-44250000D02*
G75*
G02*
X34120000Y-44250000I1800000J0D01*
G01*
X34120000Y-1856667D02*
G75*
G02*
X30520000Y-1856667I-1800000J0D01*
G01*
X30520000Y-1856667D02*
G75*
G02*
X34120000Y-1856667I1800000J0D01*
G01*
X-2170000Y-70373333D02*
G75*
G02*
X-5770000Y-70373333I-1800000J0D01*
G01*
X-5770000Y-70373333D02*
G75*
G02*
X-2170000Y-70373333I1800000J0D01*
G01*
X-2170000Y-96486667D02*
G75*
G02*
X-5770000Y-96486667I-1800000J0D01*
G01*
X-5770000Y-96486667D02*
G75*
G02*
X-2170000Y-96486667I1800000J0D01*
G01*
X34120000Y-18136667D02*
G75*
G02*
X30520000Y-18136667I-1800000J0D01*
G01*
X30520000Y-18136667D02*
G75*
G02*
X34120000Y-18136667I1800000J0D01*
G01*
X17170000Y-49166666D02*
G75*
G02*
X12170000Y-49166666I-2500000J0D01*
G01*
X12170000Y-49166666D02*
G75*
G02*
X17170000Y-49166666I2500000J0D01*
G01*
X-2160000Y-80196667D02*
G75*
G02*
X-5760000Y-80196667I-1800000J0D01*
G01*
X-5760000Y-80196667D02*
G75*
G02*
X-2160000Y-80196667I1800000J0D01*
G01*
X-2160000Y-54083333D02*
G75*
G02*
X-5760000Y-54083333I-1800000J0D01*
G01*
X-5760000Y-54083333D02*
G75*
G02*
X-2160000Y-54083333I1800000J0D01*
G01*
X-2170000Y-18146667D02*
G75*
G02*
X-5770000Y-18146667I-1800000J0D01*
G01*
X-5770000Y-18146667D02*
G75*
G02*
X-2170000Y-18146667I1800000J0D01*
G01*
X17180000Y-23093333D02*
G75*
G02*
X12180000Y-23093333I-2500000J0D01*
G01*
X12180000Y-23093333D02*
G75*
G02*
X17180000Y-23093333I2500000J0D01*
G01*
X34120000Y-96476667D02*
G75*
G02*
X30520000Y-96476667I-1800000J0D01*
G01*
X30520000Y-96476667D02*
G75*
G02*
X34120000Y-96476667I1800000J0D01*
G01*
%TD*%
%LPC*%
D12*
%TO.C,HOLE\u002A\u002A*%
X-3960000Y-1856667D03*
%TD*%
%TO.C,HOLE\u002A\u002A*%
X32320000Y-54083333D03*
%TD*%
%TO.C,HOLE\u002A\u002A*%
X-3970000Y-44260000D03*
%TD*%
D13*
%TO.C,USB3*%
X90000Y-5676667D03*
X90000Y-14316667D03*
X-3710000Y-5676667D03*
X-3710000Y-14316667D03*
%TD*%
D12*
%TO.C,HOLE\u002A\u002A*%
X32320000Y-27970000D03*
%TD*%
D14*
%TO.C,J7*%
X32770000Y-32310000D03*
D15*
X32770000Y-34850000D03*
X32770000Y-37390000D03*
X32770000Y-39930000D03*
%TD*%
D12*
%TO.C,HOLE\u002A\u002A*%
X32320000Y-80196667D03*
%TD*%
D14*
%TO.C,J3*%
X5516750Y-11271667D03*
D15*
X5516750Y-8731667D03*
%TD*%
D14*
%TO.C,J9*%
X32770000Y-58423333D03*
D15*
X32770000Y-60963333D03*
X32770000Y-63503333D03*
X32770000Y-66043333D03*
%TD*%
D12*
%TO.C,HOLE\u002A\u002A*%
X-3960000Y-27970000D03*
%TD*%
%TO.C,HOLE\u002A\u002A*%
X32320000Y-70363333D03*
%TD*%
D13*
%TO.C,USB4*%
X90000Y-84016667D03*
X90000Y-92656667D03*
X-3710000Y-84016667D03*
X-3710000Y-92656667D03*
%TD*%
D16*
%TO.C,HOLE\u002A\u002A*%
X14640000Y-75260000D03*
%TD*%
D14*
%TO.C,J1*%
X6997600Y-37385000D03*
D15*
X6997600Y-34845000D03*
%TD*%
D12*
%TO.C,HOLE\u002A\u002A*%
X32320000Y-44250000D03*
%TD*%
D14*
%TO.C,J5*%
X32770000Y-6176667D03*
D15*
X32770000Y-8716667D03*
X32770000Y-11256667D03*
X32770000Y-13796667D03*
%TD*%
D12*
%TO.C,HOLE\u002A\u002A*%
X32320000Y-1856667D03*
%TD*%
%TO.C,HOLE\u002A\u002A*%
X-3970000Y-70373333D03*
%TD*%
%TO.C,HOLE\u002A\u002A*%
X-3970000Y-96486667D03*
%TD*%
%TO.C,HOLE\u002A\u002A*%
X32320000Y-18136667D03*
%TD*%
D14*
%TO.C,J2*%
X6882000Y-63498333D03*
D15*
X6882000Y-60958333D03*
%TD*%
D14*
%TO.C,J4*%
X14883250Y-7471667D03*
D15*
X14883250Y-10011667D03*
X14883250Y-12551667D03*
%TD*%
D16*
%TO.C,HOLE\u002A\u002A*%
X14630000Y-49166666D03*
%TD*%
D12*
%TO.C,HOLE\u002A\u002A*%
X-3960000Y-80196667D03*
%TD*%
D14*
%TO.C,J8*%
X32770000Y-84536667D03*
D15*
X32770000Y-87076667D03*
X32770000Y-89616667D03*
X32770000Y-92156667D03*
%TD*%
D14*
%TO.C,J6*%
X5830000Y-89611667D03*
D15*
X5830000Y-87071667D03*
%TD*%
D12*
%TO.C,HOLE\u002A\u002A*%
X-3960000Y-54083333D03*
%TD*%
%TO.C,HOLE\u002A\u002A*%
X-3970000Y-18146667D03*
%TD*%
D16*
%TO.C,HOLE\u002A\u002A*%
X14640000Y-23093333D03*
%TD*%
D13*
%TO.C,USB2*%
X90000Y-57903333D03*
X90000Y-66543333D03*
X-3710000Y-57903333D03*
X-3710000Y-66543333D03*
%TD*%
D12*
%TO.C,HOLE\u002A\u002A*%
X32320000Y-96476667D03*
%TD*%
D13*
%TO.C,USB1*%
X90000Y-31790000D03*
X90000Y-40430000D03*
X-3710000Y-31790000D03*
X-3710000Y-40430000D03*
%TD*%
%LPD*%
M02*
