M48
; DRILL file {KiCad 8.0.2} date 2024-04-29T22:59:37+0800
; FORMAT={-:-/ absolute / metric / decimal}
; #@! TF.CreationDate,2024-04-29T22:59:37+08:00
; #@! TF.GenerationSoftware,Kicad,Pcbnew,8.0.2
; #@! TF.FileFunction,MixedPlating,1,2
FMAT,2
METRIC
; #@! TA.AperFunction,Plated,PTH,ViaDrill
T1C0.300
; #@! TA.AperFunction,Plated,PTH,ComponentDrill
T2C0.600
; #@! TA.AperFunction,Plated,PTH,ComponentDrill
T3C1.000
; #@! TA.AperFunction,NonPlated,NPTH,ComponentDrill
T4C2.200
; #@! TA.AperFunction,NonPlated,NPTH,ComponentDrill
T5C2.800
%
G90
G05
T1
X2.38Y-83.13
X2.38Y-87.86
X2.39Y-4.82
X2.39Y-9.5
X2.39Y-10.52
X2.39Y-15.17
X2.39Y-30.83
X2.39Y-35.61
X2.39Y-36.63
X2.39Y-41.42
X2.39Y-56.9
X2.39Y-61.71
X2.39Y-62.71
X2.39Y-67.5
X2.39Y-88.83
X2.39Y-93.59
X23.87Y-10.6
T3
X5.517Y-8.732
X5.517Y-11.272
X5.83Y-87.072
X5.83Y-89.612
X6.882Y-60.958
X6.882Y-63.498
X6.998Y-34.845
X6.998Y-37.385
X14.883Y-7.472
X14.883Y-10.012
X14.883Y-12.552
X32.77Y-6.177
X32.77Y-8.717
X32.77Y-11.257
X32.77Y-13.797
X32.77Y-32.31
X32.77Y-34.85
X32.77Y-37.39
X32.77Y-39.93
X32.77Y-58.423
X32.77Y-60.963
X32.77Y-63.503
X32.77Y-66.043
X32.77Y-84.537
X32.77Y-87.077
X32.77Y-89.617
X32.77Y-92.157
T4
X-3.97Y-18.147
X-3.97Y-44.26
X-3.97Y-70.373
X-3.97Y-96.487
X-3.96Y-1.857
X-3.96Y-27.97
X-3.96Y-54.083
X-3.96Y-80.197
X32.32Y-1.857
X32.32Y-18.137
X32.32Y-27.97
X32.32Y-44.25
X32.32Y-54.083
X32.32Y-70.363
X32.32Y-80.197
X32.32Y-96.477
T5
X14.64Y-23.053
X14.64Y-49.167
X14.64Y-75.28
T2
G00X-3.31Y-5.677
M15
G01X-4.11Y-5.677
M16
G05
G00X-3.31Y-14.317
M15
G01X-4.11Y-14.317
M16
G05
G00X-3.31Y-31.79
M15
G01X-4.11Y-31.79
M16
G05
G00X-3.31Y-40.43
M15
G01X-4.11Y-40.43
M16
G05
G00X-3.31Y-57.903
M15
G01X-4.11Y-57.903
M16
G05
G00X-3.31Y-66.543
M15
G01X-4.11Y-66.543
M16
G05
G00X-3.31Y-84.017
M15
G01X-4.11Y-84.017
M16
G05
G00X-3.31Y-92.657
M15
G01X-4.11Y-92.657
M16
G05
G00X0.49Y-5.677
M15
G01X-0.31Y-5.677
M16
G05
G00X0.49Y-14.317
M15
G01X-0.31Y-14.317
M16
G05
G00X0.49Y-31.79
M15
G01X-0.31Y-31.79
M16
G05
G00X0.49Y-40.43
M15
G01X-0.31Y-40.43
M16
G05
G00X0.49Y-57.903
M15
G01X-0.31Y-57.903
M16
G05
G00X0.49Y-66.543
M15
G01X-0.31Y-66.543
M16
G05
G00X0.49Y-84.017
M15
G01X-0.31Y-84.017
M16
G05
G00X0.49Y-92.657
M15
G01X-0.31Y-92.657
M16
G05
M30
