%TF.GenerationSoftware,KiCad,Pcbnew,8.0.2*%
%TF.CreationDate,2024-04-29T22:59:26+08:00*%
%TF.ProjectId,UINIO-Power-LDO,55494e49-4f2d-4506-9f77-65722d4c444f,Version 2.0.0*%
%TF.SameCoordinates,PX7c793c0PY34d0820*%
%TF.FileFunction,Legend,Bot*%
%TF.FilePolarity,Positive*%
%FSLAX46Y46*%
G04 Gerber Fmt 4.6, Leading zero omitted, Abs format (unit mm)*
G04 Created by KiCad (PCBNEW 8.0.2) date 2024-04-29 22:59:26*
%MOMM*%
%LPD*%
G01*
G04 APERTURE LIST*
%ADD10C,0.100000*%
%ADD11C,0.150000*%
%ADD12C,2.200000*%
%ADD13O,1.800000X1.000000*%
%ADD14R,1.700000X1.700000*%
%ADD15O,1.700000X1.700000*%
%ADD16C,2.800000*%
G04 APERTURE END LIST*
D10*
X9980000Y-46191666D02*
X19380000Y-46191666D01*
X19380000Y-52141666D01*
X9980000Y-52141666D01*
X9980000Y-46191666D01*
X9980000Y-20078333D02*
X19380000Y-20078333D01*
X19380000Y-26028333D01*
X9980000Y-26028333D01*
X9980000Y-20078333D01*
X9980000Y-72305000D02*
X19380000Y-72305000D01*
X19380000Y-78255000D01*
X9980000Y-78255000D01*
X9980000Y-72305000D01*
D11*
G36*
X19425145Y-3406799D02*
G01*
X18322340Y-3789381D01*
X18322340Y-4228237D01*
X19898000Y-3631893D01*
X19898000Y-3181705D01*
X18322340Y-2584971D01*
X18322340Y-3024217D01*
X19425145Y-3406799D01*
G37*
G36*
X19611145Y-4220841D02*
G01*
X19689160Y-4232999D01*
X19764676Y-4263621D01*
X19828439Y-4312256D01*
X19844921Y-4330151D01*
X19888152Y-4397440D01*
X19913370Y-4476483D01*
X19920665Y-4557671D01*
X19920488Y-4602194D01*
X19919072Y-4693125D01*
X19916238Y-4786573D01*
X19911989Y-4882536D01*
X19906322Y-4981014D01*
X19899239Y-5082009D01*
X19890739Y-5185519D01*
X19883435Y-5264803D01*
X19875334Y-5345501D01*
X19593966Y-5345501D01*
X19601934Y-5241270D01*
X19608840Y-5143512D01*
X19614684Y-5052227D01*
X19619465Y-4967413D01*
X19623947Y-4870498D01*
X19626769Y-4783697D01*
X19627965Y-4692884D01*
X19605690Y-4636611D01*
X19549025Y-4613945D01*
X19459144Y-4613945D01*
X19459144Y-5390833D01*
X19042563Y-5390833D01*
X19011555Y-5389991D01*
X18926279Y-5377369D01*
X18845160Y-5345579D01*
X18778390Y-5295089D01*
X18750808Y-5263386D01*
X18709668Y-5189273D01*
X18688631Y-5110369D01*
X18682647Y-5030526D01*
X18682647Y-4704217D01*
X18964015Y-4704217D01*
X18964015Y-4906646D01*
X18978849Y-4965093D01*
X19053896Y-4996918D01*
X19177776Y-4996918D01*
X19177776Y-4613945D01*
X19053896Y-4613945D01*
X18992454Y-4631224D01*
X18964015Y-4704217D01*
X18682647Y-4704217D01*
X18682647Y-4580337D01*
X18684143Y-4539274D01*
X18698448Y-4455231D01*
X18727901Y-4382749D01*
X18778390Y-4315773D01*
X18809982Y-4288191D01*
X18883926Y-4247051D01*
X18962745Y-4226014D01*
X19042563Y-4220030D01*
X19583024Y-4220030D01*
X19611145Y-4220841D01*
G37*
G36*
X19031230Y-6272061D02*
G01*
X19036578Y-6191556D01*
X19052622Y-6109629D01*
X19079360Y-6026280D01*
X19098837Y-5979360D01*
X19898000Y-5979360D01*
X19898000Y-5585445D01*
X18704922Y-5585445D01*
X18704922Y-5934419D01*
X18851468Y-5956694D01*
X18794095Y-6029999D01*
X18748593Y-6104541D01*
X18714960Y-6180319D01*
X18693198Y-6257333D01*
X18683307Y-6335584D01*
X18682647Y-6361942D01*
X18682647Y-6463156D01*
X19031230Y-6463156D01*
X19031230Y-6272061D01*
G37*
G36*
X19583024Y-6570623D02*
G01*
X19589030Y-6654579D01*
X19594445Y-6735135D01*
X19600747Y-6837252D01*
X19605998Y-6933325D01*
X19610199Y-7023353D01*
X19613350Y-7107336D01*
X19615811Y-7203814D01*
X19616632Y-7290847D01*
X19594357Y-7347120D01*
X19537692Y-7369786D01*
X19459144Y-7369786D01*
X19459144Y-6885599D01*
X19451849Y-6804410D01*
X19426631Y-6725367D01*
X19383400Y-6658078D01*
X19366918Y-6640184D01*
X19303155Y-6591549D01*
X19227638Y-6560927D01*
X19149623Y-6548768D01*
X19121503Y-6547958D01*
X19042563Y-6547958D01*
X18961406Y-6555253D01*
X18882469Y-6580471D01*
X18815364Y-6623702D01*
X18797539Y-6640184D01*
X18748698Y-6703946D01*
X18717946Y-6779463D01*
X18705736Y-6857478D01*
X18704922Y-6885599D01*
X18704922Y-7651154D01*
X18997623Y-7651154D01*
X18997623Y-7020812D01*
X19020288Y-6964147D01*
X19076562Y-6941872D01*
X19132836Y-6964147D01*
X19155110Y-7020812D01*
X19155110Y-7426059D01*
X19162437Y-7507217D01*
X19187762Y-7586153D01*
X19231176Y-7653259D01*
X19247727Y-7671084D01*
X19311284Y-7719925D01*
X19386671Y-7750676D01*
X19464634Y-7762887D01*
X19492752Y-7763701D01*
X19583024Y-7763701D01*
X19664213Y-7756375D01*
X19743256Y-7731050D01*
X19810545Y-7687635D01*
X19828439Y-7671084D01*
X19877074Y-7607527D01*
X19907696Y-7532140D01*
X19919855Y-7454177D01*
X19920665Y-7426059D01*
X19919957Y-7325499D01*
X19917832Y-7223118D01*
X19914290Y-7118918D01*
X19910705Y-7039574D01*
X19906322Y-6959206D01*
X19901143Y-6877815D01*
X19895166Y-6795400D01*
X19888393Y-6711962D01*
X19880823Y-6627500D01*
X19875334Y-6570623D01*
X19583024Y-6570623D01*
G37*
G36*
X18749863Y-8387790D02*
G01*
X19898000Y-8387790D01*
X19898000Y-7993875D01*
X19053896Y-7993875D01*
X19053896Y-7825055D01*
X18749863Y-7825055D01*
X18749863Y-8387790D01*
G37*
G36*
X18299674Y-7993875D02*
G01*
X18299674Y-8387790D01*
X18615041Y-8387790D01*
X18615041Y-7993875D01*
X18299674Y-7993875D01*
G37*
G36*
X19601422Y-8587416D02*
G01*
X19685464Y-8601721D01*
X19757946Y-8631173D01*
X19824922Y-8681663D01*
X19852504Y-8713367D01*
X19893644Y-8787479D01*
X19914681Y-8866384D01*
X19920665Y-8946227D01*
X19920665Y-9464022D01*
X19919824Y-9495030D01*
X19907201Y-9580306D01*
X19875412Y-9661425D01*
X19824922Y-9728195D01*
X19793218Y-9755777D01*
X19719106Y-9796917D01*
X19640201Y-9817954D01*
X19560358Y-9823938D01*
X19042563Y-9823938D01*
X19011555Y-9823096D01*
X18926279Y-9810474D01*
X18845160Y-9778684D01*
X18778390Y-9728195D01*
X18750808Y-9696603D01*
X18709668Y-9622659D01*
X18688631Y-9543840D01*
X18682647Y-9464022D01*
X18682647Y-9070107D01*
X18986290Y-9070107D01*
X18986290Y-9340142D01*
X19003568Y-9401584D01*
X19076562Y-9430023D01*
X19526750Y-9430023D01*
X19584945Y-9415189D01*
X19616632Y-9340142D01*
X19616632Y-9070107D01*
X19601798Y-9011659D01*
X19526750Y-8979835D01*
X19076562Y-8979835D01*
X19014852Y-8997113D01*
X18986290Y-9070107D01*
X18682647Y-9070107D01*
X18682647Y-8946227D01*
X18684143Y-8905164D01*
X18698448Y-8821121D01*
X18727901Y-8748639D01*
X18778390Y-8681663D01*
X18809982Y-8654081D01*
X18883926Y-8612941D01*
X18962745Y-8591904D01*
X19042563Y-8585920D01*
X19560358Y-8585920D01*
X19601422Y-8587416D01*
G37*
G36*
X19008956Y-10682500D02*
G01*
X19014266Y-10596817D01*
X19028310Y-10512431D01*
X19048454Y-10431197D01*
X19053896Y-10412466D01*
X19898000Y-10412466D01*
X19898000Y-10018551D01*
X18704922Y-10018551D01*
X18704922Y-10367525D01*
X18817469Y-10389800D01*
X18774033Y-10463255D01*
X18739371Y-10538003D01*
X18715473Y-10607078D01*
X18695470Y-10685718D01*
X18683801Y-10765102D01*
X18682647Y-10795048D01*
X18682647Y-10896262D01*
X18689942Y-10977608D01*
X18715160Y-11056682D01*
X18758391Y-11123849D01*
X18774873Y-11141677D01*
X18838468Y-11190312D01*
X18913969Y-11220934D01*
X18992101Y-11233092D01*
X19020288Y-11233903D01*
X19898000Y-11233903D01*
X19898000Y-10839988D01*
X19087504Y-10839988D01*
X19031621Y-10817322D01*
X19008956Y-10761440D01*
X19008956Y-10682500D01*
G37*
G36*
X18817469Y-13248809D02*
G01*
X18898757Y-13241048D01*
X18975071Y-13217767D01*
X19046411Y-13178965D01*
X19112777Y-13124642D01*
X19148467Y-13086632D01*
X19199188Y-13024527D01*
X19234050Y-12978383D01*
X19583024Y-12494587D01*
X19583024Y-13248809D01*
X19898000Y-13248809D01*
X19898000Y-12033066D01*
X19470477Y-12033066D01*
X18885076Y-12843561D01*
X18772528Y-12843561D01*
X18695547Y-12827584D01*
X18643786Y-12761034D01*
X18637316Y-12708348D01*
X18637316Y-12078006D01*
X18322340Y-12078006D01*
X18322340Y-12798620D01*
X18326104Y-12882600D01*
X18340012Y-12969116D01*
X18368454Y-13052880D01*
X18410280Y-13120523D01*
X18429416Y-13141733D01*
X18499689Y-13193493D01*
X18579386Y-13225281D01*
X18662424Y-13242117D01*
X18743482Y-13248391D01*
X18772528Y-13248809D01*
X18817469Y-13248809D01*
G37*
G36*
X19560358Y-13376597D02*
G01*
X19560358Y-13781844D01*
X19898000Y-13781844D01*
X19898000Y-13376597D01*
X19560358Y-13376597D01*
G37*
G36*
X19499478Y-13937015D02*
G01*
X19580435Y-13943289D01*
X19663425Y-13960124D01*
X19743158Y-13991912D01*
X19813589Y-14043673D01*
X19832725Y-14064883D01*
X19874551Y-14132526D01*
X19902994Y-14216289D01*
X19916901Y-14302805D01*
X19920665Y-14386785D01*
X19920665Y-14814699D01*
X19920247Y-14843745D01*
X19913973Y-14924803D01*
X19897138Y-15007841D01*
X19865350Y-15087538D01*
X19813589Y-15157811D01*
X19792379Y-15176947D01*
X19724736Y-15218773D01*
X19640973Y-15247215D01*
X19554457Y-15261123D01*
X19470477Y-15264887D01*
X18749863Y-15264887D01*
X18720862Y-15264469D01*
X18639905Y-15258195D01*
X18556915Y-15241360D01*
X18477182Y-15209571D01*
X18406750Y-15157811D01*
X18387615Y-15136667D01*
X18345788Y-15069134D01*
X18317346Y-14985383D01*
X18303439Y-14898798D01*
X18299674Y-14814699D01*
X18299674Y-14477057D01*
X18615041Y-14477057D01*
X18615041Y-14724426D01*
X18621492Y-14777112D01*
X18673104Y-14843662D01*
X18749863Y-14859639D01*
X19470477Y-14859639D01*
X19523010Y-14853169D01*
X19589368Y-14801408D01*
X19605299Y-14724426D01*
X19605299Y-14477057D01*
X19598847Y-14424372D01*
X19547236Y-14357822D01*
X19470477Y-14341844D01*
X18749863Y-14341844D01*
X18697330Y-14348315D01*
X18630972Y-14400076D01*
X18615041Y-14477057D01*
X18299674Y-14477057D01*
X18299674Y-14386785D01*
X18300093Y-14357784D01*
X18306367Y-14276827D01*
X18323202Y-14193837D01*
X18354990Y-14114104D01*
X18406750Y-14043673D01*
X18427961Y-14024537D01*
X18495604Y-13982711D01*
X18579367Y-13954268D01*
X18665883Y-13940361D01*
X18749863Y-13936597D01*
X19470477Y-13936597D01*
X19499478Y-13937015D01*
G37*
G36*
X19560358Y-15414950D02*
G01*
X19560358Y-15820198D01*
X19898000Y-15820198D01*
X19898000Y-15414950D01*
X19560358Y-15414950D01*
G37*
G36*
X19499478Y-15975368D02*
G01*
X19580435Y-15981642D01*
X19663425Y-15998477D01*
X19743158Y-16030265D01*
X19813589Y-16082026D01*
X19832725Y-16103236D01*
X19874551Y-16170879D01*
X19902994Y-16254642D01*
X19916901Y-16341158D01*
X19920665Y-16425138D01*
X19920665Y-16853052D01*
X19920247Y-16882098D01*
X19913973Y-16963156D01*
X19897138Y-17046194D01*
X19865350Y-17125891D01*
X19813589Y-17196164D01*
X19792379Y-17215300D01*
X19724736Y-17257126D01*
X19640973Y-17285568D01*
X19554457Y-17299476D01*
X19470477Y-17303240D01*
X18749863Y-17303240D01*
X18720862Y-17302822D01*
X18639905Y-17296548D01*
X18556915Y-17279713D01*
X18477182Y-17247924D01*
X18406750Y-17196164D01*
X18387615Y-17175020D01*
X18345788Y-17107487D01*
X18317346Y-17023736D01*
X18303439Y-16937151D01*
X18299674Y-16853052D01*
X18299674Y-16515410D01*
X18615041Y-16515410D01*
X18615041Y-16762780D01*
X18621492Y-16815465D01*
X18673104Y-16882015D01*
X18749863Y-16897992D01*
X19470477Y-16897992D01*
X19523010Y-16891522D01*
X19589368Y-16839761D01*
X19605299Y-16762780D01*
X19605299Y-16515410D01*
X19598847Y-16462725D01*
X19547236Y-16396175D01*
X19470477Y-16380198D01*
X18749863Y-16380198D01*
X18697330Y-16386668D01*
X18630972Y-16438429D01*
X18615041Y-16515410D01*
X18299674Y-16515410D01*
X18299674Y-16425138D01*
X18300093Y-16396137D01*
X18306367Y-16315180D01*
X18323202Y-16232190D01*
X18354990Y-16152457D01*
X18406750Y-16082026D01*
X18427961Y-16062890D01*
X18495604Y-16021064D01*
X18579367Y-15992622D01*
X18665883Y-15978714D01*
X18749863Y-15974950D01*
X19470477Y-15974950D01*
X19499478Y-15975368D01*
G37*
G36*
X8943032Y-2704797D02*
G01*
X8943032Y-3337386D01*
X10736995Y-3337386D01*
X10868214Y-3331504D01*
X11003395Y-3309774D01*
X11134275Y-3265333D01*
X11239967Y-3199979D01*
X11273108Y-3170080D01*
X11353984Y-3060278D01*
X11403653Y-2935752D01*
X11429958Y-2806005D01*
X11439761Y-2679352D01*
X11440415Y-2633967D01*
X11440415Y-1825523D01*
X11434533Y-1694097D01*
X11412803Y-1558728D01*
X11368362Y-1427705D01*
X11303008Y-1321946D01*
X11273108Y-1288799D01*
X11163060Y-1208219D01*
X11038477Y-1158731D01*
X10908805Y-1132522D01*
X10782309Y-1122755D01*
X10736995Y-1122104D01*
X8943032Y-1122104D01*
X8943032Y-1754693D01*
X10736995Y-1754693D01*
X10856931Y-1779657D01*
X10937574Y-1883642D01*
X10947655Y-1965963D01*
X10947655Y-2493527D01*
X10922762Y-2613811D01*
X10819078Y-2694688D01*
X10736995Y-2704797D01*
X8943032Y-2704797D01*
G37*
G36*
X9611036Y-4483496D02*
G01*
X11405000Y-4483496D01*
X11405000Y-3868004D01*
X10086088Y-3868004D01*
X10086088Y-3604221D01*
X9611036Y-3604221D01*
X9611036Y-4483496D01*
G37*
G36*
X8907616Y-3868004D02*
G01*
X8907616Y-4483496D01*
X9400376Y-4483496D01*
X9400376Y-3868004D01*
X8907616Y-3868004D01*
G37*
G36*
X10015868Y-5865910D02*
G01*
X10024166Y-5732029D01*
X10046109Y-5600176D01*
X10077585Y-5473249D01*
X10086088Y-5443981D01*
X11405000Y-5443981D01*
X11405000Y-4828489D01*
X9540816Y-4828489D01*
X9540816Y-5373761D01*
X9716671Y-5408566D01*
X9648802Y-5523339D01*
X9594642Y-5640134D01*
X9557302Y-5748063D01*
X9526047Y-5870938D01*
X9507815Y-5994975D01*
X9506011Y-6041765D01*
X9506011Y-6199912D01*
X9517410Y-6327016D01*
X9556813Y-6450569D01*
X9624362Y-6555517D01*
X9650115Y-6583374D01*
X9749481Y-6659366D01*
X9867453Y-6707212D01*
X9989533Y-6726210D01*
X10033576Y-6727477D01*
X11405000Y-6727477D01*
X11405000Y-6111985D01*
X10138600Y-6111985D01*
X10051284Y-6076570D01*
X10015868Y-5989253D01*
X10015868Y-5865910D01*
G37*
G36*
X11405000Y-8227128D02*
G01*
X11405000Y-6961339D01*
X10912850Y-6961339D01*
X10912850Y-7277634D01*
X9435181Y-7277634D01*
X9435181Y-6961339D01*
X8943032Y-6961339D01*
X8943032Y-8227128D01*
X9435181Y-8227128D01*
X9435181Y-7910834D01*
X10912850Y-7910834D01*
X10912850Y-8227128D01*
X11405000Y-8227128D01*
G37*
G36*
X10782309Y-8464697D02*
G01*
X10908805Y-8474500D01*
X11038477Y-8500805D01*
X11163060Y-8550474D01*
X11273108Y-8631350D01*
X11303008Y-8664491D01*
X11368362Y-8770183D01*
X11412803Y-8901063D01*
X11434533Y-9036244D01*
X11440415Y-9167463D01*
X11440415Y-10046737D01*
X11439761Y-10092122D01*
X11429958Y-10218776D01*
X11403653Y-10348523D01*
X11353984Y-10473048D01*
X11273108Y-10582850D01*
X11239967Y-10612750D01*
X11134275Y-10678104D01*
X11003395Y-10722545D01*
X10868214Y-10744275D01*
X10736995Y-10750157D01*
X9611036Y-10750157D01*
X9565722Y-10749503D01*
X9439226Y-10739700D01*
X9309554Y-10713395D01*
X9184972Y-10663726D01*
X9074923Y-10582850D01*
X9045023Y-10549813D01*
X8979669Y-10444293D01*
X8935228Y-10313432D01*
X8913498Y-10178142D01*
X8907616Y-10046737D01*
X8907616Y-9308513D01*
X9400376Y-9308513D01*
X9400376Y-9906298D01*
X9410457Y-9988619D01*
X9491100Y-10092603D01*
X9611036Y-10117568D01*
X10736995Y-10117568D01*
X10819078Y-10107458D01*
X10922762Y-10026581D01*
X10947655Y-9906298D01*
X10947655Y-9308513D01*
X10937574Y-9226192D01*
X10856931Y-9122208D01*
X10736995Y-9097243D01*
X9611036Y-9097243D01*
X9528953Y-9107353D01*
X9425269Y-9188230D01*
X9400376Y-9308513D01*
X8907616Y-9308513D01*
X8907616Y-9167463D01*
X8908270Y-9122149D01*
X8918073Y-8995653D01*
X8944378Y-8865982D01*
X8994047Y-8741399D01*
X9074923Y-8631350D01*
X9108064Y-8601450D01*
X9213756Y-8536096D01*
X9344636Y-8491656D01*
X9479817Y-8469925D01*
X9611036Y-8464044D01*
X10736995Y-8464044D01*
X10782309Y-8464697D01*
G37*
G36*
X10877435Y-10984019D02*
G01*
X10877435Y-11617219D01*
X11405000Y-11617219D01*
X11405000Y-10984019D01*
X10877435Y-10984019D01*
G37*
G36*
X11369584Y-13547348D02*
G01*
X11382242Y-13425401D01*
X11397183Y-13267030D01*
X11409911Y-13113486D01*
X11420424Y-12964770D01*
X11428725Y-12820881D01*
X11434812Y-12681820D01*
X11438685Y-12547587D01*
X11440346Y-12418181D01*
X11440415Y-12386584D01*
X11429016Y-12259726D01*
X11389613Y-12136222D01*
X11322064Y-12031083D01*
X11296311Y-12003122D01*
X11196682Y-11927130D01*
X11078687Y-11879284D01*
X10956789Y-11860286D01*
X10912850Y-11859019D01*
X10103796Y-11859019D01*
X9979041Y-11868369D01*
X9855753Y-11901240D01*
X9739952Y-11965521D01*
X9690415Y-12008618D01*
X9611525Y-12113268D01*
X9565506Y-12226521D01*
X9543153Y-12357837D01*
X9540816Y-12421999D01*
X9540816Y-13547348D01*
X10015868Y-13547348D01*
X10015868Y-12615561D01*
X10060304Y-12501509D01*
X10156308Y-12474511D01*
X10842020Y-12474511D01*
X10930558Y-12509926D01*
X10965362Y-12597854D01*
X10963516Y-12727605D01*
X10959157Y-12852753D01*
X10952234Y-12993374D01*
X10944850Y-13117013D01*
X10935824Y-13250555D01*
X10925158Y-13394000D01*
X10912850Y-13547348D01*
X11369584Y-13547348D01*
G37*
G36*
X10941596Y-13785990D02*
G01*
X11072913Y-13808342D01*
X11186166Y-13854362D01*
X11290816Y-13933252D01*
X11333913Y-13982789D01*
X11398194Y-14098589D01*
X11431065Y-14221878D01*
X11440415Y-14346633D01*
X11440415Y-15155687D01*
X11439100Y-15204137D01*
X11419377Y-15337381D01*
X11369706Y-15464129D01*
X11290816Y-15568457D01*
X11241279Y-15611555D01*
X11125478Y-15675835D01*
X11002190Y-15708706D01*
X10877435Y-15718056D01*
X10068381Y-15718056D01*
X10019930Y-15716741D01*
X9886687Y-15697019D01*
X9759938Y-15647347D01*
X9655610Y-15568457D01*
X9612513Y-15519096D01*
X9548232Y-15403558D01*
X9515361Y-15280403D01*
X9506011Y-15155687D01*
X9506011Y-14540195D01*
X9980453Y-14540195D01*
X9980453Y-14962124D01*
X10007451Y-15058128D01*
X10121503Y-15102564D01*
X10824923Y-15102564D01*
X10915852Y-15079386D01*
X10965362Y-14962124D01*
X10965362Y-14540195D01*
X10942184Y-14448870D01*
X10824923Y-14399145D01*
X10121503Y-14399145D01*
X10025082Y-14426143D01*
X9980453Y-14540195D01*
X9506011Y-14540195D01*
X9506011Y-14346633D01*
X9508349Y-14282471D01*
X9530701Y-14151154D01*
X9576720Y-14037901D01*
X9655610Y-13933252D01*
X9704971Y-13890154D01*
X9820510Y-13825873D01*
X9943664Y-13793003D01*
X10068381Y-13783653D01*
X10877435Y-13783653D01*
X10941596Y-13785990D01*
G37*
G36*
X9506011Y-17270830D02*
G01*
X9519178Y-17405011D01*
X9558676Y-17523011D01*
X9634588Y-17636419D01*
X9716671Y-17710467D01*
X9648802Y-17824815D01*
X9594642Y-17945367D01*
X9557302Y-18060345D01*
X9528101Y-18184879D01*
X9510069Y-18309872D01*
X9506011Y-18396179D01*
X9506011Y-18431594D01*
X9517410Y-18558403D01*
X9556813Y-18681741D01*
X9624362Y-18786594D01*
X9650115Y-18814445D01*
X9749481Y-18890759D01*
X9867453Y-18938808D01*
X9989533Y-18957887D01*
X10033576Y-18959159D01*
X11405000Y-18959159D01*
X11405000Y-18343667D01*
X10138600Y-18343667D01*
X10051284Y-18308252D01*
X10015868Y-18220324D01*
X10015868Y-18202616D01*
X10025743Y-18071641D01*
X10049058Y-17943605D01*
X10081768Y-17813688D01*
X10086088Y-17798395D01*
X11405000Y-17798395D01*
X11405000Y-17182903D01*
X10138600Y-17182903D01*
X10051284Y-17147487D01*
X10015868Y-17059560D01*
X10015868Y-17041852D01*
X10025743Y-16910877D01*
X10049058Y-16782840D01*
X10081768Y-16652924D01*
X10086088Y-16637630D01*
X11405000Y-16637630D01*
X11405000Y-16022138D01*
X9540816Y-16022138D01*
X9540816Y-16567411D01*
X9716671Y-16602215D01*
X9648802Y-16716989D01*
X9594642Y-16833783D01*
X9557302Y-16941713D01*
X9526047Y-17064588D01*
X9507815Y-17188625D01*
X9506011Y-17235415D01*
X9506011Y-17270830D01*
G37*
G36*
X8943032Y-81044797D02*
G01*
X8943032Y-81677386D01*
X10736995Y-81677386D01*
X10868214Y-81671504D01*
X11003395Y-81649774D01*
X11134275Y-81605333D01*
X11239967Y-81539979D01*
X11273108Y-81510080D01*
X11353984Y-81400278D01*
X11403653Y-81275752D01*
X11429958Y-81146005D01*
X11439761Y-81019352D01*
X11440415Y-80973967D01*
X11440415Y-80165523D01*
X11434533Y-80034097D01*
X11412803Y-79898728D01*
X11368362Y-79767705D01*
X11303008Y-79661946D01*
X11273108Y-79628799D01*
X11163060Y-79548219D01*
X11038477Y-79498731D01*
X10908805Y-79472522D01*
X10782309Y-79462755D01*
X10736995Y-79462104D01*
X8943032Y-79462104D01*
X8943032Y-80094693D01*
X10736995Y-80094693D01*
X10856931Y-80119657D01*
X10937574Y-80223642D01*
X10947655Y-80305963D01*
X10947655Y-80833527D01*
X10922762Y-80953811D01*
X10819078Y-81034688D01*
X10736995Y-81044797D01*
X8943032Y-81044797D01*
G37*
G36*
X9611036Y-82823496D02*
G01*
X11405000Y-82823496D01*
X11405000Y-82208004D01*
X10086088Y-82208004D01*
X10086088Y-81944221D01*
X9611036Y-81944221D01*
X9611036Y-82823496D01*
G37*
G36*
X8907616Y-82208004D02*
G01*
X8907616Y-82823496D01*
X9400376Y-82823496D01*
X9400376Y-82208004D01*
X8907616Y-82208004D01*
G37*
G36*
X10015868Y-84205910D02*
G01*
X10024166Y-84072029D01*
X10046109Y-83940176D01*
X10077585Y-83813249D01*
X10086088Y-83783981D01*
X11405000Y-83783981D01*
X11405000Y-83168489D01*
X9540816Y-83168489D01*
X9540816Y-83713761D01*
X9716671Y-83748566D01*
X9648802Y-83863339D01*
X9594642Y-83980134D01*
X9557302Y-84088063D01*
X9526047Y-84210938D01*
X9507815Y-84334975D01*
X9506011Y-84381765D01*
X9506011Y-84539912D01*
X9517410Y-84667016D01*
X9556813Y-84790569D01*
X9624362Y-84895517D01*
X9650115Y-84923374D01*
X9749481Y-84999366D01*
X9867453Y-85047212D01*
X9989533Y-85066210D01*
X10033576Y-85067477D01*
X11405000Y-85067477D01*
X11405000Y-84451985D01*
X10138600Y-84451985D01*
X10051284Y-84416570D01*
X10015868Y-84329253D01*
X10015868Y-84205910D01*
G37*
G36*
X11405000Y-86567128D02*
G01*
X11405000Y-85301339D01*
X10912850Y-85301339D01*
X10912850Y-85617634D01*
X9435181Y-85617634D01*
X9435181Y-85301339D01*
X8943032Y-85301339D01*
X8943032Y-86567128D01*
X9435181Y-86567128D01*
X9435181Y-86250834D01*
X10912850Y-86250834D01*
X10912850Y-86567128D01*
X11405000Y-86567128D01*
G37*
G36*
X10782309Y-86804697D02*
G01*
X10908805Y-86814500D01*
X11038477Y-86840805D01*
X11163060Y-86890474D01*
X11273108Y-86971350D01*
X11303008Y-87004491D01*
X11368362Y-87110183D01*
X11412803Y-87241063D01*
X11434533Y-87376244D01*
X11440415Y-87507463D01*
X11440415Y-88386737D01*
X11439761Y-88432122D01*
X11429958Y-88558776D01*
X11403653Y-88688523D01*
X11353984Y-88813048D01*
X11273108Y-88922850D01*
X11239967Y-88952750D01*
X11134275Y-89018104D01*
X11003395Y-89062545D01*
X10868214Y-89084275D01*
X10736995Y-89090157D01*
X9611036Y-89090157D01*
X9565722Y-89089503D01*
X9439226Y-89079700D01*
X9309554Y-89053395D01*
X9184972Y-89003726D01*
X9074923Y-88922850D01*
X9045023Y-88889813D01*
X8979669Y-88784293D01*
X8935228Y-88653432D01*
X8913498Y-88518142D01*
X8907616Y-88386737D01*
X8907616Y-87648513D01*
X9400376Y-87648513D01*
X9400376Y-88246298D01*
X9410457Y-88328619D01*
X9491100Y-88432603D01*
X9611036Y-88457568D01*
X10736995Y-88457568D01*
X10819078Y-88447458D01*
X10922762Y-88366581D01*
X10947655Y-88246298D01*
X10947655Y-87648513D01*
X10937574Y-87566192D01*
X10856931Y-87462208D01*
X10736995Y-87437243D01*
X9611036Y-87437243D01*
X9528953Y-87447353D01*
X9425269Y-87528230D01*
X9400376Y-87648513D01*
X8907616Y-87648513D01*
X8907616Y-87507463D01*
X8908270Y-87462149D01*
X8918073Y-87335653D01*
X8944378Y-87205982D01*
X8994047Y-87081399D01*
X9074923Y-86971350D01*
X9108064Y-86941450D01*
X9213756Y-86876096D01*
X9344636Y-86831656D01*
X9479817Y-86809925D01*
X9611036Y-86804044D01*
X10736995Y-86804044D01*
X10782309Y-86804697D01*
G37*
G36*
X10877435Y-89324019D02*
G01*
X10877435Y-89957219D01*
X11405000Y-89957219D01*
X11405000Y-89324019D01*
X10877435Y-89324019D01*
G37*
G36*
X11369584Y-91887348D02*
G01*
X11382242Y-91765401D01*
X11397183Y-91607030D01*
X11409911Y-91453486D01*
X11420424Y-91304770D01*
X11428725Y-91160881D01*
X11434812Y-91021820D01*
X11438685Y-90887587D01*
X11440346Y-90758181D01*
X11440415Y-90726584D01*
X11429016Y-90599726D01*
X11389613Y-90476222D01*
X11322064Y-90371083D01*
X11296311Y-90343122D01*
X11196682Y-90267130D01*
X11078687Y-90219284D01*
X10956789Y-90200286D01*
X10912850Y-90199019D01*
X10103796Y-90199019D01*
X9979041Y-90208369D01*
X9855753Y-90241240D01*
X9739952Y-90305521D01*
X9690415Y-90348618D01*
X9611525Y-90453268D01*
X9565506Y-90566521D01*
X9543153Y-90697837D01*
X9540816Y-90761999D01*
X9540816Y-91887348D01*
X10015868Y-91887348D01*
X10015868Y-90955561D01*
X10060304Y-90841509D01*
X10156308Y-90814511D01*
X10842020Y-90814511D01*
X10930558Y-90849926D01*
X10965362Y-90937854D01*
X10963516Y-91067605D01*
X10959157Y-91192753D01*
X10952234Y-91333374D01*
X10944850Y-91457013D01*
X10935824Y-91590555D01*
X10925158Y-91734000D01*
X10912850Y-91887348D01*
X11369584Y-91887348D01*
G37*
G36*
X10941596Y-92125990D02*
G01*
X11072913Y-92148342D01*
X11186166Y-92194362D01*
X11290816Y-92273252D01*
X11333913Y-92322789D01*
X11398194Y-92438589D01*
X11431065Y-92561878D01*
X11440415Y-92686633D01*
X11440415Y-93495687D01*
X11439100Y-93544137D01*
X11419377Y-93677381D01*
X11369706Y-93804129D01*
X11290816Y-93908457D01*
X11241279Y-93951555D01*
X11125478Y-94015835D01*
X11002190Y-94048706D01*
X10877435Y-94058056D01*
X10068381Y-94058056D01*
X10019930Y-94056741D01*
X9886687Y-94037019D01*
X9759938Y-93987347D01*
X9655610Y-93908457D01*
X9612513Y-93859096D01*
X9548232Y-93743558D01*
X9515361Y-93620403D01*
X9506011Y-93495687D01*
X9506011Y-92880195D01*
X9980453Y-92880195D01*
X9980453Y-93302124D01*
X10007451Y-93398128D01*
X10121503Y-93442564D01*
X10824923Y-93442564D01*
X10915852Y-93419386D01*
X10965362Y-93302124D01*
X10965362Y-92880195D01*
X10942184Y-92788870D01*
X10824923Y-92739145D01*
X10121503Y-92739145D01*
X10025082Y-92766143D01*
X9980453Y-92880195D01*
X9506011Y-92880195D01*
X9506011Y-92686633D01*
X9508349Y-92622471D01*
X9530701Y-92491154D01*
X9576720Y-92377901D01*
X9655610Y-92273252D01*
X9704971Y-92230154D01*
X9820510Y-92165873D01*
X9943664Y-92133003D01*
X10068381Y-92123653D01*
X10877435Y-92123653D01*
X10941596Y-92125990D01*
G37*
G36*
X9506011Y-95610830D02*
G01*
X9519178Y-95745011D01*
X9558676Y-95863011D01*
X9634588Y-95976419D01*
X9716671Y-96050467D01*
X9648802Y-96164815D01*
X9594642Y-96285367D01*
X9557302Y-96400345D01*
X9528101Y-96524879D01*
X9510069Y-96649872D01*
X9506011Y-96736179D01*
X9506011Y-96771594D01*
X9517410Y-96898403D01*
X9556813Y-97021741D01*
X9624362Y-97126594D01*
X9650115Y-97154445D01*
X9749481Y-97230759D01*
X9867453Y-97278808D01*
X9989533Y-97297887D01*
X10033576Y-97299159D01*
X11405000Y-97299159D01*
X11405000Y-96683667D01*
X10138600Y-96683667D01*
X10051284Y-96648252D01*
X10015868Y-96560324D01*
X10015868Y-96542616D01*
X10025743Y-96411641D01*
X10049058Y-96283605D01*
X10081768Y-96153688D01*
X10086088Y-96138395D01*
X11405000Y-96138395D01*
X11405000Y-95522903D01*
X10138600Y-95522903D01*
X10051284Y-95487487D01*
X10015868Y-95399560D01*
X10015868Y-95381852D01*
X10025743Y-95250877D01*
X10049058Y-95122840D01*
X10081768Y-94992924D01*
X10086088Y-94977630D01*
X11405000Y-94977630D01*
X11405000Y-94362138D01*
X9540816Y-94362138D01*
X9540816Y-94907411D01*
X9716671Y-94942215D01*
X9648802Y-95056989D01*
X9594642Y-95173783D01*
X9557302Y-95281713D01*
X9526047Y-95404588D01*
X9507815Y-95528625D01*
X9506011Y-95575415D01*
X9506011Y-95610830D01*
G37*
G36*
X19425145Y-55633465D02*
G01*
X18322340Y-56016047D01*
X18322340Y-56454903D01*
X19898000Y-55858559D01*
X19898000Y-55408371D01*
X18322340Y-54811637D01*
X18322340Y-55250883D01*
X19425145Y-55633465D01*
G37*
G36*
X19611145Y-56447507D02*
G01*
X19689160Y-56459665D01*
X19764676Y-56490287D01*
X19828439Y-56538922D01*
X19844921Y-56556817D01*
X19888152Y-56624106D01*
X19913370Y-56703149D01*
X19920665Y-56784337D01*
X19920488Y-56828860D01*
X19919072Y-56919791D01*
X19916238Y-57013239D01*
X19911989Y-57109202D01*
X19906322Y-57207680D01*
X19899239Y-57308675D01*
X19890739Y-57412185D01*
X19883435Y-57491469D01*
X19875334Y-57572167D01*
X19593966Y-57572167D01*
X19601934Y-57467936D01*
X19608840Y-57370178D01*
X19614684Y-57278893D01*
X19619465Y-57194079D01*
X19623947Y-57097164D01*
X19626769Y-57010363D01*
X19627965Y-56919550D01*
X19605690Y-56863277D01*
X19549025Y-56840611D01*
X19459144Y-56840611D01*
X19459144Y-57617499D01*
X19042563Y-57617499D01*
X19011555Y-57616657D01*
X18926279Y-57604035D01*
X18845160Y-57572245D01*
X18778390Y-57521755D01*
X18750808Y-57490052D01*
X18709668Y-57415939D01*
X18688631Y-57337035D01*
X18682647Y-57257192D01*
X18682647Y-56930883D01*
X18964015Y-56930883D01*
X18964015Y-57133312D01*
X18978849Y-57191759D01*
X19053896Y-57223584D01*
X19177776Y-57223584D01*
X19177776Y-56840611D01*
X19053896Y-56840611D01*
X18992454Y-56857890D01*
X18964015Y-56930883D01*
X18682647Y-56930883D01*
X18682647Y-56807003D01*
X18684143Y-56765940D01*
X18698448Y-56681897D01*
X18727901Y-56609415D01*
X18778390Y-56542439D01*
X18809982Y-56514857D01*
X18883926Y-56473717D01*
X18962745Y-56452680D01*
X19042563Y-56446696D01*
X19583024Y-56446696D01*
X19611145Y-56447507D01*
G37*
G36*
X19031230Y-58498727D02*
G01*
X19036578Y-58418222D01*
X19052622Y-58336295D01*
X19079360Y-58252946D01*
X19098837Y-58206026D01*
X19898000Y-58206026D01*
X19898000Y-57812111D01*
X18704922Y-57812111D01*
X18704922Y-58161085D01*
X18851468Y-58183360D01*
X18794095Y-58256665D01*
X18748593Y-58331207D01*
X18714960Y-58406985D01*
X18693198Y-58483999D01*
X18683307Y-58562250D01*
X18682647Y-58588608D01*
X18682647Y-58689822D01*
X19031230Y-58689822D01*
X19031230Y-58498727D01*
G37*
G36*
X19583024Y-58797289D02*
G01*
X19589030Y-58881245D01*
X19594445Y-58961801D01*
X19600747Y-59063918D01*
X19605998Y-59159991D01*
X19610199Y-59250019D01*
X19613350Y-59334002D01*
X19615811Y-59430480D01*
X19616632Y-59517513D01*
X19594357Y-59573786D01*
X19537692Y-59596452D01*
X19459144Y-59596452D01*
X19459144Y-59112265D01*
X19451849Y-59031076D01*
X19426631Y-58952033D01*
X19383400Y-58884744D01*
X19366918Y-58866850D01*
X19303155Y-58818215D01*
X19227638Y-58787593D01*
X19149623Y-58775434D01*
X19121503Y-58774624D01*
X19042563Y-58774624D01*
X18961406Y-58781919D01*
X18882469Y-58807137D01*
X18815364Y-58850368D01*
X18797539Y-58866850D01*
X18748698Y-58930612D01*
X18717946Y-59006129D01*
X18705736Y-59084144D01*
X18704922Y-59112265D01*
X18704922Y-59877820D01*
X18997623Y-59877820D01*
X18997623Y-59247478D01*
X19020288Y-59190813D01*
X19076562Y-59168538D01*
X19132836Y-59190813D01*
X19155110Y-59247478D01*
X19155110Y-59652725D01*
X19162437Y-59733883D01*
X19187762Y-59812819D01*
X19231176Y-59879925D01*
X19247727Y-59897750D01*
X19311284Y-59946591D01*
X19386671Y-59977342D01*
X19464634Y-59989553D01*
X19492752Y-59990367D01*
X19583024Y-59990367D01*
X19664213Y-59983041D01*
X19743256Y-59957716D01*
X19810545Y-59914301D01*
X19828439Y-59897750D01*
X19877074Y-59834193D01*
X19907696Y-59758806D01*
X19919855Y-59680843D01*
X19920665Y-59652725D01*
X19919957Y-59552165D01*
X19917832Y-59449784D01*
X19914290Y-59345584D01*
X19910705Y-59266240D01*
X19906322Y-59185872D01*
X19901143Y-59104481D01*
X19895166Y-59022066D01*
X19888393Y-58938628D01*
X19880823Y-58854166D01*
X19875334Y-58797289D01*
X19583024Y-58797289D01*
G37*
G36*
X18749863Y-60614456D02*
G01*
X19898000Y-60614456D01*
X19898000Y-60220541D01*
X19053896Y-60220541D01*
X19053896Y-60051721D01*
X18749863Y-60051721D01*
X18749863Y-60614456D01*
G37*
G36*
X18299674Y-60220541D02*
G01*
X18299674Y-60614456D01*
X18615041Y-60614456D01*
X18615041Y-60220541D01*
X18299674Y-60220541D01*
G37*
G36*
X19601422Y-60814082D02*
G01*
X19685464Y-60828387D01*
X19757946Y-60857839D01*
X19824922Y-60908329D01*
X19852504Y-60940033D01*
X19893644Y-61014145D01*
X19914681Y-61093050D01*
X19920665Y-61172893D01*
X19920665Y-61690688D01*
X19919824Y-61721696D01*
X19907201Y-61806972D01*
X19875412Y-61888091D01*
X19824922Y-61954861D01*
X19793218Y-61982443D01*
X19719106Y-62023583D01*
X19640201Y-62044620D01*
X19560358Y-62050604D01*
X19042563Y-62050604D01*
X19011555Y-62049762D01*
X18926279Y-62037140D01*
X18845160Y-62005350D01*
X18778390Y-61954861D01*
X18750808Y-61923269D01*
X18709668Y-61849325D01*
X18688631Y-61770506D01*
X18682647Y-61690688D01*
X18682647Y-61296773D01*
X18986290Y-61296773D01*
X18986290Y-61566808D01*
X19003568Y-61628250D01*
X19076562Y-61656689D01*
X19526750Y-61656689D01*
X19584945Y-61641855D01*
X19616632Y-61566808D01*
X19616632Y-61296773D01*
X19601798Y-61238325D01*
X19526750Y-61206501D01*
X19076562Y-61206501D01*
X19014852Y-61223779D01*
X18986290Y-61296773D01*
X18682647Y-61296773D01*
X18682647Y-61172893D01*
X18684143Y-61131830D01*
X18698448Y-61047787D01*
X18727901Y-60975305D01*
X18778390Y-60908329D01*
X18809982Y-60880747D01*
X18883926Y-60839607D01*
X18962745Y-60818570D01*
X19042563Y-60812586D01*
X19560358Y-60812586D01*
X19601422Y-60814082D01*
G37*
G36*
X19008956Y-62909166D02*
G01*
X19014266Y-62823483D01*
X19028310Y-62739097D01*
X19048454Y-62657863D01*
X19053896Y-62639132D01*
X19898000Y-62639132D01*
X19898000Y-62245217D01*
X18704922Y-62245217D01*
X18704922Y-62594191D01*
X18817469Y-62616466D01*
X18774033Y-62689921D01*
X18739371Y-62764669D01*
X18715473Y-62833744D01*
X18695470Y-62912384D01*
X18683801Y-62991768D01*
X18682647Y-63021714D01*
X18682647Y-63122928D01*
X18689942Y-63204274D01*
X18715160Y-63283348D01*
X18758391Y-63350515D01*
X18774873Y-63368343D01*
X18838468Y-63416978D01*
X18913969Y-63447600D01*
X18992101Y-63459758D01*
X19020288Y-63460569D01*
X19898000Y-63460569D01*
X19898000Y-63066654D01*
X19087504Y-63066654D01*
X19031621Y-63043988D01*
X19008956Y-62988106D01*
X19008956Y-62909166D01*
G37*
G36*
X18817469Y-65475475D02*
G01*
X18898757Y-65467714D01*
X18975071Y-65444433D01*
X19046411Y-65405631D01*
X19112777Y-65351308D01*
X19148467Y-65313298D01*
X19199188Y-65251193D01*
X19234050Y-65205049D01*
X19583024Y-64721253D01*
X19583024Y-65475475D01*
X19898000Y-65475475D01*
X19898000Y-64259732D01*
X19470477Y-64259732D01*
X18885076Y-65070227D01*
X18772528Y-65070227D01*
X18695547Y-65054250D01*
X18643786Y-64987700D01*
X18637316Y-64935014D01*
X18637316Y-64304672D01*
X18322340Y-64304672D01*
X18322340Y-65025286D01*
X18326104Y-65109266D01*
X18340012Y-65195782D01*
X18368454Y-65279546D01*
X18410280Y-65347189D01*
X18429416Y-65368399D01*
X18499689Y-65420159D01*
X18579386Y-65451947D01*
X18662424Y-65468783D01*
X18743482Y-65475057D01*
X18772528Y-65475475D01*
X18817469Y-65475475D01*
G37*
G36*
X19560358Y-65603263D02*
G01*
X19560358Y-66008510D01*
X19898000Y-66008510D01*
X19898000Y-65603263D01*
X19560358Y-65603263D01*
G37*
G36*
X19499478Y-66163681D02*
G01*
X19580435Y-66169955D01*
X19663425Y-66186790D01*
X19743158Y-66218578D01*
X19813589Y-66270339D01*
X19832725Y-66291549D01*
X19874551Y-66359192D01*
X19902994Y-66442955D01*
X19916901Y-66529471D01*
X19920665Y-66613451D01*
X19920665Y-67041365D01*
X19920247Y-67070411D01*
X19913973Y-67151469D01*
X19897138Y-67234507D01*
X19865350Y-67314204D01*
X19813589Y-67384477D01*
X19792379Y-67403613D01*
X19724736Y-67445439D01*
X19640973Y-67473881D01*
X19554457Y-67487789D01*
X19470477Y-67491553D01*
X18749863Y-67491553D01*
X18720862Y-67491135D01*
X18639905Y-67484861D01*
X18556915Y-67468026D01*
X18477182Y-67436237D01*
X18406750Y-67384477D01*
X18387615Y-67363333D01*
X18345788Y-67295800D01*
X18317346Y-67212049D01*
X18303439Y-67125464D01*
X18299674Y-67041365D01*
X18299674Y-66703723D01*
X18615041Y-66703723D01*
X18615041Y-66951092D01*
X18621492Y-67003778D01*
X18673104Y-67070328D01*
X18749863Y-67086305D01*
X19470477Y-67086305D01*
X19523010Y-67079835D01*
X19589368Y-67028074D01*
X19605299Y-66951092D01*
X19605299Y-66703723D01*
X19598847Y-66651038D01*
X19547236Y-66584488D01*
X19470477Y-66568510D01*
X18749863Y-66568510D01*
X18697330Y-66574981D01*
X18630972Y-66626742D01*
X18615041Y-66703723D01*
X18299674Y-66703723D01*
X18299674Y-66613451D01*
X18300093Y-66584450D01*
X18306367Y-66503493D01*
X18323202Y-66420503D01*
X18354990Y-66340770D01*
X18406750Y-66270339D01*
X18427961Y-66251203D01*
X18495604Y-66209377D01*
X18579367Y-66180934D01*
X18665883Y-66167027D01*
X18749863Y-66163263D01*
X19470477Y-66163263D01*
X19499478Y-66163681D01*
G37*
G36*
X19560358Y-67641616D02*
G01*
X19560358Y-68046864D01*
X19898000Y-68046864D01*
X19898000Y-67641616D01*
X19560358Y-67641616D01*
G37*
G36*
X19499478Y-68202034D02*
G01*
X19580435Y-68208308D01*
X19663425Y-68225143D01*
X19743158Y-68256931D01*
X19813589Y-68308692D01*
X19832725Y-68329902D01*
X19874551Y-68397545D01*
X19902994Y-68481308D01*
X19916901Y-68567824D01*
X19920665Y-68651804D01*
X19920665Y-69079718D01*
X19920247Y-69108764D01*
X19913973Y-69189822D01*
X19897138Y-69272860D01*
X19865350Y-69352557D01*
X19813589Y-69422830D01*
X19792379Y-69441966D01*
X19724736Y-69483792D01*
X19640973Y-69512234D01*
X19554457Y-69526142D01*
X19470477Y-69529906D01*
X18749863Y-69529906D01*
X18720862Y-69529488D01*
X18639905Y-69523214D01*
X18556915Y-69506379D01*
X18477182Y-69474590D01*
X18406750Y-69422830D01*
X18387615Y-69401686D01*
X18345788Y-69334153D01*
X18317346Y-69250402D01*
X18303439Y-69163817D01*
X18299674Y-69079718D01*
X18299674Y-68742076D01*
X18615041Y-68742076D01*
X18615041Y-68989446D01*
X18621492Y-69042131D01*
X18673104Y-69108681D01*
X18749863Y-69124658D01*
X19470477Y-69124658D01*
X19523010Y-69118188D01*
X19589368Y-69066427D01*
X19605299Y-68989446D01*
X19605299Y-68742076D01*
X19598847Y-68689391D01*
X19547236Y-68622841D01*
X19470477Y-68606864D01*
X18749863Y-68606864D01*
X18697330Y-68613334D01*
X18630972Y-68665095D01*
X18615041Y-68742076D01*
X18299674Y-68742076D01*
X18299674Y-68651804D01*
X18300093Y-68622803D01*
X18306367Y-68541846D01*
X18323202Y-68458856D01*
X18354990Y-68379123D01*
X18406750Y-68308692D01*
X18427961Y-68289556D01*
X18495604Y-68247730D01*
X18579367Y-68219288D01*
X18665883Y-68205380D01*
X18749863Y-68201616D01*
X19470477Y-68201616D01*
X19499478Y-68202034D01*
G37*
G36*
X8943032Y-28818130D02*
G01*
X8943032Y-29450719D01*
X10736995Y-29450719D01*
X10868214Y-29444837D01*
X11003395Y-29423107D01*
X11134275Y-29378666D01*
X11239967Y-29313312D01*
X11273108Y-29283413D01*
X11353984Y-29173611D01*
X11403653Y-29049085D01*
X11429958Y-28919338D01*
X11439761Y-28792685D01*
X11440415Y-28747300D01*
X11440415Y-27938856D01*
X11434533Y-27807430D01*
X11412803Y-27672061D01*
X11368362Y-27541038D01*
X11303008Y-27435279D01*
X11273108Y-27402132D01*
X11163060Y-27321552D01*
X11038477Y-27272064D01*
X10908805Y-27245855D01*
X10782309Y-27236088D01*
X10736995Y-27235437D01*
X8943032Y-27235437D01*
X8943032Y-27868026D01*
X10736995Y-27868026D01*
X10856931Y-27892990D01*
X10937574Y-27996975D01*
X10947655Y-28079296D01*
X10947655Y-28606860D01*
X10922762Y-28727144D01*
X10819078Y-28808021D01*
X10736995Y-28818130D01*
X8943032Y-28818130D01*
G37*
G36*
X9611036Y-30596829D02*
G01*
X11405000Y-30596829D01*
X11405000Y-29981337D01*
X10086088Y-29981337D01*
X10086088Y-29717554D01*
X9611036Y-29717554D01*
X9611036Y-30596829D01*
G37*
G36*
X8907616Y-29981337D02*
G01*
X8907616Y-30596829D01*
X9400376Y-30596829D01*
X9400376Y-29981337D01*
X8907616Y-29981337D01*
G37*
G36*
X10015868Y-31979243D02*
G01*
X10024166Y-31845362D01*
X10046109Y-31713509D01*
X10077585Y-31586582D01*
X10086088Y-31557314D01*
X11405000Y-31557314D01*
X11405000Y-30941822D01*
X9540816Y-30941822D01*
X9540816Y-31487094D01*
X9716671Y-31521899D01*
X9648802Y-31636672D01*
X9594642Y-31753467D01*
X9557302Y-31861396D01*
X9526047Y-31984271D01*
X9507815Y-32108308D01*
X9506011Y-32155098D01*
X9506011Y-32313245D01*
X9517410Y-32440349D01*
X9556813Y-32563902D01*
X9624362Y-32668850D01*
X9650115Y-32696707D01*
X9749481Y-32772699D01*
X9867453Y-32820545D01*
X9989533Y-32839543D01*
X10033576Y-32840810D01*
X11405000Y-32840810D01*
X11405000Y-32225318D01*
X10138600Y-32225318D01*
X10051284Y-32189903D01*
X10015868Y-32102586D01*
X10015868Y-31979243D01*
G37*
G36*
X11405000Y-34340461D02*
G01*
X11405000Y-33074672D01*
X10912850Y-33074672D01*
X10912850Y-33390967D01*
X9435181Y-33390967D01*
X9435181Y-33074672D01*
X8943032Y-33074672D01*
X8943032Y-34340461D01*
X9435181Y-34340461D01*
X9435181Y-34024167D01*
X10912850Y-34024167D01*
X10912850Y-34340461D01*
X11405000Y-34340461D01*
G37*
G36*
X10782309Y-34578030D02*
G01*
X10908805Y-34587833D01*
X11038477Y-34614138D01*
X11163060Y-34663807D01*
X11273108Y-34744683D01*
X11303008Y-34777824D01*
X11368362Y-34883516D01*
X11412803Y-35014396D01*
X11434533Y-35149577D01*
X11440415Y-35280796D01*
X11440415Y-36160070D01*
X11439761Y-36205455D01*
X11429958Y-36332109D01*
X11403653Y-36461856D01*
X11353984Y-36586381D01*
X11273108Y-36696183D01*
X11239967Y-36726083D01*
X11134275Y-36791437D01*
X11003395Y-36835878D01*
X10868214Y-36857608D01*
X10736995Y-36863490D01*
X9611036Y-36863490D01*
X9565722Y-36862836D01*
X9439226Y-36853033D01*
X9309554Y-36826728D01*
X9184972Y-36777059D01*
X9074923Y-36696183D01*
X9045023Y-36663146D01*
X8979669Y-36557626D01*
X8935228Y-36426765D01*
X8913498Y-36291475D01*
X8907616Y-36160070D01*
X8907616Y-35421846D01*
X9400376Y-35421846D01*
X9400376Y-36019631D01*
X9410457Y-36101952D01*
X9491100Y-36205936D01*
X9611036Y-36230901D01*
X10736995Y-36230901D01*
X10819078Y-36220791D01*
X10922762Y-36139914D01*
X10947655Y-36019631D01*
X10947655Y-35421846D01*
X10937574Y-35339525D01*
X10856931Y-35235541D01*
X10736995Y-35210576D01*
X9611036Y-35210576D01*
X9528953Y-35220686D01*
X9425269Y-35301563D01*
X9400376Y-35421846D01*
X8907616Y-35421846D01*
X8907616Y-35280796D01*
X8908270Y-35235482D01*
X8918073Y-35108986D01*
X8944378Y-34979315D01*
X8994047Y-34854732D01*
X9074923Y-34744683D01*
X9108064Y-34714783D01*
X9213756Y-34649429D01*
X9344636Y-34604989D01*
X9479817Y-34583258D01*
X9611036Y-34577377D01*
X10736995Y-34577377D01*
X10782309Y-34578030D01*
G37*
G36*
X10877435Y-37097352D02*
G01*
X10877435Y-37730552D01*
X11405000Y-37730552D01*
X11405000Y-37097352D01*
X10877435Y-37097352D01*
G37*
G36*
X11369584Y-39660681D02*
G01*
X11382242Y-39538734D01*
X11397183Y-39380363D01*
X11409911Y-39226819D01*
X11420424Y-39078103D01*
X11428725Y-38934214D01*
X11434812Y-38795153D01*
X11438685Y-38660920D01*
X11440346Y-38531514D01*
X11440415Y-38499917D01*
X11429016Y-38373059D01*
X11389613Y-38249555D01*
X11322064Y-38144416D01*
X11296311Y-38116455D01*
X11196682Y-38040463D01*
X11078687Y-37992617D01*
X10956789Y-37973619D01*
X10912850Y-37972352D01*
X10103796Y-37972352D01*
X9979041Y-37981702D01*
X9855753Y-38014573D01*
X9739952Y-38078854D01*
X9690415Y-38121951D01*
X9611525Y-38226601D01*
X9565506Y-38339854D01*
X9543153Y-38471170D01*
X9540816Y-38535332D01*
X9540816Y-39660681D01*
X10015868Y-39660681D01*
X10015868Y-38728894D01*
X10060304Y-38614842D01*
X10156308Y-38587844D01*
X10842020Y-38587844D01*
X10930558Y-38623259D01*
X10965362Y-38711187D01*
X10963516Y-38840938D01*
X10959157Y-38966086D01*
X10952234Y-39106707D01*
X10944850Y-39230346D01*
X10935824Y-39363888D01*
X10925158Y-39507333D01*
X10912850Y-39660681D01*
X11369584Y-39660681D01*
G37*
G36*
X10941596Y-39899323D02*
G01*
X11072913Y-39921675D01*
X11186166Y-39967695D01*
X11290816Y-40046585D01*
X11333913Y-40096122D01*
X11398194Y-40211922D01*
X11431065Y-40335211D01*
X11440415Y-40459966D01*
X11440415Y-41269020D01*
X11439100Y-41317470D01*
X11419377Y-41450714D01*
X11369706Y-41577462D01*
X11290816Y-41681790D01*
X11241279Y-41724888D01*
X11125478Y-41789168D01*
X11002190Y-41822039D01*
X10877435Y-41831389D01*
X10068381Y-41831389D01*
X10019930Y-41830074D01*
X9886687Y-41810352D01*
X9759938Y-41760680D01*
X9655610Y-41681790D01*
X9612513Y-41632429D01*
X9548232Y-41516891D01*
X9515361Y-41393736D01*
X9506011Y-41269020D01*
X9506011Y-40653528D01*
X9980453Y-40653528D01*
X9980453Y-41075457D01*
X10007451Y-41171461D01*
X10121503Y-41215897D01*
X10824923Y-41215897D01*
X10915852Y-41192719D01*
X10965362Y-41075457D01*
X10965362Y-40653528D01*
X10942184Y-40562203D01*
X10824923Y-40512478D01*
X10121503Y-40512478D01*
X10025082Y-40539476D01*
X9980453Y-40653528D01*
X9506011Y-40653528D01*
X9506011Y-40459966D01*
X9508349Y-40395804D01*
X9530701Y-40264487D01*
X9576720Y-40151234D01*
X9655610Y-40046585D01*
X9704971Y-40003487D01*
X9820510Y-39939206D01*
X9943664Y-39906336D01*
X10068381Y-39896986D01*
X10877435Y-39896986D01*
X10941596Y-39899323D01*
G37*
G36*
X9506011Y-43384163D02*
G01*
X9519178Y-43518344D01*
X9558676Y-43636344D01*
X9634588Y-43749752D01*
X9716671Y-43823800D01*
X9648802Y-43938148D01*
X9594642Y-44058700D01*
X9557302Y-44173678D01*
X9528101Y-44298212D01*
X9510069Y-44423205D01*
X9506011Y-44509512D01*
X9506011Y-44544927D01*
X9517410Y-44671736D01*
X9556813Y-44795074D01*
X9624362Y-44899927D01*
X9650115Y-44927778D01*
X9749481Y-45004092D01*
X9867453Y-45052141D01*
X9989533Y-45071220D01*
X10033576Y-45072492D01*
X11405000Y-45072492D01*
X11405000Y-44457000D01*
X10138600Y-44457000D01*
X10051284Y-44421585D01*
X10015868Y-44333657D01*
X10015868Y-44315949D01*
X10025743Y-44184974D01*
X10049058Y-44056938D01*
X10081768Y-43927021D01*
X10086088Y-43911728D01*
X11405000Y-43911728D01*
X11405000Y-43296236D01*
X10138600Y-43296236D01*
X10051284Y-43260820D01*
X10015868Y-43172893D01*
X10015868Y-43155185D01*
X10025743Y-43024210D01*
X10049058Y-42896173D01*
X10081768Y-42766257D01*
X10086088Y-42750963D01*
X11405000Y-42750963D01*
X11405000Y-42135471D01*
X9540816Y-42135471D01*
X9540816Y-42680744D01*
X9716671Y-42715548D01*
X9648802Y-42830322D01*
X9594642Y-42947116D01*
X9557302Y-43055046D01*
X9526047Y-43177921D01*
X9507815Y-43301958D01*
X9506011Y-43348748D01*
X9506011Y-43384163D01*
G37*
G36*
X19425145Y-29520132D02*
G01*
X18322340Y-29902714D01*
X18322340Y-30341570D01*
X19898000Y-29745226D01*
X19898000Y-29295038D01*
X18322340Y-28698304D01*
X18322340Y-29137550D01*
X19425145Y-29520132D01*
G37*
G36*
X19611145Y-30334174D02*
G01*
X19689160Y-30346332D01*
X19764676Y-30376954D01*
X19828439Y-30425589D01*
X19844921Y-30443484D01*
X19888152Y-30510773D01*
X19913370Y-30589816D01*
X19920665Y-30671004D01*
X19920488Y-30715527D01*
X19919072Y-30806458D01*
X19916238Y-30899906D01*
X19911989Y-30995869D01*
X19906322Y-31094347D01*
X19899239Y-31195342D01*
X19890739Y-31298852D01*
X19883435Y-31378136D01*
X19875334Y-31458834D01*
X19593966Y-31458834D01*
X19601934Y-31354603D01*
X19608840Y-31256845D01*
X19614684Y-31165560D01*
X19619465Y-31080746D01*
X19623947Y-30983831D01*
X19626769Y-30897030D01*
X19627965Y-30806217D01*
X19605690Y-30749944D01*
X19549025Y-30727278D01*
X19459144Y-30727278D01*
X19459144Y-31504166D01*
X19042563Y-31504166D01*
X19011555Y-31503324D01*
X18926279Y-31490702D01*
X18845160Y-31458912D01*
X18778390Y-31408422D01*
X18750808Y-31376719D01*
X18709668Y-31302606D01*
X18688631Y-31223702D01*
X18682647Y-31143859D01*
X18682647Y-30817550D01*
X18964015Y-30817550D01*
X18964015Y-31019979D01*
X18978849Y-31078426D01*
X19053896Y-31110251D01*
X19177776Y-31110251D01*
X19177776Y-30727278D01*
X19053896Y-30727278D01*
X18992454Y-30744557D01*
X18964015Y-30817550D01*
X18682647Y-30817550D01*
X18682647Y-30693670D01*
X18684143Y-30652607D01*
X18698448Y-30568564D01*
X18727901Y-30496082D01*
X18778390Y-30429106D01*
X18809982Y-30401524D01*
X18883926Y-30360384D01*
X18962745Y-30339347D01*
X19042563Y-30333363D01*
X19583024Y-30333363D01*
X19611145Y-30334174D01*
G37*
G36*
X19031230Y-32385394D02*
G01*
X19036578Y-32304889D01*
X19052622Y-32222962D01*
X19079360Y-32139613D01*
X19098837Y-32092693D01*
X19898000Y-32092693D01*
X19898000Y-31698778D01*
X18704922Y-31698778D01*
X18704922Y-32047752D01*
X18851468Y-32070027D01*
X18794095Y-32143332D01*
X18748593Y-32217874D01*
X18714960Y-32293652D01*
X18693198Y-32370666D01*
X18683307Y-32448917D01*
X18682647Y-32475275D01*
X18682647Y-32576489D01*
X19031230Y-32576489D01*
X19031230Y-32385394D01*
G37*
G36*
X19583024Y-32683956D02*
G01*
X19589030Y-32767912D01*
X19594445Y-32848468D01*
X19600747Y-32950585D01*
X19605998Y-33046658D01*
X19610199Y-33136686D01*
X19613350Y-33220669D01*
X19615811Y-33317147D01*
X19616632Y-33404180D01*
X19594357Y-33460453D01*
X19537692Y-33483119D01*
X19459144Y-33483119D01*
X19459144Y-32998932D01*
X19451849Y-32917743D01*
X19426631Y-32838700D01*
X19383400Y-32771411D01*
X19366918Y-32753517D01*
X19303155Y-32704882D01*
X19227638Y-32674260D01*
X19149623Y-32662101D01*
X19121503Y-32661291D01*
X19042563Y-32661291D01*
X18961406Y-32668586D01*
X18882469Y-32693804D01*
X18815364Y-32737035D01*
X18797539Y-32753517D01*
X18748698Y-32817279D01*
X18717946Y-32892796D01*
X18705736Y-32970811D01*
X18704922Y-32998932D01*
X18704922Y-33764487D01*
X18997623Y-33764487D01*
X18997623Y-33134145D01*
X19020288Y-33077480D01*
X19076562Y-33055205D01*
X19132836Y-33077480D01*
X19155110Y-33134145D01*
X19155110Y-33539392D01*
X19162437Y-33620550D01*
X19187762Y-33699486D01*
X19231176Y-33766592D01*
X19247727Y-33784417D01*
X19311284Y-33833258D01*
X19386671Y-33864009D01*
X19464634Y-33876220D01*
X19492752Y-33877034D01*
X19583024Y-33877034D01*
X19664213Y-33869708D01*
X19743256Y-33844383D01*
X19810545Y-33800968D01*
X19828439Y-33784417D01*
X19877074Y-33720860D01*
X19907696Y-33645473D01*
X19919855Y-33567510D01*
X19920665Y-33539392D01*
X19919957Y-33438832D01*
X19917832Y-33336451D01*
X19914290Y-33232251D01*
X19910705Y-33152907D01*
X19906322Y-33072539D01*
X19901143Y-32991148D01*
X19895166Y-32908733D01*
X19888393Y-32825295D01*
X19880823Y-32740833D01*
X19875334Y-32683956D01*
X19583024Y-32683956D01*
G37*
G36*
X18749863Y-34501123D02*
G01*
X19898000Y-34501123D01*
X19898000Y-34107208D01*
X19053896Y-34107208D01*
X19053896Y-33938388D01*
X18749863Y-33938388D01*
X18749863Y-34501123D01*
G37*
G36*
X18299674Y-34107208D02*
G01*
X18299674Y-34501123D01*
X18615041Y-34501123D01*
X18615041Y-34107208D01*
X18299674Y-34107208D01*
G37*
G36*
X19601422Y-34700749D02*
G01*
X19685464Y-34715054D01*
X19757946Y-34744506D01*
X19824922Y-34794996D01*
X19852504Y-34826700D01*
X19893644Y-34900812D01*
X19914681Y-34979717D01*
X19920665Y-35059560D01*
X19920665Y-35577355D01*
X19919824Y-35608363D01*
X19907201Y-35693639D01*
X19875412Y-35774758D01*
X19824922Y-35841528D01*
X19793218Y-35869110D01*
X19719106Y-35910250D01*
X19640201Y-35931287D01*
X19560358Y-35937271D01*
X19042563Y-35937271D01*
X19011555Y-35936429D01*
X18926279Y-35923807D01*
X18845160Y-35892017D01*
X18778390Y-35841528D01*
X18750808Y-35809936D01*
X18709668Y-35735992D01*
X18688631Y-35657173D01*
X18682647Y-35577355D01*
X18682647Y-35183440D01*
X18986290Y-35183440D01*
X18986290Y-35453475D01*
X19003568Y-35514917D01*
X19076562Y-35543356D01*
X19526750Y-35543356D01*
X19584945Y-35528522D01*
X19616632Y-35453475D01*
X19616632Y-35183440D01*
X19601798Y-35124992D01*
X19526750Y-35093168D01*
X19076562Y-35093168D01*
X19014852Y-35110446D01*
X18986290Y-35183440D01*
X18682647Y-35183440D01*
X18682647Y-35059560D01*
X18684143Y-35018497D01*
X18698448Y-34934454D01*
X18727901Y-34861972D01*
X18778390Y-34794996D01*
X18809982Y-34767414D01*
X18883926Y-34726274D01*
X18962745Y-34705237D01*
X19042563Y-34699253D01*
X19560358Y-34699253D01*
X19601422Y-34700749D01*
G37*
G36*
X19008956Y-36795833D02*
G01*
X19014266Y-36710150D01*
X19028310Y-36625764D01*
X19048454Y-36544530D01*
X19053896Y-36525799D01*
X19898000Y-36525799D01*
X19898000Y-36131884D01*
X18704922Y-36131884D01*
X18704922Y-36480858D01*
X18817469Y-36503133D01*
X18774033Y-36576588D01*
X18739371Y-36651336D01*
X18715473Y-36720411D01*
X18695470Y-36799051D01*
X18683801Y-36878435D01*
X18682647Y-36908381D01*
X18682647Y-37009595D01*
X18689942Y-37090941D01*
X18715160Y-37170015D01*
X18758391Y-37237182D01*
X18774873Y-37255010D01*
X18838468Y-37303645D01*
X18913969Y-37334267D01*
X18992101Y-37346425D01*
X19020288Y-37347236D01*
X19898000Y-37347236D01*
X19898000Y-36953321D01*
X19087504Y-36953321D01*
X19031621Y-36930655D01*
X19008956Y-36874773D01*
X19008956Y-36795833D01*
G37*
G36*
X18817469Y-39362142D02*
G01*
X18898757Y-39354381D01*
X18975071Y-39331100D01*
X19046411Y-39292298D01*
X19112777Y-39237975D01*
X19148467Y-39199965D01*
X19199188Y-39137860D01*
X19234050Y-39091716D01*
X19583024Y-38607920D01*
X19583024Y-39362142D01*
X19898000Y-39362142D01*
X19898000Y-38146399D01*
X19470477Y-38146399D01*
X18885076Y-38956894D01*
X18772528Y-38956894D01*
X18695547Y-38940917D01*
X18643786Y-38874367D01*
X18637316Y-38821681D01*
X18637316Y-38191339D01*
X18322340Y-38191339D01*
X18322340Y-38911953D01*
X18326104Y-38995933D01*
X18340012Y-39082449D01*
X18368454Y-39166213D01*
X18410280Y-39233856D01*
X18429416Y-39255066D01*
X18499689Y-39306826D01*
X18579386Y-39338614D01*
X18662424Y-39355450D01*
X18743482Y-39361724D01*
X18772528Y-39362142D01*
X18817469Y-39362142D01*
G37*
G36*
X19560358Y-39489930D02*
G01*
X19560358Y-39895177D01*
X19898000Y-39895177D01*
X19898000Y-39489930D01*
X19560358Y-39489930D01*
G37*
G36*
X19499478Y-40050348D02*
G01*
X19580435Y-40056622D01*
X19663425Y-40073457D01*
X19743158Y-40105245D01*
X19813589Y-40157006D01*
X19832725Y-40178216D01*
X19874551Y-40245859D01*
X19902994Y-40329622D01*
X19916901Y-40416138D01*
X19920665Y-40500118D01*
X19920665Y-40928032D01*
X19920247Y-40957078D01*
X19913973Y-41038136D01*
X19897138Y-41121174D01*
X19865350Y-41200871D01*
X19813589Y-41271144D01*
X19792379Y-41290280D01*
X19724736Y-41332106D01*
X19640973Y-41360548D01*
X19554457Y-41374456D01*
X19470477Y-41378220D01*
X18749863Y-41378220D01*
X18720862Y-41377802D01*
X18639905Y-41371528D01*
X18556915Y-41354693D01*
X18477182Y-41322904D01*
X18406750Y-41271144D01*
X18387615Y-41250000D01*
X18345788Y-41182467D01*
X18317346Y-41098716D01*
X18303439Y-41012131D01*
X18299674Y-40928032D01*
X18299674Y-40590390D01*
X18615041Y-40590390D01*
X18615041Y-40837759D01*
X18621492Y-40890445D01*
X18673104Y-40956995D01*
X18749863Y-40972972D01*
X19470477Y-40972972D01*
X19523010Y-40966502D01*
X19589368Y-40914741D01*
X19605299Y-40837759D01*
X19605299Y-40590390D01*
X19598847Y-40537705D01*
X19547236Y-40471155D01*
X19470477Y-40455177D01*
X18749863Y-40455177D01*
X18697330Y-40461648D01*
X18630972Y-40513409D01*
X18615041Y-40590390D01*
X18299674Y-40590390D01*
X18299674Y-40500118D01*
X18300093Y-40471117D01*
X18306367Y-40390160D01*
X18323202Y-40307170D01*
X18354990Y-40227437D01*
X18406750Y-40157006D01*
X18427961Y-40137870D01*
X18495604Y-40096044D01*
X18579367Y-40067601D01*
X18665883Y-40053694D01*
X18749863Y-40049930D01*
X19470477Y-40049930D01*
X19499478Y-40050348D01*
G37*
G36*
X19560358Y-41528283D02*
G01*
X19560358Y-41933531D01*
X19898000Y-41933531D01*
X19898000Y-41528283D01*
X19560358Y-41528283D01*
G37*
G36*
X19499478Y-42088701D02*
G01*
X19580435Y-42094975D01*
X19663425Y-42111810D01*
X19743158Y-42143598D01*
X19813589Y-42195359D01*
X19832725Y-42216569D01*
X19874551Y-42284212D01*
X19902994Y-42367975D01*
X19916901Y-42454491D01*
X19920665Y-42538471D01*
X19920665Y-42966385D01*
X19920247Y-42995431D01*
X19913973Y-43076489D01*
X19897138Y-43159527D01*
X19865350Y-43239224D01*
X19813589Y-43309497D01*
X19792379Y-43328633D01*
X19724736Y-43370459D01*
X19640973Y-43398901D01*
X19554457Y-43412809D01*
X19470477Y-43416573D01*
X18749863Y-43416573D01*
X18720862Y-43416155D01*
X18639905Y-43409881D01*
X18556915Y-43393046D01*
X18477182Y-43361257D01*
X18406750Y-43309497D01*
X18387615Y-43288353D01*
X18345788Y-43220820D01*
X18317346Y-43137069D01*
X18303439Y-43050484D01*
X18299674Y-42966385D01*
X18299674Y-42628743D01*
X18615041Y-42628743D01*
X18615041Y-42876113D01*
X18621492Y-42928798D01*
X18673104Y-42995348D01*
X18749863Y-43011325D01*
X19470477Y-43011325D01*
X19523010Y-43004855D01*
X19589368Y-42953094D01*
X19605299Y-42876113D01*
X19605299Y-42628743D01*
X19598847Y-42576058D01*
X19547236Y-42509508D01*
X19470477Y-42493531D01*
X18749863Y-42493531D01*
X18697330Y-42500001D01*
X18630972Y-42551762D01*
X18615041Y-42628743D01*
X18299674Y-42628743D01*
X18299674Y-42538471D01*
X18300093Y-42509470D01*
X18306367Y-42428513D01*
X18323202Y-42345523D01*
X18354990Y-42265790D01*
X18406750Y-42195359D01*
X18427961Y-42176223D01*
X18495604Y-42134397D01*
X18579367Y-42105955D01*
X18665883Y-42092047D01*
X18749863Y-42088283D01*
X19470477Y-42088283D01*
X19499478Y-42088701D01*
G37*
G36*
X19425145Y-81746799D02*
G01*
X18322340Y-82129381D01*
X18322340Y-82568237D01*
X19898000Y-81971893D01*
X19898000Y-81521705D01*
X18322340Y-80924971D01*
X18322340Y-81364217D01*
X19425145Y-81746799D01*
G37*
G36*
X19611145Y-82560841D02*
G01*
X19689160Y-82572999D01*
X19764676Y-82603621D01*
X19828439Y-82652256D01*
X19844921Y-82670151D01*
X19888152Y-82737440D01*
X19913370Y-82816483D01*
X19920665Y-82897671D01*
X19920488Y-82942194D01*
X19919072Y-83033125D01*
X19916238Y-83126573D01*
X19911989Y-83222536D01*
X19906322Y-83321014D01*
X19899239Y-83422009D01*
X19890739Y-83525519D01*
X19883435Y-83604803D01*
X19875334Y-83685501D01*
X19593966Y-83685501D01*
X19601934Y-83581270D01*
X19608840Y-83483512D01*
X19614684Y-83392227D01*
X19619465Y-83307413D01*
X19623947Y-83210498D01*
X19626769Y-83123697D01*
X19627965Y-83032884D01*
X19605690Y-82976611D01*
X19549025Y-82953945D01*
X19459144Y-82953945D01*
X19459144Y-83730833D01*
X19042563Y-83730833D01*
X19011555Y-83729991D01*
X18926279Y-83717369D01*
X18845160Y-83685579D01*
X18778390Y-83635089D01*
X18750808Y-83603386D01*
X18709668Y-83529273D01*
X18688631Y-83450369D01*
X18682647Y-83370526D01*
X18682647Y-83044217D01*
X18964015Y-83044217D01*
X18964015Y-83246646D01*
X18978849Y-83305093D01*
X19053896Y-83336918D01*
X19177776Y-83336918D01*
X19177776Y-82953945D01*
X19053896Y-82953945D01*
X18992454Y-82971224D01*
X18964015Y-83044217D01*
X18682647Y-83044217D01*
X18682647Y-82920337D01*
X18684143Y-82879274D01*
X18698448Y-82795231D01*
X18727901Y-82722749D01*
X18778390Y-82655773D01*
X18809982Y-82628191D01*
X18883926Y-82587051D01*
X18962745Y-82566014D01*
X19042563Y-82560030D01*
X19583024Y-82560030D01*
X19611145Y-82560841D01*
G37*
G36*
X19031230Y-84612061D02*
G01*
X19036578Y-84531556D01*
X19052622Y-84449629D01*
X19079360Y-84366280D01*
X19098837Y-84319360D01*
X19898000Y-84319360D01*
X19898000Y-83925445D01*
X18704922Y-83925445D01*
X18704922Y-84274419D01*
X18851468Y-84296694D01*
X18794095Y-84369999D01*
X18748593Y-84444541D01*
X18714960Y-84520319D01*
X18693198Y-84597333D01*
X18683307Y-84675584D01*
X18682647Y-84701942D01*
X18682647Y-84803156D01*
X19031230Y-84803156D01*
X19031230Y-84612061D01*
G37*
G36*
X19583024Y-84910623D02*
G01*
X19589030Y-84994579D01*
X19594445Y-85075135D01*
X19600747Y-85177252D01*
X19605998Y-85273325D01*
X19610199Y-85363353D01*
X19613350Y-85447336D01*
X19615811Y-85543814D01*
X19616632Y-85630847D01*
X19594357Y-85687120D01*
X19537692Y-85709786D01*
X19459144Y-85709786D01*
X19459144Y-85225599D01*
X19451849Y-85144410D01*
X19426631Y-85065367D01*
X19383400Y-84998078D01*
X19366918Y-84980184D01*
X19303155Y-84931549D01*
X19227638Y-84900927D01*
X19149623Y-84888768D01*
X19121503Y-84887958D01*
X19042563Y-84887958D01*
X18961406Y-84895253D01*
X18882469Y-84920471D01*
X18815364Y-84963702D01*
X18797539Y-84980184D01*
X18748698Y-85043946D01*
X18717946Y-85119463D01*
X18705736Y-85197478D01*
X18704922Y-85225599D01*
X18704922Y-85991154D01*
X18997623Y-85991154D01*
X18997623Y-85360812D01*
X19020288Y-85304147D01*
X19076562Y-85281872D01*
X19132836Y-85304147D01*
X19155110Y-85360812D01*
X19155110Y-85766059D01*
X19162437Y-85847217D01*
X19187762Y-85926153D01*
X19231176Y-85993259D01*
X19247727Y-86011084D01*
X19311284Y-86059925D01*
X19386671Y-86090676D01*
X19464634Y-86102887D01*
X19492752Y-86103701D01*
X19583024Y-86103701D01*
X19664213Y-86096375D01*
X19743256Y-86071050D01*
X19810545Y-86027635D01*
X19828439Y-86011084D01*
X19877074Y-85947527D01*
X19907696Y-85872140D01*
X19919855Y-85794177D01*
X19920665Y-85766059D01*
X19919957Y-85665499D01*
X19917832Y-85563118D01*
X19914290Y-85458918D01*
X19910705Y-85379574D01*
X19906322Y-85299206D01*
X19901143Y-85217815D01*
X19895166Y-85135400D01*
X19888393Y-85051962D01*
X19880823Y-84967500D01*
X19875334Y-84910623D01*
X19583024Y-84910623D01*
G37*
G36*
X18749863Y-86727790D02*
G01*
X19898000Y-86727790D01*
X19898000Y-86333875D01*
X19053896Y-86333875D01*
X19053896Y-86165055D01*
X18749863Y-86165055D01*
X18749863Y-86727790D01*
G37*
G36*
X18299674Y-86333875D02*
G01*
X18299674Y-86727790D01*
X18615041Y-86727790D01*
X18615041Y-86333875D01*
X18299674Y-86333875D01*
G37*
G36*
X19601422Y-86927416D02*
G01*
X19685464Y-86941721D01*
X19757946Y-86971173D01*
X19824922Y-87021663D01*
X19852504Y-87053367D01*
X19893644Y-87127479D01*
X19914681Y-87206384D01*
X19920665Y-87286227D01*
X19920665Y-87804022D01*
X19919824Y-87835030D01*
X19907201Y-87920306D01*
X19875412Y-88001425D01*
X19824922Y-88068195D01*
X19793218Y-88095777D01*
X19719106Y-88136917D01*
X19640201Y-88157954D01*
X19560358Y-88163938D01*
X19042563Y-88163938D01*
X19011555Y-88163096D01*
X18926279Y-88150474D01*
X18845160Y-88118684D01*
X18778390Y-88068195D01*
X18750808Y-88036603D01*
X18709668Y-87962659D01*
X18688631Y-87883840D01*
X18682647Y-87804022D01*
X18682647Y-87410107D01*
X18986290Y-87410107D01*
X18986290Y-87680142D01*
X19003568Y-87741584D01*
X19076562Y-87770023D01*
X19526750Y-87770023D01*
X19584945Y-87755189D01*
X19616632Y-87680142D01*
X19616632Y-87410107D01*
X19601798Y-87351659D01*
X19526750Y-87319835D01*
X19076562Y-87319835D01*
X19014852Y-87337113D01*
X18986290Y-87410107D01*
X18682647Y-87410107D01*
X18682647Y-87286227D01*
X18684143Y-87245164D01*
X18698448Y-87161121D01*
X18727901Y-87088639D01*
X18778390Y-87021663D01*
X18809982Y-86994081D01*
X18883926Y-86952941D01*
X18962745Y-86931904D01*
X19042563Y-86925920D01*
X19560358Y-86925920D01*
X19601422Y-86927416D01*
G37*
G36*
X19008956Y-89022500D02*
G01*
X19014266Y-88936817D01*
X19028310Y-88852431D01*
X19048454Y-88771197D01*
X19053896Y-88752466D01*
X19898000Y-88752466D01*
X19898000Y-88358551D01*
X18704922Y-88358551D01*
X18704922Y-88707525D01*
X18817469Y-88729800D01*
X18774033Y-88803255D01*
X18739371Y-88878003D01*
X18715473Y-88947078D01*
X18695470Y-89025718D01*
X18683801Y-89105102D01*
X18682647Y-89135048D01*
X18682647Y-89236262D01*
X18689942Y-89317608D01*
X18715160Y-89396682D01*
X18758391Y-89463849D01*
X18774873Y-89481677D01*
X18838468Y-89530312D01*
X18913969Y-89560934D01*
X18992101Y-89573092D01*
X19020288Y-89573903D01*
X19898000Y-89573903D01*
X19898000Y-89179988D01*
X19087504Y-89179988D01*
X19031621Y-89157322D01*
X19008956Y-89101440D01*
X19008956Y-89022500D01*
G37*
G36*
X18817469Y-91588809D02*
G01*
X18898757Y-91581048D01*
X18975071Y-91557767D01*
X19046411Y-91518965D01*
X19112777Y-91464642D01*
X19148467Y-91426632D01*
X19199188Y-91364527D01*
X19234050Y-91318383D01*
X19583024Y-90834587D01*
X19583024Y-91588809D01*
X19898000Y-91588809D01*
X19898000Y-90373066D01*
X19470477Y-90373066D01*
X18885076Y-91183561D01*
X18772528Y-91183561D01*
X18695547Y-91167584D01*
X18643786Y-91101034D01*
X18637316Y-91048348D01*
X18637316Y-90418006D01*
X18322340Y-90418006D01*
X18322340Y-91138620D01*
X18326104Y-91222600D01*
X18340012Y-91309116D01*
X18368454Y-91392880D01*
X18410280Y-91460523D01*
X18429416Y-91481733D01*
X18499689Y-91533493D01*
X18579386Y-91565281D01*
X18662424Y-91582117D01*
X18743482Y-91588391D01*
X18772528Y-91588809D01*
X18817469Y-91588809D01*
G37*
G36*
X19560358Y-91716597D02*
G01*
X19560358Y-92121844D01*
X19898000Y-92121844D01*
X19898000Y-91716597D01*
X19560358Y-91716597D01*
G37*
G36*
X19499478Y-92277015D02*
G01*
X19580435Y-92283289D01*
X19663425Y-92300124D01*
X19743158Y-92331912D01*
X19813589Y-92383673D01*
X19832725Y-92404883D01*
X19874551Y-92472526D01*
X19902994Y-92556289D01*
X19916901Y-92642805D01*
X19920665Y-92726785D01*
X19920665Y-93154699D01*
X19920247Y-93183745D01*
X19913973Y-93264803D01*
X19897138Y-93347841D01*
X19865350Y-93427538D01*
X19813589Y-93497811D01*
X19792379Y-93516947D01*
X19724736Y-93558773D01*
X19640973Y-93587215D01*
X19554457Y-93601123D01*
X19470477Y-93604887D01*
X18749863Y-93604887D01*
X18720862Y-93604469D01*
X18639905Y-93598195D01*
X18556915Y-93581360D01*
X18477182Y-93549571D01*
X18406750Y-93497811D01*
X18387615Y-93476667D01*
X18345788Y-93409134D01*
X18317346Y-93325383D01*
X18303439Y-93238798D01*
X18299674Y-93154699D01*
X18299674Y-92817057D01*
X18615041Y-92817057D01*
X18615041Y-93064426D01*
X18621492Y-93117112D01*
X18673104Y-93183662D01*
X18749863Y-93199639D01*
X19470477Y-93199639D01*
X19523010Y-93193169D01*
X19589368Y-93141408D01*
X19605299Y-93064426D01*
X19605299Y-92817057D01*
X19598847Y-92764372D01*
X19547236Y-92697822D01*
X19470477Y-92681844D01*
X18749863Y-92681844D01*
X18697330Y-92688315D01*
X18630972Y-92740076D01*
X18615041Y-92817057D01*
X18299674Y-92817057D01*
X18299674Y-92726785D01*
X18300093Y-92697784D01*
X18306367Y-92616827D01*
X18323202Y-92533837D01*
X18354990Y-92454104D01*
X18406750Y-92383673D01*
X18427961Y-92364537D01*
X18495604Y-92322711D01*
X18579367Y-92294268D01*
X18665883Y-92280361D01*
X18749863Y-92276597D01*
X19470477Y-92276597D01*
X19499478Y-92277015D01*
G37*
G36*
X19560358Y-93754950D02*
G01*
X19560358Y-94160198D01*
X19898000Y-94160198D01*
X19898000Y-93754950D01*
X19560358Y-93754950D01*
G37*
G36*
X19499478Y-94315368D02*
G01*
X19580435Y-94321642D01*
X19663425Y-94338477D01*
X19743158Y-94370265D01*
X19813589Y-94422026D01*
X19832725Y-94443236D01*
X19874551Y-94510879D01*
X19902994Y-94594642D01*
X19916901Y-94681158D01*
X19920665Y-94765138D01*
X19920665Y-95193052D01*
X19920247Y-95222098D01*
X19913973Y-95303156D01*
X19897138Y-95386194D01*
X19865350Y-95465891D01*
X19813589Y-95536164D01*
X19792379Y-95555300D01*
X19724736Y-95597126D01*
X19640973Y-95625568D01*
X19554457Y-95639476D01*
X19470477Y-95643240D01*
X18749863Y-95643240D01*
X18720862Y-95642822D01*
X18639905Y-95636548D01*
X18556915Y-95619713D01*
X18477182Y-95587924D01*
X18406750Y-95536164D01*
X18387615Y-95515020D01*
X18345788Y-95447487D01*
X18317346Y-95363736D01*
X18303439Y-95277151D01*
X18299674Y-95193052D01*
X18299674Y-94855410D01*
X18615041Y-94855410D01*
X18615041Y-95102780D01*
X18621492Y-95155465D01*
X18673104Y-95222015D01*
X18749863Y-95237992D01*
X19470477Y-95237992D01*
X19523010Y-95231522D01*
X19589368Y-95179761D01*
X19605299Y-95102780D01*
X19605299Y-94855410D01*
X19598847Y-94802725D01*
X19547236Y-94736175D01*
X19470477Y-94720198D01*
X18749863Y-94720198D01*
X18697330Y-94726668D01*
X18630972Y-94778429D01*
X18615041Y-94855410D01*
X18299674Y-94855410D01*
X18299674Y-94765138D01*
X18300093Y-94736137D01*
X18306367Y-94655180D01*
X18323202Y-94572190D01*
X18354990Y-94492457D01*
X18406750Y-94422026D01*
X18427961Y-94402890D01*
X18495604Y-94361064D01*
X18579367Y-94332622D01*
X18665883Y-94318714D01*
X18749863Y-94314950D01*
X19470477Y-94314950D01*
X19499478Y-94315368D01*
G37*
G36*
X8943032Y-54931463D02*
G01*
X8943032Y-55564052D01*
X10736995Y-55564052D01*
X10868214Y-55558170D01*
X11003395Y-55536440D01*
X11134275Y-55491999D01*
X11239967Y-55426645D01*
X11273108Y-55396746D01*
X11353984Y-55286944D01*
X11403653Y-55162418D01*
X11429958Y-55032671D01*
X11439761Y-54906018D01*
X11440415Y-54860633D01*
X11440415Y-54052189D01*
X11434533Y-53920763D01*
X11412803Y-53785394D01*
X11368362Y-53654371D01*
X11303008Y-53548612D01*
X11273108Y-53515465D01*
X11163060Y-53434885D01*
X11038477Y-53385397D01*
X10908805Y-53359188D01*
X10782309Y-53349421D01*
X10736995Y-53348770D01*
X8943032Y-53348770D01*
X8943032Y-53981359D01*
X10736995Y-53981359D01*
X10856931Y-54006323D01*
X10937574Y-54110308D01*
X10947655Y-54192629D01*
X10947655Y-54720193D01*
X10922762Y-54840477D01*
X10819078Y-54921354D01*
X10736995Y-54931463D01*
X8943032Y-54931463D01*
G37*
G36*
X9611036Y-56710162D02*
G01*
X11405000Y-56710162D01*
X11405000Y-56094670D01*
X10086088Y-56094670D01*
X10086088Y-55830887D01*
X9611036Y-55830887D01*
X9611036Y-56710162D01*
G37*
G36*
X8907616Y-56094670D02*
G01*
X8907616Y-56710162D01*
X9400376Y-56710162D01*
X9400376Y-56094670D01*
X8907616Y-56094670D01*
G37*
G36*
X10015868Y-58092576D02*
G01*
X10024166Y-57958695D01*
X10046109Y-57826842D01*
X10077585Y-57699915D01*
X10086088Y-57670647D01*
X11405000Y-57670647D01*
X11405000Y-57055155D01*
X9540816Y-57055155D01*
X9540816Y-57600427D01*
X9716671Y-57635232D01*
X9648802Y-57750005D01*
X9594642Y-57866800D01*
X9557302Y-57974729D01*
X9526047Y-58097604D01*
X9507815Y-58221641D01*
X9506011Y-58268431D01*
X9506011Y-58426578D01*
X9517410Y-58553682D01*
X9556813Y-58677235D01*
X9624362Y-58782183D01*
X9650115Y-58810040D01*
X9749481Y-58886032D01*
X9867453Y-58933878D01*
X9989533Y-58952876D01*
X10033576Y-58954143D01*
X11405000Y-58954143D01*
X11405000Y-58338651D01*
X10138600Y-58338651D01*
X10051284Y-58303236D01*
X10015868Y-58215919D01*
X10015868Y-58092576D01*
G37*
G36*
X11405000Y-60453794D02*
G01*
X11405000Y-59188005D01*
X10912850Y-59188005D01*
X10912850Y-59504300D01*
X9435181Y-59504300D01*
X9435181Y-59188005D01*
X8943032Y-59188005D01*
X8943032Y-60453794D01*
X9435181Y-60453794D01*
X9435181Y-60137500D01*
X10912850Y-60137500D01*
X10912850Y-60453794D01*
X11405000Y-60453794D01*
G37*
G36*
X10782309Y-60691363D02*
G01*
X10908805Y-60701166D01*
X11038477Y-60727471D01*
X11163060Y-60777140D01*
X11273108Y-60858016D01*
X11303008Y-60891157D01*
X11368362Y-60996849D01*
X11412803Y-61127729D01*
X11434533Y-61262910D01*
X11440415Y-61394129D01*
X11440415Y-62273403D01*
X11439761Y-62318788D01*
X11429958Y-62445442D01*
X11403653Y-62575189D01*
X11353984Y-62699714D01*
X11273108Y-62809516D01*
X11239967Y-62839416D01*
X11134275Y-62904770D01*
X11003395Y-62949211D01*
X10868214Y-62970941D01*
X10736995Y-62976823D01*
X9611036Y-62976823D01*
X9565722Y-62976169D01*
X9439226Y-62966366D01*
X9309554Y-62940061D01*
X9184972Y-62890392D01*
X9074923Y-62809516D01*
X9045023Y-62776479D01*
X8979669Y-62670959D01*
X8935228Y-62540098D01*
X8913498Y-62404808D01*
X8907616Y-62273403D01*
X8907616Y-61535179D01*
X9400376Y-61535179D01*
X9400376Y-62132964D01*
X9410457Y-62215285D01*
X9491100Y-62319269D01*
X9611036Y-62344234D01*
X10736995Y-62344234D01*
X10819078Y-62334124D01*
X10922762Y-62253247D01*
X10947655Y-62132964D01*
X10947655Y-61535179D01*
X10937574Y-61452858D01*
X10856931Y-61348874D01*
X10736995Y-61323909D01*
X9611036Y-61323909D01*
X9528953Y-61334019D01*
X9425269Y-61414896D01*
X9400376Y-61535179D01*
X8907616Y-61535179D01*
X8907616Y-61394129D01*
X8908270Y-61348815D01*
X8918073Y-61222319D01*
X8944378Y-61092648D01*
X8994047Y-60968065D01*
X9074923Y-60858016D01*
X9108064Y-60828116D01*
X9213756Y-60762762D01*
X9344636Y-60718322D01*
X9479817Y-60696591D01*
X9611036Y-60690710D01*
X10736995Y-60690710D01*
X10782309Y-60691363D01*
G37*
G36*
X10877435Y-63210685D02*
G01*
X10877435Y-63843885D01*
X11405000Y-63843885D01*
X11405000Y-63210685D01*
X10877435Y-63210685D01*
G37*
G36*
X11369584Y-65774014D02*
G01*
X11382242Y-65652067D01*
X11397183Y-65493696D01*
X11409911Y-65340152D01*
X11420424Y-65191436D01*
X11428725Y-65047547D01*
X11434812Y-64908486D01*
X11438685Y-64774253D01*
X11440346Y-64644847D01*
X11440415Y-64613250D01*
X11429016Y-64486392D01*
X11389613Y-64362888D01*
X11322064Y-64257749D01*
X11296311Y-64229788D01*
X11196682Y-64153796D01*
X11078687Y-64105950D01*
X10956789Y-64086952D01*
X10912850Y-64085685D01*
X10103796Y-64085685D01*
X9979041Y-64095035D01*
X9855753Y-64127906D01*
X9739952Y-64192187D01*
X9690415Y-64235284D01*
X9611525Y-64339934D01*
X9565506Y-64453187D01*
X9543153Y-64584503D01*
X9540816Y-64648665D01*
X9540816Y-65774014D01*
X10015868Y-65774014D01*
X10015868Y-64842227D01*
X10060304Y-64728175D01*
X10156308Y-64701177D01*
X10842020Y-64701177D01*
X10930558Y-64736592D01*
X10965362Y-64824520D01*
X10963516Y-64954271D01*
X10959157Y-65079419D01*
X10952234Y-65220040D01*
X10944850Y-65343679D01*
X10935824Y-65477221D01*
X10925158Y-65620666D01*
X10912850Y-65774014D01*
X11369584Y-65774014D01*
G37*
G36*
X10941596Y-66012656D02*
G01*
X11072913Y-66035008D01*
X11186166Y-66081028D01*
X11290816Y-66159918D01*
X11333913Y-66209455D01*
X11398194Y-66325255D01*
X11431065Y-66448544D01*
X11440415Y-66573299D01*
X11440415Y-67382353D01*
X11439100Y-67430803D01*
X11419377Y-67564047D01*
X11369706Y-67690795D01*
X11290816Y-67795123D01*
X11241279Y-67838221D01*
X11125478Y-67902501D01*
X11002190Y-67935372D01*
X10877435Y-67944722D01*
X10068381Y-67944722D01*
X10019930Y-67943407D01*
X9886687Y-67923685D01*
X9759938Y-67874013D01*
X9655610Y-67795123D01*
X9612513Y-67745762D01*
X9548232Y-67630224D01*
X9515361Y-67507069D01*
X9506011Y-67382353D01*
X9506011Y-66766861D01*
X9980453Y-66766861D01*
X9980453Y-67188790D01*
X10007451Y-67284794D01*
X10121503Y-67329230D01*
X10824923Y-67329230D01*
X10915852Y-67306052D01*
X10965362Y-67188790D01*
X10965362Y-66766861D01*
X10942184Y-66675536D01*
X10824923Y-66625811D01*
X10121503Y-66625811D01*
X10025082Y-66652809D01*
X9980453Y-66766861D01*
X9506011Y-66766861D01*
X9506011Y-66573299D01*
X9508349Y-66509137D01*
X9530701Y-66377820D01*
X9576720Y-66264567D01*
X9655610Y-66159918D01*
X9704971Y-66116820D01*
X9820510Y-66052539D01*
X9943664Y-66019669D01*
X10068381Y-66010319D01*
X10877435Y-66010319D01*
X10941596Y-66012656D01*
G37*
G36*
X9506011Y-69497496D02*
G01*
X9519178Y-69631677D01*
X9558676Y-69749677D01*
X9634588Y-69863085D01*
X9716671Y-69937133D01*
X9648802Y-70051481D01*
X9594642Y-70172033D01*
X9557302Y-70287011D01*
X9528101Y-70411545D01*
X9510069Y-70536538D01*
X9506011Y-70622845D01*
X9506011Y-70658260D01*
X9517410Y-70785069D01*
X9556813Y-70908407D01*
X9624362Y-71013260D01*
X9650115Y-71041111D01*
X9749481Y-71117425D01*
X9867453Y-71165474D01*
X9989533Y-71184553D01*
X10033576Y-71185825D01*
X11405000Y-71185825D01*
X11405000Y-70570333D01*
X10138600Y-70570333D01*
X10051284Y-70534918D01*
X10015868Y-70446990D01*
X10015868Y-70429282D01*
X10025743Y-70298307D01*
X10049058Y-70170271D01*
X10081768Y-70040354D01*
X10086088Y-70025061D01*
X11405000Y-70025061D01*
X11405000Y-69409569D01*
X10138600Y-69409569D01*
X10051284Y-69374153D01*
X10015868Y-69286226D01*
X10015868Y-69268518D01*
X10025743Y-69137543D01*
X10049058Y-69009506D01*
X10081768Y-68879590D01*
X10086088Y-68864296D01*
X11405000Y-68864296D01*
X11405000Y-68248804D01*
X9540816Y-68248804D01*
X9540816Y-68794077D01*
X9716671Y-68828881D01*
X9648802Y-68943655D01*
X9594642Y-69060449D01*
X9557302Y-69168379D01*
X9526047Y-69291254D01*
X9507815Y-69415291D01*
X9506011Y-69462081D01*
X9506011Y-69497496D01*
G37*
D10*
%TO.C,HOLE\u002A\u002A*%
X-2160000Y-1856667D02*
G75*
G02*
X-5760000Y-1856667I-1800000J0D01*
G01*
X-5760000Y-1856667D02*
G75*
G02*
X-2160000Y-1856667I1800000J0D01*
G01*
X34120000Y-54083333D02*
G75*
G02*
X30520000Y-54083333I-1800000J0D01*
G01*
X30520000Y-54083333D02*
G75*
G02*
X34120000Y-54083333I1800000J0D01*
G01*
X-2170000Y-44260000D02*
G75*
G02*
X-5770000Y-44260000I-1800000J0D01*
G01*
X-5770000Y-44260000D02*
G75*
G02*
X-2170000Y-44260000I1800000J0D01*
G01*
X34120000Y-27970000D02*
G75*
G02*
X30520000Y-27970000I-1800000J0D01*
G01*
X30520000Y-27970000D02*
G75*
G02*
X34120000Y-27970000I1800000J0D01*
G01*
X34120000Y-80196667D02*
G75*
G02*
X30520000Y-80196667I-1800000J0D01*
G01*
X30520000Y-80196667D02*
G75*
G02*
X34120000Y-80196667I1800000J0D01*
G01*
X-2160000Y-27970000D02*
G75*
G02*
X-5760000Y-27970000I-1800000J0D01*
G01*
X-5760000Y-27970000D02*
G75*
G02*
X-2160000Y-27970000I1800000J0D01*
G01*
X34120000Y-70363333D02*
G75*
G02*
X30520000Y-70363333I-1800000J0D01*
G01*
X30520000Y-70363333D02*
G75*
G02*
X34120000Y-70363333I1800000J0D01*
G01*
X17180000Y-75280000D02*
G75*
G02*
X12180000Y-75280000I-2500000J0D01*
G01*
X12180000Y-75280000D02*
G75*
G02*
X17180000Y-75280000I2500000J0D01*
G01*
X34120000Y-44250000D02*
G75*
G02*
X30520000Y-44250000I-1800000J0D01*
G01*
X30520000Y-44250000D02*
G75*
G02*
X34120000Y-44250000I1800000J0D01*
G01*
X34120000Y-1856667D02*
G75*
G02*
X30520000Y-1856667I-1800000J0D01*
G01*
X30520000Y-1856667D02*
G75*
G02*
X34120000Y-1856667I1800000J0D01*
G01*
X-2170000Y-70373333D02*
G75*
G02*
X-5770000Y-70373333I-1800000J0D01*
G01*
X-5770000Y-70373333D02*
G75*
G02*
X-2170000Y-70373333I1800000J0D01*
G01*
X-2170000Y-96486667D02*
G75*
G02*
X-5770000Y-96486667I-1800000J0D01*
G01*
X-5770000Y-96486667D02*
G75*
G02*
X-2170000Y-96486667I1800000J0D01*
G01*
X34120000Y-18136667D02*
G75*
G02*
X30520000Y-18136667I-1800000J0D01*
G01*
X30520000Y-18136667D02*
G75*
G02*
X34120000Y-18136667I1800000J0D01*
G01*
X17180000Y-49166666D02*
G75*
G02*
X12180000Y-49166666I-2500000J0D01*
G01*
X12180000Y-49166666D02*
G75*
G02*
X17180000Y-49166666I2500000J0D01*
G01*
X-2160000Y-80196667D02*
G75*
G02*
X-5760000Y-80196667I-1800000J0D01*
G01*
X-5760000Y-80196667D02*
G75*
G02*
X-2160000Y-80196667I1800000J0D01*
G01*
X-2160000Y-54083333D02*
G75*
G02*
X-5760000Y-54083333I-1800000J0D01*
G01*
X-5760000Y-54083333D02*
G75*
G02*
X-2160000Y-54083333I1800000J0D01*
G01*
X-2170000Y-18146667D02*
G75*
G02*
X-5770000Y-18146667I-1800000J0D01*
G01*
X-5770000Y-18146667D02*
G75*
G02*
X-2170000Y-18146667I1800000J0D01*
G01*
X17180000Y-23053333D02*
G75*
G02*
X12180000Y-23053333I-2500000J0D01*
G01*
X12180000Y-23053333D02*
G75*
G02*
X17180000Y-23053333I2500000J0D01*
G01*
X34120000Y-96476667D02*
G75*
G02*
X30520000Y-96476667I-1800000J0D01*
G01*
X30520000Y-96476667D02*
G75*
G02*
X34120000Y-96476667I1800000J0D01*
G01*
%TD*%
%LPC*%
D12*
%TO.C,HOLE\u002A\u002A*%
X-3960000Y-1856667D03*
%TD*%
%TO.C,HOLE\u002A\u002A*%
X32320000Y-54083333D03*
%TD*%
%TO.C,HOLE\u002A\u002A*%
X-3970000Y-44260000D03*
%TD*%
D13*
%TO.C,USB3*%
X90000Y-5676667D03*
X90000Y-14316667D03*
X-3710000Y-5676667D03*
X-3710000Y-14316667D03*
%TD*%
D12*
%TO.C,HOLE\u002A\u002A*%
X32320000Y-27970000D03*
%TD*%
D14*
%TO.C,J7*%
X32770000Y-32310000D03*
D15*
X32770000Y-34850000D03*
X32770000Y-37390000D03*
X32770000Y-39930000D03*
%TD*%
D12*
%TO.C,HOLE\u002A\u002A*%
X32320000Y-80196667D03*
%TD*%
D14*
%TO.C,J3*%
X5516750Y-11271667D03*
D15*
X5516750Y-8731667D03*
%TD*%
D14*
%TO.C,J9*%
X32770000Y-58423333D03*
D15*
X32770000Y-60963333D03*
X32770000Y-63503333D03*
X32770000Y-66043333D03*
%TD*%
D12*
%TO.C,HOLE\u002A\u002A*%
X-3960000Y-27970000D03*
%TD*%
%TO.C,HOLE\u002A\u002A*%
X32320000Y-70363333D03*
%TD*%
D13*
%TO.C,USB4*%
X90000Y-84016667D03*
X90000Y-92656667D03*
X-3710000Y-84016667D03*
X-3710000Y-92656667D03*
%TD*%
D16*
%TO.C,HOLE\u002A\u002A*%
X14640000Y-75280000D03*
%TD*%
D14*
%TO.C,J1*%
X6997600Y-37385000D03*
D15*
X6997600Y-34845000D03*
%TD*%
D12*
%TO.C,HOLE\u002A\u002A*%
X32320000Y-44250000D03*
%TD*%
D14*
%TO.C,J5*%
X32770000Y-6176667D03*
D15*
X32770000Y-8716667D03*
X32770000Y-11256667D03*
X32770000Y-13796667D03*
%TD*%
D12*
%TO.C,HOLE\u002A\u002A*%
X32320000Y-1856667D03*
%TD*%
%TO.C,HOLE\u002A\u002A*%
X-3970000Y-70373333D03*
%TD*%
%TO.C,HOLE\u002A\u002A*%
X-3970000Y-96486667D03*
%TD*%
%TO.C,HOLE\u002A\u002A*%
X32320000Y-18136667D03*
%TD*%
D14*
%TO.C,J2*%
X6882000Y-63498333D03*
D15*
X6882000Y-60958333D03*
%TD*%
D14*
%TO.C,J4*%
X14883250Y-7471667D03*
D15*
X14883250Y-10011667D03*
X14883250Y-12551667D03*
%TD*%
D16*
%TO.C,HOLE\u002A\u002A*%
X14640000Y-49166666D03*
%TD*%
D12*
%TO.C,HOLE\u002A\u002A*%
X-3960000Y-80196667D03*
%TD*%
D14*
%TO.C,J8*%
X32770000Y-84536667D03*
D15*
X32770000Y-87076667D03*
X32770000Y-89616667D03*
X32770000Y-92156667D03*
%TD*%
D14*
%TO.C,J6*%
X5830000Y-89611667D03*
D15*
X5830000Y-87071667D03*
%TD*%
D12*
%TO.C,HOLE\u002A\u002A*%
X-3960000Y-54083333D03*
%TD*%
%TO.C,HOLE\u002A\u002A*%
X-3970000Y-18146667D03*
%TD*%
D16*
%TO.C,HOLE\u002A\u002A*%
X14640000Y-23053333D03*
%TD*%
D13*
%TO.C,USB2*%
X90000Y-57903333D03*
X90000Y-66543333D03*
X-3710000Y-57903333D03*
X-3710000Y-66543333D03*
%TD*%
D12*
%TO.C,HOLE\u002A\u002A*%
X32320000Y-96476667D03*
%TD*%
D13*
%TO.C,USB1*%
X90000Y-31790000D03*
X90000Y-40430000D03*
X-3710000Y-31790000D03*
X-3710000Y-40430000D03*
%TD*%
%LPD*%
M02*
