%TF.GenerationSoftware,KiCad,Pcbnew,8.0.2*%
%TF.CreationDate,2024-04-29T22:59:26+08:00*%
%TF.ProjectId,UINIO-Power-LDO,55494e49-4f2d-4506-9f77-65722d4c444f,Version 2.0.0*%
%TF.SameCoordinates,PX7c793c0PY34d0820*%
%TF.FileFunction,Paste,Top*%
%TF.FilePolarity,Positive*%
%FSLAX46Y46*%
G04 Gerber Fmt 4.6, Leading zero omitted, Abs format (unit mm)*
G04 Created by KiCad (PCBNEW 8.0.2) date 2024-04-29 22:59:26*
%MOMM*%
%LPD*%
G01*
G04 APERTURE LIST*
G04 Aperture macros list*
%AMRoundRect*
0 Rectangle with rounded corners*
0 $1 Rounding radius*
0 $2 $3 $4 $5 $6 $7 $8 $9 X,Y pos of 4 corners*
0 Add a 4 corners polygon primitive as box body*
4,1,4,$2,$3,$4,$5,$6,$7,$8,$9,$2,$3,0*
0 Add four circle primitives for the rounded corners*
1,1,$1+$1,$2,$3*
1,1,$1+$1,$4,$5*
1,1,$1+$1,$6,$7*
1,1,$1+$1,$8,$9*
0 Add four rect primitives between the rounded corners*
20,1,$1+$1,$2,$3,$4,$5,0*
20,1,$1+$1,$4,$5,$6,$7,0*
20,1,$1+$1,$6,$7,$8,$9,0*
20,1,$1+$1,$8,$9,$2,$3,0*%
G04 Aperture macros list end*
%ADD10C,0.120000*%
%ADD11RoundRect,0.225000X-0.250000X0.225000X-0.250000X-0.225000X0.250000X-0.225000X0.250000X0.225000X0*%
%ADD12R,2.366000X0.980000*%
%ADD13R,2.366000X3.600000*%
%ADD14RoundRect,0.225000X-0.225000X-0.250000X0.225000X-0.250000X0.225000X0.250000X-0.225000X0.250000X0*%
%ADD15R,1.400000X0.700000*%
%ADD16R,1.400000X0.800000*%
%ADD17RoundRect,0.225000X0.225000X0.250000X-0.225000X0.250000X-0.225000X-0.250000X0.225000X-0.250000X0*%
%ADD18R,0.600000X1.000000*%
%ADD19RoundRect,0.200000X-0.200000X-0.275000X0.200000X-0.275000X0.200000X0.275000X-0.200000X0.275000X0*%
%ADD20RoundRect,0.200000X0.200000X0.275000X-0.200000X0.275000X-0.200000X-0.275000X0.200000X-0.275000X0*%
%ADD21RoundRect,0.218750X-0.218750X-0.256250X0.218750X-0.256250X0.218750X0.256250X-0.218750X0.256250X0*%
%ADD22RoundRect,0.250001X0.499999X0.924999X-0.499999X0.924999X-0.499999X-0.924999X0.499999X-0.924999X0*%
%ADD23R,1.200000X1.200000*%
%ADD24RoundRect,0.150000X0.150000X-0.512500X0.150000X0.512500X-0.150000X0.512500X-0.150000X-0.512500X0*%
%ADD25RoundRect,0.225000X0.250000X-0.225000X0.250000X0.225000X-0.250000X0.225000X-0.250000X-0.225000X0*%
G04 APERTURE END LIST*
D10*
%TO.C,USB3*%
X1790000Y-7646667D02*
X390000Y-7646667D01*
X390000Y-6846667D01*
X1790000Y-6846667D01*
X1790000Y-7646667D01*
G36*
X1790000Y-7646667D02*
G01*
X390000Y-7646667D01*
X390000Y-6846667D01*
X1790000Y-6846667D01*
X1790000Y-7646667D01*
G37*
X1790000Y-8826667D02*
X390000Y-8826667D01*
X390000Y-8126667D01*
X1790000Y-8126667D01*
X1790000Y-8826667D01*
G36*
X1790000Y-8826667D02*
G01*
X390000Y-8826667D01*
X390000Y-8126667D01*
X1790000Y-8126667D01*
X1790000Y-8826667D01*
G37*
X1790000Y-9846667D02*
X390000Y-9846667D01*
X390000Y-9146667D01*
X1790000Y-9146667D01*
X1790000Y-9846667D01*
G36*
X1790000Y-9846667D02*
G01*
X390000Y-9846667D01*
X390000Y-9146667D01*
X1790000Y-9146667D01*
X1790000Y-9846667D01*
G37*
X1790000Y-10846667D02*
X390000Y-10846667D01*
X390000Y-10146667D01*
X1790000Y-10146667D01*
X1790000Y-10846667D01*
G36*
X1790000Y-10846667D02*
G01*
X390000Y-10846667D01*
X390000Y-10146667D01*
X1790000Y-10146667D01*
X1790000Y-10846667D01*
G37*
X1790000Y-11866667D02*
X390000Y-11866667D01*
X390000Y-11166667D01*
X1790000Y-11166667D01*
X1790000Y-11866667D01*
G36*
X1790000Y-11866667D02*
G01*
X390000Y-11866667D01*
X390000Y-11166667D01*
X1790000Y-11166667D01*
X1790000Y-11866667D01*
G37*
X1790000Y-13146667D02*
X390000Y-13146667D01*
X390000Y-12346667D01*
X1790000Y-12346667D01*
X1790000Y-13146667D01*
G36*
X1790000Y-13146667D02*
G01*
X390000Y-13146667D01*
X390000Y-12346667D01*
X1790000Y-12346667D01*
X1790000Y-13146667D01*
G37*
X-3212000Y-5186667D02*
X-3119000Y-5214667D01*
X-3032000Y-5260667D01*
X-2956000Y-5322667D01*
X-2894000Y-5398667D01*
X-2848000Y-5485667D01*
X-2820000Y-5578667D01*
X-2810000Y-5676667D01*
X-2820000Y-5774667D01*
X-2848000Y-5867667D01*
X-2894000Y-5954667D01*
X-2956000Y-6030667D01*
X-3032000Y-6092667D01*
X-3119000Y-6138667D01*
X-3212000Y-6166667D01*
X-3310000Y-6176667D01*
X-4110000Y-6176667D01*
X-4208000Y-6166667D01*
X-4301000Y-6138667D01*
X-4388000Y-6092667D01*
X-4464000Y-6030667D01*
X-4526000Y-5954667D01*
X-4572000Y-5867667D01*
X-4600000Y-5774667D01*
X-4610000Y-5676667D01*
X-4600000Y-5578667D01*
X-4572000Y-5485667D01*
X-4526000Y-5398667D01*
X-4464000Y-5322667D01*
X-4388000Y-5260667D01*
X-4301000Y-5214667D01*
X-4208000Y-5186667D01*
X-4110000Y-5176667D01*
X-3310000Y-5176667D01*
X-3212000Y-5186667D01*
G36*
X-3212000Y-5186667D02*
G01*
X-3119000Y-5214667D01*
X-3032000Y-5260667D01*
X-2956000Y-5322667D01*
X-2894000Y-5398667D01*
X-2848000Y-5485667D01*
X-2820000Y-5578667D01*
X-2810000Y-5676667D01*
X-2820000Y-5774667D01*
X-2848000Y-5867667D01*
X-2894000Y-5954667D01*
X-2956000Y-6030667D01*
X-3032000Y-6092667D01*
X-3119000Y-6138667D01*
X-3212000Y-6166667D01*
X-3310000Y-6176667D01*
X-4110000Y-6176667D01*
X-4208000Y-6166667D01*
X-4301000Y-6138667D01*
X-4388000Y-6092667D01*
X-4464000Y-6030667D01*
X-4526000Y-5954667D01*
X-4572000Y-5867667D01*
X-4600000Y-5774667D01*
X-4610000Y-5676667D01*
X-4600000Y-5578667D01*
X-4572000Y-5485667D01*
X-4526000Y-5398667D01*
X-4464000Y-5322667D01*
X-4388000Y-5260667D01*
X-4301000Y-5214667D01*
X-4208000Y-5186667D01*
X-4110000Y-5176667D01*
X-3310000Y-5176667D01*
X-3212000Y-5186667D01*
G37*
X-3212000Y-13826667D02*
X-3119000Y-13854667D01*
X-3032000Y-13900667D01*
X-2956000Y-13963667D01*
X-2894000Y-14038667D01*
X-2848000Y-14125667D01*
X-2820000Y-14219667D01*
X-2810000Y-14316667D01*
X-2820000Y-14414667D01*
X-2848000Y-14507667D01*
X-2894000Y-14594667D01*
X-2956000Y-14670667D01*
X-3032000Y-14732667D01*
X-3119000Y-14778667D01*
X-3212000Y-14806667D01*
X-3310000Y-14816667D01*
X-4110000Y-14816667D01*
X-4208000Y-14806667D01*
X-4301000Y-14778667D01*
X-4388000Y-14732667D01*
X-4464000Y-14670667D01*
X-4526000Y-14594667D01*
X-4572000Y-14507667D01*
X-4600000Y-14414667D01*
X-4610000Y-14316667D01*
X-4600000Y-14219667D01*
X-4572000Y-14125667D01*
X-4526000Y-14038667D01*
X-4464000Y-13963667D01*
X-4388000Y-13900667D01*
X-4301000Y-13854667D01*
X-4208000Y-13826667D01*
X-4110000Y-13816667D01*
X-3310000Y-13816667D01*
X-3212000Y-13826667D01*
G36*
X-3212000Y-13826667D02*
G01*
X-3119000Y-13854667D01*
X-3032000Y-13900667D01*
X-2956000Y-13963667D01*
X-2894000Y-14038667D01*
X-2848000Y-14125667D01*
X-2820000Y-14219667D01*
X-2810000Y-14316667D01*
X-2820000Y-14414667D01*
X-2848000Y-14507667D01*
X-2894000Y-14594667D01*
X-2956000Y-14670667D01*
X-3032000Y-14732667D01*
X-3119000Y-14778667D01*
X-3212000Y-14806667D01*
X-3310000Y-14816667D01*
X-4110000Y-14816667D01*
X-4208000Y-14806667D01*
X-4301000Y-14778667D01*
X-4388000Y-14732667D01*
X-4464000Y-14670667D01*
X-4526000Y-14594667D01*
X-4572000Y-14507667D01*
X-4600000Y-14414667D01*
X-4610000Y-14316667D01*
X-4600000Y-14219667D01*
X-4572000Y-14125667D01*
X-4526000Y-14038667D01*
X-4464000Y-13963667D01*
X-4388000Y-13900667D01*
X-4301000Y-13854667D01*
X-4208000Y-13826667D01*
X-4110000Y-13816667D01*
X-3310000Y-13816667D01*
X-3212000Y-13826667D01*
G37*
X588000Y-5186667D02*
X681000Y-5214667D01*
X768000Y-5260667D01*
X844000Y-5322667D01*
X906000Y-5398667D01*
X952000Y-5485667D01*
X981000Y-5578667D01*
X990000Y-5676667D01*
X981000Y-5774667D01*
X952000Y-5867667D01*
X906000Y-5954667D01*
X844000Y-6030667D01*
X768000Y-6092667D01*
X681000Y-6138667D01*
X588000Y-6166667D01*
X490000Y-6176667D01*
X-310000Y-6176667D01*
X-407000Y-6166667D01*
X-501000Y-6138667D01*
X-588000Y-6092667D01*
X-663000Y-6030667D01*
X-726000Y-5954667D01*
X-772000Y-5867667D01*
X-800000Y-5774667D01*
X-810000Y-5676667D01*
X-800000Y-5578667D01*
X-772000Y-5485667D01*
X-726000Y-5398667D01*
X-663000Y-5322667D01*
X-588000Y-5260667D01*
X-501000Y-5214667D01*
X-407000Y-5186667D01*
X-310000Y-5176667D01*
X490000Y-5176667D01*
X588000Y-5186667D01*
G36*
X588000Y-5186667D02*
G01*
X681000Y-5214667D01*
X768000Y-5260667D01*
X844000Y-5322667D01*
X906000Y-5398667D01*
X952000Y-5485667D01*
X981000Y-5578667D01*
X990000Y-5676667D01*
X981000Y-5774667D01*
X952000Y-5867667D01*
X906000Y-5954667D01*
X844000Y-6030667D01*
X768000Y-6092667D01*
X681000Y-6138667D01*
X588000Y-6166667D01*
X490000Y-6176667D01*
X-310000Y-6176667D01*
X-407000Y-6166667D01*
X-501000Y-6138667D01*
X-588000Y-6092667D01*
X-663000Y-6030667D01*
X-726000Y-5954667D01*
X-772000Y-5867667D01*
X-800000Y-5774667D01*
X-810000Y-5676667D01*
X-800000Y-5578667D01*
X-772000Y-5485667D01*
X-726000Y-5398667D01*
X-663000Y-5322667D01*
X-588000Y-5260667D01*
X-501000Y-5214667D01*
X-407000Y-5186667D01*
X-310000Y-5176667D01*
X490000Y-5176667D01*
X588000Y-5186667D01*
G37*
X588000Y-13826667D02*
X681000Y-13854667D01*
X768000Y-13900667D01*
X844000Y-13963667D01*
X906000Y-14038667D01*
X952000Y-14125667D01*
X981000Y-14219667D01*
X990000Y-14316667D01*
X981000Y-14414667D01*
X952000Y-14507667D01*
X906000Y-14594667D01*
X844000Y-14670667D01*
X768000Y-14732667D01*
X681000Y-14778667D01*
X588000Y-14806667D01*
X490000Y-14816667D01*
X-310000Y-14816667D01*
X-407000Y-14806667D01*
X-501000Y-14778667D01*
X-588000Y-14732667D01*
X-663000Y-14670667D01*
X-726000Y-14594667D01*
X-772000Y-14507667D01*
X-800000Y-14414667D01*
X-810000Y-14316667D01*
X-800000Y-14219667D01*
X-772000Y-14125667D01*
X-726000Y-14038667D01*
X-663000Y-13963667D01*
X-588000Y-13900667D01*
X-501000Y-13854667D01*
X-407000Y-13826667D01*
X-310000Y-13816667D01*
X490000Y-13816667D01*
X588000Y-13826667D01*
G36*
X588000Y-13826667D02*
G01*
X681000Y-13854667D01*
X768000Y-13900667D01*
X844000Y-13963667D01*
X906000Y-14038667D01*
X952000Y-14125667D01*
X981000Y-14219667D01*
X990000Y-14316667D01*
X981000Y-14414667D01*
X952000Y-14507667D01*
X906000Y-14594667D01*
X844000Y-14670667D01*
X768000Y-14732667D01*
X681000Y-14778667D01*
X588000Y-14806667D01*
X490000Y-14816667D01*
X-310000Y-14816667D01*
X-407000Y-14806667D01*
X-501000Y-14778667D01*
X-588000Y-14732667D01*
X-663000Y-14670667D01*
X-726000Y-14594667D01*
X-772000Y-14507667D01*
X-800000Y-14414667D01*
X-810000Y-14316667D01*
X-800000Y-14219667D01*
X-772000Y-14125667D01*
X-726000Y-14038667D01*
X-663000Y-13963667D01*
X-588000Y-13900667D01*
X-501000Y-13854667D01*
X-407000Y-13826667D01*
X-310000Y-13816667D01*
X490000Y-13816667D01*
X588000Y-13826667D01*
G37*
%TO.C,USB4*%
X1790000Y-85986667D02*
X390000Y-85986667D01*
X390000Y-85186667D01*
X1790000Y-85186667D01*
X1790000Y-85986667D01*
G36*
X1790000Y-85986667D02*
G01*
X390000Y-85986667D01*
X390000Y-85186667D01*
X1790000Y-85186667D01*
X1790000Y-85986667D01*
G37*
X1790000Y-87166667D02*
X390000Y-87166667D01*
X390000Y-86466667D01*
X1790000Y-86466667D01*
X1790000Y-87166667D01*
G36*
X1790000Y-87166667D02*
G01*
X390000Y-87166667D01*
X390000Y-86466667D01*
X1790000Y-86466667D01*
X1790000Y-87166667D01*
G37*
X1790000Y-88186667D02*
X390000Y-88186667D01*
X390000Y-87486667D01*
X1790000Y-87486667D01*
X1790000Y-88186667D01*
G36*
X1790000Y-88186667D02*
G01*
X390000Y-88186667D01*
X390000Y-87486667D01*
X1790000Y-87486667D01*
X1790000Y-88186667D01*
G37*
X1790000Y-89186667D02*
X390000Y-89186667D01*
X390000Y-88486667D01*
X1790000Y-88486667D01*
X1790000Y-89186667D01*
G36*
X1790000Y-89186667D02*
G01*
X390000Y-89186667D01*
X390000Y-88486667D01*
X1790000Y-88486667D01*
X1790000Y-89186667D01*
G37*
X1790000Y-90206667D02*
X390000Y-90206667D01*
X390000Y-89506667D01*
X1790000Y-89506667D01*
X1790000Y-90206667D01*
G36*
X1790000Y-90206667D02*
G01*
X390000Y-90206667D01*
X390000Y-89506667D01*
X1790000Y-89506667D01*
X1790000Y-90206667D01*
G37*
X1790000Y-91486667D02*
X390000Y-91486667D01*
X390000Y-90686667D01*
X1790000Y-90686667D01*
X1790000Y-91486667D01*
G36*
X1790000Y-91486667D02*
G01*
X390000Y-91486667D01*
X390000Y-90686667D01*
X1790000Y-90686667D01*
X1790000Y-91486667D01*
G37*
X-3212000Y-83526667D02*
X-3119000Y-83554667D01*
X-3032000Y-83600667D01*
X-2956000Y-83662667D01*
X-2894000Y-83738667D01*
X-2848000Y-83825667D01*
X-2820000Y-83918667D01*
X-2810000Y-84016667D01*
X-2820000Y-84114667D01*
X-2848000Y-84207667D01*
X-2894000Y-84294667D01*
X-2956000Y-84370667D01*
X-3032000Y-84432667D01*
X-3119000Y-84478667D01*
X-3212000Y-84506667D01*
X-3310000Y-84516667D01*
X-4110000Y-84516667D01*
X-4208000Y-84506667D01*
X-4301000Y-84478667D01*
X-4388000Y-84432667D01*
X-4464000Y-84370667D01*
X-4526000Y-84294667D01*
X-4572000Y-84207667D01*
X-4600000Y-84114667D01*
X-4610000Y-84016667D01*
X-4600000Y-83918667D01*
X-4572000Y-83825667D01*
X-4526000Y-83738667D01*
X-4464000Y-83662667D01*
X-4388000Y-83600667D01*
X-4301000Y-83554667D01*
X-4208000Y-83526667D01*
X-4110000Y-83516667D01*
X-3310000Y-83516667D01*
X-3212000Y-83526667D01*
G36*
X-3212000Y-83526667D02*
G01*
X-3119000Y-83554667D01*
X-3032000Y-83600667D01*
X-2956000Y-83662667D01*
X-2894000Y-83738667D01*
X-2848000Y-83825667D01*
X-2820000Y-83918667D01*
X-2810000Y-84016667D01*
X-2820000Y-84114667D01*
X-2848000Y-84207667D01*
X-2894000Y-84294667D01*
X-2956000Y-84370667D01*
X-3032000Y-84432667D01*
X-3119000Y-84478667D01*
X-3212000Y-84506667D01*
X-3310000Y-84516667D01*
X-4110000Y-84516667D01*
X-4208000Y-84506667D01*
X-4301000Y-84478667D01*
X-4388000Y-84432667D01*
X-4464000Y-84370667D01*
X-4526000Y-84294667D01*
X-4572000Y-84207667D01*
X-4600000Y-84114667D01*
X-4610000Y-84016667D01*
X-4600000Y-83918667D01*
X-4572000Y-83825667D01*
X-4526000Y-83738667D01*
X-4464000Y-83662667D01*
X-4388000Y-83600667D01*
X-4301000Y-83554667D01*
X-4208000Y-83526667D01*
X-4110000Y-83516667D01*
X-3310000Y-83516667D01*
X-3212000Y-83526667D01*
G37*
X-3212000Y-92166667D02*
X-3119000Y-92194667D01*
X-3032000Y-92240667D01*
X-2956000Y-92303667D01*
X-2894000Y-92378667D01*
X-2848000Y-92465667D01*
X-2820000Y-92559667D01*
X-2810000Y-92656667D01*
X-2820000Y-92754667D01*
X-2848000Y-92847667D01*
X-2894000Y-92934667D01*
X-2956000Y-93010667D01*
X-3032000Y-93072667D01*
X-3119000Y-93118667D01*
X-3212000Y-93146667D01*
X-3310000Y-93156667D01*
X-4110000Y-93156667D01*
X-4208000Y-93146667D01*
X-4301000Y-93118667D01*
X-4388000Y-93072667D01*
X-4464000Y-93010667D01*
X-4526000Y-92934667D01*
X-4572000Y-92847667D01*
X-4600000Y-92754667D01*
X-4610000Y-92656667D01*
X-4600000Y-92559667D01*
X-4572000Y-92465667D01*
X-4526000Y-92378667D01*
X-4464000Y-92303667D01*
X-4388000Y-92240667D01*
X-4301000Y-92194667D01*
X-4208000Y-92166667D01*
X-4110000Y-92156667D01*
X-3310000Y-92156667D01*
X-3212000Y-92166667D01*
G36*
X-3212000Y-92166667D02*
G01*
X-3119000Y-92194667D01*
X-3032000Y-92240667D01*
X-2956000Y-92303667D01*
X-2894000Y-92378667D01*
X-2848000Y-92465667D01*
X-2820000Y-92559667D01*
X-2810000Y-92656667D01*
X-2820000Y-92754667D01*
X-2848000Y-92847667D01*
X-2894000Y-92934667D01*
X-2956000Y-93010667D01*
X-3032000Y-93072667D01*
X-3119000Y-93118667D01*
X-3212000Y-93146667D01*
X-3310000Y-93156667D01*
X-4110000Y-93156667D01*
X-4208000Y-93146667D01*
X-4301000Y-93118667D01*
X-4388000Y-93072667D01*
X-4464000Y-93010667D01*
X-4526000Y-92934667D01*
X-4572000Y-92847667D01*
X-4600000Y-92754667D01*
X-4610000Y-92656667D01*
X-4600000Y-92559667D01*
X-4572000Y-92465667D01*
X-4526000Y-92378667D01*
X-4464000Y-92303667D01*
X-4388000Y-92240667D01*
X-4301000Y-92194667D01*
X-4208000Y-92166667D01*
X-4110000Y-92156667D01*
X-3310000Y-92156667D01*
X-3212000Y-92166667D01*
G37*
X588000Y-83526667D02*
X681000Y-83554667D01*
X768000Y-83600667D01*
X844000Y-83662667D01*
X906000Y-83738667D01*
X952000Y-83825667D01*
X981000Y-83918667D01*
X990000Y-84016667D01*
X981000Y-84114667D01*
X952000Y-84207667D01*
X906000Y-84294667D01*
X844000Y-84370667D01*
X768000Y-84432667D01*
X681000Y-84478667D01*
X588000Y-84506667D01*
X490000Y-84516667D01*
X-310000Y-84516667D01*
X-407000Y-84506667D01*
X-501000Y-84478667D01*
X-588000Y-84432667D01*
X-663000Y-84370667D01*
X-726000Y-84294667D01*
X-772000Y-84207667D01*
X-800000Y-84114667D01*
X-810000Y-84016667D01*
X-800000Y-83918667D01*
X-772000Y-83825667D01*
X-726000Y-83738667D01*
X-663000Y-83662667D01*
X-588000Y-83600667D01*
X-501000Y-83554667D01*
X-407000Y-83526667D01*
X-310000Y-83516667D01*
X490000Y-83516667D01*
X588000Y-83526667D01*
G36*
X588000Y-83526667D02*
G01*
X681000Y-83554667D01*
X768000Y-83600667D01*
X844000Y-83662667D01*
X906000Y-83738667D01*
X952000Y-83825667D01*
X981000Y-83918667D01*
X990000Y-84016667D01*
X981000Y-84114667D01*
X952000Y-84207667D01*
X906000Y-84294667D01*
X844000Y-84370667D01*
X768000Y-84432667D01*
X681000Y-84478667D01*
X588000Y-84506667D01*
X490000Y-84516667D01*
X-310000Y-84516667D01*
X-407000Y-84506667D01*
X-501000Y-84478667D01*
X-588000Y-84432667D01*
X-663000Y-84370667D01*
X-726000Y-84294667D01*
X-772000Y-84207667D01*
X-800000Y-84114667D01*
X-810000Y-84016667D01*
X-800000Y-83918667D01*
X-772000Y-83825667D01*
X-726000Y-83738667D01*
X-663000Y-83662667D01*
X-588000Y-83600667D01*
X-501000Y-83554667D01*
X-407000Y-83526667D01*
X-310000Y-83516667D01*
X490000Y-83516667D01*
X588000Y-83526667D01*
G37*
X588000Y-92166667D02*
X681000Y-92194667D01*
X768000Y-92240667D01*
X844000Y-92303667D01*
X906000Y-92378667D01*
X952000Y-92465667D01*
X981000Y-92559667D01*
X990000Y-92656667D01*
X981000Y-92754667D01*
X952000Y-92847667D01*
X906000Y-92934667D01*
X844000Y-93010667D01*
X768000Y-93072667D01*
X681000Y-93118667D01*
X588000Y-93146667D01*
X490000Y-93156667D01*
X-310000Y-93156667D01*
X-407000Y-93146667D01*
X-501000Y-93118667D01*
X-588000Y-93072667D01*
X-663000Y-93010667D01*
X-726000Y-92934667D01*
X-772000Y-92847667D01*
X-800000Y-92754667D01*
X-810000Y-92656667D01*
X-800000Y-92559667D01*
X-772000Y-92465667D01*
X-726000Y-92378667D01*
X-663000Y-92303667D01*
X-588000Y-92240667D01*
X-501000Y-92194667D01*
X-407000Y-92166667D01*
X-310000Y-92156667D01*
X490000Y-92156667D01*
X588000Y-92166667D01*
G36*
X588000Y-92166667D02*
G01*
X681000Y-92194667D01*
X768000Y-92240667D01*
X844000Y-92303667D01*
X906000Y-92378667D01*
X952000Y-92465667D01*
X981000Y-92559667D01*
X990000Y-92656667D01*
X981000Y-92754667D01*
X952000Y-92847667D01*
X906000Y-92934667D01*
X844000Y-93010667D01*
X768000Y-93072667D01*
X681000Y-93118667D01*
X588000Y-93146667D01*
X490000Y-93156667D01*
X-310000Y-93156667D01*
X-407000Y-93146667D01*
X-501000Y-93118667D01*
X-588000Y-93072667D01*
X-663000Y-93010667D01*
X-726000Y-92934667D01*
X-772000Y-92847667D01*
X-800000Y-92754667D01*
X-810000Y-92656667D01*
X-800000Y-92559667D01*
X-772000Y-92465667D01*
X-726000Y-92378667D01*
X-663000Y-92303667D01*
X-588000Y-92240667D01*
X-501000Y-92194667D01*
X-407000Y-92166667D01*
X-310000Y-92156667D01*
X490000Y-92156667D01*
X588000Y-92166667D01*
G37*
%TO.C,USB2*%
X1790000Y-59873333D02*
X390000Y-59873333D01*
X390000Y-59073333D01*
X1790000Y-59073333D01*
X1790000Y-59873333D01*
G36*
X1790000Y-59873333D02*
G01*
X390000Y-59873333D01*
X390000Y-59073333D01*
X1790000Y-59073333D01*
X1790000Y-59873333D01*
G37*
X1790000Y-61053333D02*
X390000Y-61053333D01*
X390000Y-60353333D01*
X1790000Y-60353333D01*
X1790000Y-61053333D01*
G36*
X1790000Y-61053333D02*
G01*
X390000Y-61053333D01*
X390000Y-60353333D01*
X1790000Y-60353333D01*
X1790000Y-61053333D01*
G37*
X1790000Y-62073333D02*
X390000Y-62073333D01*
X390000Y-61373333D01*
X1790000Y-61373333D01*
X1790000Y-62073333D01*
G36*
X1790000Y-62073333D02*
G01*
X390000Y-62073333D01*
X390000Y-61373333D01*
X1790000Y-61373333D01*
X1790000Y-62073333D01*
G37*
X1790000Y-63073333D02*
X390000Y-63073333D01*
X390000Y-62373333D01*
X1790000Y-62373333D01*
X1790000Y-63073333D01*
G36*
X1790000Y-63073333D02*
G01*
X390000Y-63073333D01*
X390000Y-62373333D01*
X1790000Y-62373333D01*
X1790000Y-63073333D01*
G37*
X1790000Y-64093333D02*
X390000Y-64093333D01*
X390000Y-63393333D01*
X1790000Y-63393333D01*
X1790000Y-64093333D01*
G36*
X1790000Y-64093333D02*
G01*
X390000Y-64093333D01*
X390000Y-63393333D01*
X1790000Y-63393333D01*
X1790000Y-64093333D01*
G37*
X1790000Y-65373333D02*
X390000Y-65373333D01*
X390000Y-64573333D01*
X1790000Y-64573333D01*
X1790000Y-65373333D01*
G36*
X1790000Y-65373333D02*
G01*
X390000Y-65373333D01*
X390000Y-64573333D01*
X1790000Y-64573333D01*
X1790000Y-65373333D01*
G37*
X-3212000Y-57413333D02*
X-3119000Y-57441333D01*
X-3032000Y-57487333D01*
X-2956000Y-57549333D01*
X-2894000Y-57625333D01*
X-2848000Y-57712333D01*
X-2820000Y-57805333D01*
X-2810000Y-57903333D01*
X-2820000Y-58001333D01*
X-2848000Y-58094333D01*
X-2894000Y-58181333D01*
X-2956000Y-58257333D01*
X-3032000Y-58319333D01*
X-3119000Y-58365333D01*
X-3212000Y-58393333D01*
X-3310000Y-58403333D01*
X-4110000Y-58403333D01*
X-4208000Y-58393333D01*
X-4301000Y-58365333D01*
X-4388000Y-58319333D01*
X-4464000Y-58257333D01*
X-4526000Y-58181333D01*
X-4572000Y-58094333D01*
X-4600000Y-58001333D01*
X-4610000Y-57903333D01*
X-4600000Y-57805333D01*
X-4572000Y-57712333D01*
X-4526000Y-57625333D01*
X-4464000Y-57549333D01*
X-4388000Y-57487333D01*
X-4301000Y-57441333D01*
X-4208000Y-57413333D01*
X-4110000Y-57403333D01*
X-3310000Y-57403333D01*
X-3212000Y-57413333D01*
G36*
X-3212000Y-57413333D02*
G01*
X-3119000Y-57441333D01*
X-3032000Y-57487333D01*
X-2956000Y-57549333D01*
X-2894000Y-57625333D01*
X-2848000Y-57712333D01*
X-2820000Y-57805333D01*
X-2810000Y-57903333D01*
X-2820000Y-58001333D01*
X-2848000Y-58094333D01*
X-2894000Y-58181333D01*
X-2956000Y-58257333D01*
X-3032000Y-58319333D01*
X-3119000Y-58365333D01*
X-3212000Y-58393333D01*
X-3310000Y-58403333D01*
X-4110000Y-58403333D01*
X-4208000Y-58393333D01*
X-4301000Y-58365333D01*
X-4388000Y-58319333D01*
X-4464000Y-58257333D01*
X-4526000Y-58181333D01*
X-4572000Y-58094333D01*
X-4600000Y-58001333D01*
X-4610000Y-57903333D01*
X-4600000Y-57805333D01*
X-4572000Y-57712333D01*
X-4526000Y-57625333D01*
X-4464000Y-57549333D01*
X-4388000Y-57487333D01*
X-4301000Y-57441333D01*
X-4208000Y-57413333D01*
X-4110000Y-57403333D01*
X-3310000Y-57403333D01*
X-3212000Y-57413333D01*
G37*
X-3212000Y-66053333D02*
X-3119000Y-66081333D01*
X-3032000Y-66127333D01*
X-2956000Y-66190333D01*
X-2894000Y-66265333D01*
X-2848000Y-66352333D01*
X-2820000Y-66446333D01*
X-2810000Y-66543333D01*
X-2820000Y-66641333D01*
X-2848000Y-66734333D01*
X-2894000Y-66821333D01*
X-2956000Y-66897333D01*
X-3032000Y-66959333D01*
X-3119000Y-67005333D01*
X-3212000Y-67033333D01*
X-3310000Y-67043333D01*
X-4110000Y-67043333D01*
X-4208000Y-67033333D01*
X-4301000Y-67005333D01*
X-4388000Y-66959333D01*
X-4464000Y-66897333D01*
X-4526000Y-66821333D01*
X-4572000Y-66734333D01*
X-4600000Y-66641333D01*
X-4610000Y-66543333D01*
X-4600000Y-66446333D01*
X-4572000Y-66352333D01*
X-4526000Y-66265333D01*
X-4464000Y-66190333D01*
X-4388000Y-66127333D01*
X-4301000Y-66081333D01*
X-4208000Y-66053333D01*
X-4110000Y-66043333D01*
X-3310000Y-66043333D01*
X-3212000Y-66053333D01*
G36*
X-3212000Y-66053333D02*
G01*
X-3119000Y-66081333D01*
X-3032000Y-66127333D01*
X-2956000Y-66190333D01*
X-2894000Y-66265333D01*
X-2848000Y-66352333D01*
X-2820000Y-66446333D01*
X-2810000Y-66543333D01*
X-2820000Y-66641333D01*
X-2848000Y-66734333D01*
X-2894000Y-66821333D01*
X-2956000Y-66897333D01*
X-3032000Y-66959333D01*
X-3119000Y-67005333D01*
X-3212000Y-67033333D01*
X-3310000Y-67043333D01*
X-4110000Y-67043333D01*
X-4208000Y-67033333D01*
X-4301000Y-67005333D01*
X-4388000Y-66959333D01*
X-4464000Y-66897333D01*
X-4526000Y-66821333D01*
X-4572000Y-66734333D01*
X-4600000Y-66641333D01*
X-4610000Y-66543333D01*
X-4600000Y-66446333D01*
X-4572000Y-66352333D01*
X-4526000Y-66265333D01*
X-4464000Y-66190333D01*
X-4388000Y-66127333D01*
X-4301000Y-66081333D01*
X-4208000Y-66053333D01*
X-4110000Y-66043333D01*
X-3310000Y-66043333D01*
X-3212000Y-66053333D01*
G37*
X588000Y-57413333D02*
X681000Y-57441333D01*
X768000Y-57487333D01*
X844000Y-57549333D01*
X906000Y-57625333D01*
X952000Y-57712333D01*
X981000Y-57805333D01*
X990000Y-57903333D01*
X981000Y-58001333D01*
X952000Y-58094333D01*
X906000Y-58181333D01*
X844000Y-58257333D01*
X768000Y-58319333D01*
X681000Y-58365333D01*
X588000Y-58393333D01*
X490000Y-58403333D01*
X-310000Y-58403333D01*
X-407000Y-58393333D01*
X-501000Y-58365333D01*
X-588000Y-58319333D01*
X-663000Y-58257333D01*
X-726000Y-58181333D01*
X-772000Y-58094333D01*
X-800000Y-58001333D01*
X-810000Y-57903333D01*
X-800000Y-57805333D01*
X-772000Y-57712333D01*
X-726000Y-57625333D01*
X-663000Y-57549333D01*
X-588000Y-57487333D01*
X-501000Y-57441333D01*
X-407000Y-57413333D01*
X-310000Y-57403333D01*
X490000Y-57403333D01*
X588000Y-57413333D01*
G36*
X588000Y-57413333D02*
G01*
X681000Y-57441333D01*
X768000Y-57487333D01*
X844000Y-57549333D01*
X906000Y-57625333D01*
X952000Y-57712333D01*
X981000Y-57805333D01*
X990000Y-57903333D01*
X981000Y-58001333D01*
X952000Y-58094333D01*
X906000Y-58181333D01*
X844000Y-58257333D01*
X768000Y-58319333D01*
X681000Y-58365333D01*
X588000Y-58393333D01*
X490000Y-58403333D01*
X-310000Y-58403333D01*
X-407000Y-58393333D01*
X-501000Y-58365333D01*
X-588000Y-58319333D01*
X-663000Y-58257333D01*
X-726000Y-58181333D01*
X-772000Y-58094333D01*
X-800000Y-58001333D01*
X-810000Y-57903333D01*
X-800000Y-57805333D01*
X-772000Y-57712333D01*
X-726000Y-57625333D01*
X-663000Y-57549333D01*
X-588000Y-57487333D01*
X-501000Y-57441333D01*
X-407000Y-57413333D01*
X-310000Y-57403333D01*
X490000Y-57403333D01*
X588000Y-57413333D01*
G37*
X588000Y-66053333D02*
X681000Y-66081333D01*
X768000Y-66127333D01*
X844000Y-66190333D01*
X906000Y-66265333D01*
X952000Y-66352333D01*
X981000Y-66446333D01*
X990000Y-66543333D01*
X981000Y-66641333D01*
X952000Y-66734333D01*
X906000Y-66821333D01*
X844000Y-66897333D01*
X768000Y-66959333D01*
X681000Y-67005333D01*
X588000Y-67033333D01*
X490000Y-67043333D01*
X-310000Y-67043333D01*
X-407000Y-67033333D01*
X-501000Y-67005333D01*
X-588000Y-66959333D01*
X-663000Y-66897333D01*
X-726000Y-66821333D01*
X-772000Y-66734333D01*
X-800000Y-66641333D01*
X-810000Y-66543333D01*
X-800000Y-66446333D01*
X-772000Y-66352333D01*
X-726000Y-66265333D01*
X-663000Y-66190333D01*
X-588000Y-66127333D01*
X-501000Y-66081333D01*
X-407000Y-66053333D01*
X-310000Y-66043333D01*
X490000Y-66043333D01*
X588000Y-66053333D01*
G36*
X588000Y-66053333D02*
G01*
X681000Y-66081333D01*
X768000Y-66127333D01*
X844000Y-66190333D01*
X906000Y-66265333D01*
X952000Y-66352333D01*
X981000Y-66446333D01*
X990000Y-66543333D01*
X981000Y-66641333D01*
X952000Y-66734333D01*
X906000Y-66821333D01*
X844000Y-66897333D01*
X768000Y-66959333D01*
X681000Y-67005333D01*
X588000Y-67033333D01*
X490000Y-67043333D01*
X-310000Y-67043333D01*
X-407000Y-67033333D01*
X-501000Y-67005333D01*
X-588000Y-66959333D01*
X-663000Y-66897333D01*
X-726000Y-66821333D01*
X-772000Y-66734333D01*
X-800000Y-66641333D01*
X-810000Y-66543333D01*
X-800000Y-66446333D01*
X-772000Y-66352333D01*
X-726000Y-66265333D01*
X-663000Y-66190333D01*
X-588000Y-66127333D01*
X-501000Y-66081333D01*
X-407000Y-66053333D01*
X-310000Y-66043333D01*
X490000Y-66043333D01*
X588000Y-66053333D01*
G37*
%TO.C,USB1*%
X1790000Y-33760000D02*
X390000Y-33760000D01*
X390000Y-32960000D01*
X1790000Y-32960000D01*
X1790000Y-33760000D01*
G36*
X1790000Y-33760000D02*
G01*
X390000Y-33760000D01*
X390000Y-32960000D01*
X1790000Y-32960000D01*
X1790000Y-33760000D01*
G37*
X1790000Y-34940000D02*
X390000Y-34940000D01*
X390000Y-34240000D01*
X1790000Y-34240000D01*
X1790000Y-34940000D01*
G36*
X1790000Y-34940000D02*
G01*
X390000Y-34940000D01*
X390000Y-34240000D01*
X1790000Y-34240000D01*
X1790000Y-34940000D01*
G37*
X1790000Y-35960000D02*
X390000Y-35960000D01*
X390000Y-35260000D01*
X1790000Y-35260000D01*
X1790000Y-35960000D01*
G36*
X1790000Y-35960000D02*
G01*
X390000Y-35960000D01*
X390000Y-35260000D01*
X1790000Y-35260000D01*
X1790000Y-35960000D01*
G37*
X1790000Y-36960000D02*
X390000Y-36960000D01*
X390000Y-36260000D01*
X1790000Y-36260000D01*
X1790000Y-36960000D01*
G36*
X1790000Y-36960000D02*
G01*
X390000Y-36960000D01*
X390000Y-36260000D01*
X1790000Y-36260000D01*
X1790000Y-36960000D01*
G37*
X1790000Y-37980000D02*
X390000Y-37980000D01*
X390000Y-37280000D01*
X1790000Y-37280000D01*
X1790000Y-37980000D01*
G36*
X1790000Y-37980000D02*
G01*
X390000Y-37980000D01*
X390000Y-37280000D01*
X1790000Y-37280000D01*
X1790000Y-37980000D01*
G37*
X1790000Y-39260000D02*
X390000Y-39260000D01*
X390000Y-38460000D01*
X1790000Y-38460000D01*
X1790000Y-39260000D01*
G36*
X1790000Y-39260000D02*
G01*
X390000Y-39260000D01*
X390000Y-38460000D01*
X1790000Y-38460000D01*
X1790000Y-39260000D01*
G37*
X-3212000Y-31300000D02*
X-3119000Y-31328000D01*
X-3032000Y-31374000D01*
X-2956000Y-31436000D01*
X-2894000Y-31512000D01*
X-2848000Y-31599000D01*
X-2820000Y-31692000D01*
X-2810000Y-31790000D01*
X-2820000Y-31888000D01*
X-2848000Y-31981000D01*
X-2894000Y-32068000D01*
X-2956000Y-32144000D01*
X-3032000Y-32206000D01*
X-3119000Y-32252000D01*
X-3212000Y-32280000D01*
X-3310000Y-32290000D01*
X-4110000Y-32290000D01*
X-4208000Y-32280000D01*
X-4301000Y-32252000D01*
X-4388000Y-32206000D01*
X-4464000Y-32144000D01*
X-4526000Y-32068000D01*
X-4572000Y-31981000D01*
X-4600000Y-31888000D01*
X-4610000Y-31790000D01*
X-4600000Y-31692000D01*
X-4572000Y-31599000D01*
X-4526000Y-31512000D01*
X-4464000Y-31436000D01*
X-4388000Y-31374000D01*
X-4301000Y-31328000D01*
X-4208000Y-31300000D01*
X-4110000Y-31290000D01*
X-3310000Y-31290000D01*
X-3212000Y-31300000D01*
G36*
X-3212000Y-31300000D02*
G01*
X-3119000Y-31328000D01*
X-3032000Y-31374000D01*
X-2956000Y-31436000D01*
X-2894000Y-31512000D01*
X-2848000Y-31599000D01*
X-2820000Y-31692000D01*
X-2810000Y-31790000D01*
X-2820000Y-31888000D01*
X-2848000Y-31981000D01*
X-2894000Y-32068000D01*
X-2956000Y-32144000D01*
X-3032000Y-32206000D01*
X-3119000Y-32252000D01*
X-3212000Y-32280000D01*
X-3310000Y-32290000D01*
X-4110000Y-32290000D01*
X-4208000Y-32280000D01*
X-4301000Y-32252000D01*
X-4388000Y-32206000D01*
X-4464000Y-32144000D01*
X-4526000Y-32068000D01*
X-4572000Y-31981000D01*
X-4600000Y-31888000D01*
X-4610000Y-31790000D01*
X-4600000Y-31692000D01*
X-4572000Y-31599000D01*
X-4526000Y-31512000D01*
X-4464000Y-31436000D01*
X-4388000Y-31374000D01*
X-4301000Y-31328000D01*
X-4208000Y-31300000D01*
X-4110000Y-31290000D01*
X-3310000Y-31290000D01*
X-3212000Y-31300000D01*
G37*
X-3212000Y-39940000D02*
X-3119000Y-39968000D01*
X-3032000Y-40014000D01*
X-2956000Y-40077000D01*
X-2894000Y-40152000D01*
X-2848000Y-40239000D01*
X-2820000Y-40333000D01*
X-2810000Y-40430000D01*
X-2820000Y-40528000D01*
X-2848000Y-40621000D01*
X-2894000Y-40708000D01*
X-2956000Y-40784000D01*
X-3032000Y-40846000D01*
X-3119000Y-40892000D01*
X-3212000Y-40920000D01*
X-3310000Y-40930000D01*
X-4110000Y-40930000D01*
X-4208000Y-40920000D01*
X-4301000Y-40892000D01*
X-4388000Y-40846000D01*
X-4464000Y-40784000D01*
X-4526000Y-40708000D01*
X-4572000Y-40621000D01*
X-4600000Y-40528000D01*
X-4610000Y-40430000D01*
X-4600000Y-40333000D01*
X-4572000Y-40239000D01*
X-4526000Y-40152000D01*
X-4464000Y-40077000D01*
X-4388000Y-40014000D01*
X-4301000Y-39968000D01*
X-4208000Y-39940000D01*
X-4110000Y-39930000D01*
X-3310000Y-39930000D01*
X-3212000Y-39940000D01*
G36*
X-3212000Y-39940000D02*
G01*
X-3119000Y-39968000D01*
X-3032000Y-40014000D01*
X-2956000Y-40077000D01*
X-2894000Y-40152000D01*
X-2848000Y-40239000D01*
X-2820000Y-40333000D01*
X-2810000Y-40430000D01*
X-2820000Y-40528000D01*
X-2848000Y-40621000D01*
X-2894000Y-40708000D01*
X-2956000Y-40784000D01*
X-3032000Y-40846000D01*
X-3119000Y-40892000D01*
X-3212000Y-40920000D01*
X-3310000Y-40930000D01*
X-4110000Y-40930000D01*
X-4208000Y-40920000D01*
X-4301000Y-40892000D01*
X-4388000Y-40846000D01*
X-4464000Y-40784000D01*
X-4526000Y-40708000D01*
X-4572000Y-40621000D01*
X-4600000Y-40528000D01*
X-4610000Y-40430000D01*
X-4600000Y-40333000D01*
X-4572000Y-40239000D01*
X-4526000Y-40152000D01*
X-4464000Y-40077000D01*
X-4388000Y-40014000D01*
X-4301000Y-39968000D01*
X-4208000Y-39940000D01*
X-4110000Y-39930000D01*
X-3310000Y-39930000D01*
X-3212000Y-39940000D01*
G37*
X588000Y-31300000D02*
X681000Y-31328000D01*
X768000Y-31374000D01*
X844000Y-31436000D01*
X906000Y-31512000D01*
X952000Y-31599000D01*
X981000Y-31692000D01*
X990000Y-31790000D01*
X981000Y-31888000D01*
X952000Y-31981000D01*
X906000Y-32068000D01*
X844000Y-32144000D01*
X768000Y-32206000D01*
X681000Y-32252000D01*
X588000Y-32280000D01*
X490000Y-32290000D01*
X-310000Y-32290000D01*
X-407000Y-32280000D01*
X-501000Y-32252000D01*
X-588000Y-32206000D01*
X-663000Y-32144000D01*
X-726000Y-32068000D01*
X-772000Y-31981000D01*
X-800000Y-31888000D01*
X-810000Y-31790000D01*
X-800000Y-31692000D01*
X-772000Y-31599000D01*
X-726000Y-31512000D01*
X-663000Y-31436000D01*
X-588000Y-31374000D01*
X-501000Y-31328000D01*
X-407000Y-31300000D01*
X-310000Y-31290000D01*
X490000Y-31290000D01*
X588000Y-31300000D01*
G36*
X588000Y-31300000D02*
G01*
X681000Y-31328000D01*
X768000Y-31374000D01*
X844000Y-31436000D01*
X906000Y-31512000D01*
X952000Y-31599000D01*
X981000Y-31692000D01*
X990000Y-31790000D01*
X981000Y-31888000D01*
X952000Y-31981000D01*
X906000Y-32068000D01*
X844000Y-32144000D01*
X768000Y-32206000D01*
X681000Y-32252000D01*
X588000Y-32280000D01*
X490000Y-32290000D01*
X-310000Y-32290000D01*
X-407000Y-32280000D01*
X-501000Y-32252000D01*
X-588000Y-32206000D01*
X-663000Y-32144000D01*
X-726000Y-32068000D01*
X-772000Y-31981000D01*
X-800000Y-31888000D01*
X-810000Y-31790000D01*
X-800000Y-31692000D01*
X-772000Y-31599000D01*
X-726000Y-31512000D01*
X-663000Y-31436000D01*
X-588000Y-31374000D01*
X-501000Y-31328000D01*
X-407000Y-31300000D01*
X-310000Y-31290000D01*
X490000Y-31290000D01*
X588000Y-31300000D01*
G37*
X588000Y-39940000D02*
X681000Y-39968000D01*
X768000Y-40014000D01*
X844000Y-40077000D01*
X906000Y-40152000D01*
X952000Y-40239000D01*
X981000Y-40333000D01*
X990000Y-40430000D01*
X981000Y-40528000D01*
X952000Y-40621000D01*
X906000Y-40708000D01*
X844000Y-40784000D01*
X768000Y-40846000D01*
X681000Y-40892000D01*
X588000Y-40920000D01*
X490000Y-40930000D01*
X-310000Y-40930000D01*
X-407000Y-40920000D01*
X-501000Y-40892000D01*
X-588000Y-40846000D01*
X-663000Y-40784000D01*
X-726000Y-40708000D01*
X-772000Y-40621000D01*
X-800000Y-40528000D01*
X-810000Y-40430000D01*
X-800000Y-40333000D01*
X-772000Y-40239000D01*
X-726000Y-40152000D01*
X-663000Y-40077000D01*
X-588000Y-40014000D01*
X-501000Y-39968000D01*
X-407000Y-39940000D01*
X-310000Y-39930000D01*
X490000Y-39930000D01*
X588000Y-39940000D01*
G36*
X588000Y-39940000D02*
G01*
X681000Y-39968000D01*
X768000Y-40014000D01*
X844000Y-40077000D01*
X906000Y-40152000D01*
X952000Y-40239000D01*
X981000Y-40333000D01*
X990000Y-40430000D01*
X981000Y-40528000D01*
X952000Y-40621000D01*
X906000Y-40708000D01*
X844000Y-40784000D01*
X768000Y-40846000D01*
X681000Y-40892000D01*
X588000Y-40920000D01*
X490000Y-40930000D01*
X-310000Y-40930000D01*
X-407000Y-40920000D01*
X-501000Y-40892000D01*
X-588000Y-40846000D01*
X-663000Y-40784000D01*
X-726000Y-40708000D01*
X-772000Y-40621000D01*
X-800000Y-40528000D01*
X-810000Y-40430000D01*
X-800000Y-40333000D01*
X-772000Y-40239000D01*
X-726000Y-40152000D01*
X-663000Y-40077000D01*
X-588000Y-40014000D01*
X-501000Y-39968000D01*
X-407000Y-39940000D01*
X-310000Y-39930000D01*
X490000Y-39930000D01*
X588000Y-39940000D01*
G37*
%TD*%
D11*
%TO.C,C5*%
X21070000Y-5580000D03*
X21070000Y-7130000D03*
%TD*%
D12*
%TO.C,U4*%
X15445000Y-87016667D03*
X15445000Y-89316667D03*
X15445000Y-91616667D03*
D13*
X21171000Y-89316667D03*
%TD*%
D14*
%TO.C,C1*%
X18480000Y-32156667D03*
X20030000Y-32156667D03*
%TD*%
D15*
%TO.C,USB3*%
X1090000Y-9496667D03*
X1090000Y-11516667D03*
D16*
X1090000Y-12746667D03*
D15*
X1090000Y-10496667D03*
X1090000Y-8476667D03*
D16*
X1090000Y-7246667D03*
%TD*%
D17*
%TO.C,C4*%
X19620000Y-65330000D03*
X18070000Y-65330000D03*
%TD*%
D18*
%TO.C,U1*%
X20044800Y-34810000D03*
X19094800Y-34810000D03*
X18144800Y-34810000D03*
X18144800Y-37410000D03*
X20044800Y-37410000D03*
%TD*%
D19*
%TO.C,R4*%
X6057000Y-67496667D03*
X7707000Y-67496667D03*
%TD*%
D14*
%TO.C,C3*%
X18480000Y-40086667D03*
X20030000Y-40086667D03*
%TD*%
%TO.C,C8*%
X17533000Y-93889667D03*
X19083000Y-93889667D03*
%TD*%
D19*
%TO.C,R9*%
X5005000Y-93596667D03*
X6655000Y-93596667D03*
%TD*%
D20*
%TO.C,R7*%
X25990000Y-34906667D03*
X24340000Y-34906667D03*
%TD*%
D19*
%TO.C,R5*%
X4691750Y-4816667D03*
X6341750Y-4816667D03*
%TD*%
D17*
%TO.C,C7*%
X26375000Y-12176667D03*
X24825000Y-12176667D03*
%TD*%
D15*
%TO.C,USB4*%
X1090000Y-87836667D03*
X1090000Y-89856667D03*
D16*
X1090000Y-91086667D03*
D15*
X1090000Y-88836667D03*
X1090000Y-86816667D03*
D16*
X1090000Y-85586667D03*
%TD*%
D21*
%TO.C,D5*%
X24832500Y-9396667D03*
X26407500Y-9396667D03*
%TD*%
D22*
%TO.C,C9*%
X19830000Y-83419667D03*
X16580000Y-83419667D03*
%TD*%
D21*
%TO.C,D8*%
X24727500Y-89596667D03*
X26302500Y-89596667D03*
%TD*%
D23*
%TO.C,D1*%
X13120200Y-34787500D03*
X13120200Y-37587500D03*
%TD*%
D19*
%TO.C,R12*%
X24670000Y-87276667D03*
X26320000Y-87276667D03*
%TD*%
%TO.C,R6*%
X4691750Y-15176667D03*
X6341750Y-15176667D03*
%TD*%
D20*
%TO.C,R10*%
X26425000Y-7836667D03*
X24775000Y-7836667D03*
%TD*%
D21*
%TO.C,D7*%
X23782500Y-63326667D03*
X25357500Y-63326667D03*
%TD*%
D23*
%TO.C,D4*%
X10200000Y-8674167D03*
X10200000Y-11474167D03*
%TD*%
D24*
%TO.C,U2*%
X17722500Y-63360833D03*
X19622500Y-63360833D03*
X18672500Y-61085833D03*
%TD*%
D23*
%TO.C,D2*%
X12739750Y-60900833D03*
X12739750Y-63700833D03*
%TD*%
D19*
%TO.C,R3*%
X6057000Y-56896667D03*
X7707000Y-56896667D03*
%TD*%
%TO.C,R2*%
X6170000Y-41416667D03*
X7820000Y-41416667D03*
%TD*%
D23*
%TO.C,D6*%
X10958500Y-87014167D03*
X10958500Y-89814167D03*
%TD*%
D25*
%TO.C,C6*%
X19170000Y-14405000D03*
X19170000Y-12855000D03*
%TD*%
D18*
%TO.C,U3*%
X21068500Y-8696667D03*
X20118500Y-8696667D03*
X19168500Y-8696667D03*
X19168500Y-11296667D03*
X21068500Y-11296667D03*
%TD*%
D20*
%TO.C,R8*%
X6655000Y-83131667D03*
X5005000Y-83131667D03*
%TD*%
D25*
%TO.C,C2*%
X18670000Y-59370000D03*
X18670000Y-57820000D03*
%TD*%
D19*
%TO.C,R1*%
X6085000Y-30836667D03*
X7735000Y-30836667D03*
%TD*%
D15*
%TO.C,USB2*%
X1090000Y-61723333D03*
X1090000Y-63743333D03*
D16*
X1090000Y-64973333D03*
D15*
X1090000Y-62723333D03*
X1090000Y-60703333D03*
D16*
X1090000Y-59473333D03*
%TD*%
D20*
%TO.C,R11*%
X25375000Y-61256667D03*
X23725000Y-61256667D03*
%TD*%
D21*
%TO.C,D3*%
X24397500Y-37136667D03*
X25972500Y-37136667D03*
%TD*%
D15*
%TO.C,USB1*%
X1090000Y-35610000D03*
X1090000Y-37630000D03*
D16*
X1090000Y-38860000D03*
D15*
X1090000Y-36610000D03*
X1090000Y-34590000D03*
D16*
X1090000Y-33360000D03*
%TD*%
M02*
